<svg width="1920" height="1000" viewBox="0 0 1920 1000" fill="none" xmlns="http://www.w3.org/2000/svg">
<mask id="mask0_597_20486" style="mask-type:alpha" maskUnits="userSpaceOnUse" x="0" y="0" width="1920" height="992">
<rect width="1920" height="992" fill="white"/>
</mask>
<g mask="url(#mask0_597_20486)">
<mask id="mask1_597_20486" style="mask-type:luminance" maskUnits="userSpaceOnUse" x="-1" y="392" width="1922" height="732">
<path d="M1920.41 392H-0.684082V1124H1920.41V392Z" fill="white"/>
</mask>
<g mask="url(#mask1_597_20486)">
<path opacity="0.025" d="M1044.94 396.575C1045.95 396.575 1046.77 395.756 1046.77 394.745C1046.77 393.734 1045.95 392.915 1044.94 392.915C1043.93 392.915 1043.11 393.734 1043.11 394.745C1043.11 395.756 1043.93 396.575 1044.94 396.575Z" fill="#16171A"/>
<path opacity="0.025" d="M937.906 434.09C938.916 434.09 939.735 433.27 939.735 432.26C939.735 431.249 938.916 430.43 937.906 430.43C936.895 430.43 936.076 431.249 936.076 432.26C936.076 433.27 936.895 434.09 937.906 434.09Z" fill="#16171A"/>
<path opacity="0.025" d="M966.265 476.18C967.781 476.18 969.009 474.951 969.009 473.435C969.009 471.919 967.781 470.69 966.265 470.69C964.749 470.69 963.521 471.919 963.521 473.435C963.521 474.951 964.749 476.18 966.265 476.18Z" fill="#16171A"/>
<path opacity="0.025" d="M788.793 417.619C789.803 417.619 790.622 416.8 790.622 415.789C790.622 414.779 789.803 413.959 788.793 413.959C787.782 413.959 786.963 414.779 786.963 415.789C786.963 416.8 787.782 417.619 788.793 417.619Z" fill="#16171A"/>
<path opacity="0.025" d="M995.538 514.61C997.054 514.61 998.283 513.381 998.283 511.865C998.283 510.349 997.054 509.12 995.538 509.12C994.023 509.12 992.794 510.349 992.794 511.865C992.794 513.381 994.023 514.61 995.538 514.61Z" fill="#16171A"/>
<path opacity="0.025" d="M808.918 486.245C810.434 486.245 811.663 485.016 811.663 483.5C811.663 481.984 810.434 480.755 808.918 480.755C807.403 480.755 806.174 481.984 806.174 483.5C806.174 485.016 807.403 486.245 808.918 486.245Z" fill="#16171A"/>
<path opacity="0.025" d="M776.9 463.369C777.91 463.369 778.73 462.55 778.73 461.539C778.73 460.529 777.91 459.709 776.9 459.709C775.889 459.709 775.07 460.529 775.07 461.539C775.07 462.55 775.889 463.369 776.9 463.369Z" fill="#16171A"/>
<path opacity="0.025" d="M1094.34 519.185C1095.35 519.185 1096.17 518.366 1096.17 517.355C1096.17 516.345 1095.35 515.525 1094.34 515.525C1093.33 515.525 1092.51 516.345 1092.51 517.355C1092.51 518.366 1093.33 519.185 1094.34 519.185Z" fill="#16171A"/>
<path opacity="0.025" d="M708.29 456.965C709.301 456.965 710.12 456.146 710.12 455.135C710.12 454.124 709.301 453.305 708.29 453.305C707.28 453.305 706.46 454.124 706.46 455.135C706.46 456.146 707.28 456.965 708.29 456.965Z" fill="#16171A"/>
<path opacity="0.025" d="M1087.02 572.255C1088.03 572.255 1088.85 571.436 1088.85 570.425C1088.85 569.415 1088.03 568.595 1087.02 568.595C1086.01 568.595 1085.19 569.415 1085.19 570.425C1085.19 571.436 1086.01 572.255 1087.02 572.255Z" fill="#16171A"/>
<path opacity="0.025" d="M1051.34 587.81C1052.86 587.81 1054.09 586.581 1054.09 585.065C1054.09 583.549 1052.86 582.32 1051.34 582.32C1049.83 582.32 1048.6 583.549 1048.6 585.065C1048.6 586.581 1049.83 587.81 1051.34 587.81Z" fill="#16171A"/>
<path opacity="0.025" d="M1014.75 598.789C1016.27 598.789 1017.49 597.56 1017.49 596.044C1017.49 594.528 1016.27 593.299 1014.75 593.299C1013.23 593.299 1012 594.528 1012 596.044C1012 597.56 1013.23 598.789 1014.75 598.789Z" fill="#16171A"/>
<path opacity="0.025" d="M937.906 607.025C939.422 607.025 940.65 605.796 940.65 604.28C940.65 602.764 939.422 601.535 937.906 601.535C936.39 601.535 935.162 602.764 935.162 604.28C935.162 605.796 936.39 607.025 937.906 607.025Z" fill="#16171A"/>
<path opacity="0.025" d="M787.878 573.17C789.393 573.17 790.622 571.941 790.622 570.425C790.622 568.909 789.393 567.68 787.878 567.68C786.362 567.68 785.133 568.909 785.133 570.425C785.133 571.941 786.362 573.17 787.878 573.17Z" fill="#16171A"/>
<path opacity="0.025" d="M754.03 553.955C755.546 553.955 756.774 552.726 756.774 551.21C756.774 549.694 755.546 548.465 754.03 548.465C752.514 548.465 751.286 549.694 751.286 551.21C751.286 552.726 752.514 553.955 754.03 553.955Z" fill="#16171A"/>
<path opacity="0.025" d="M668.038 476.18C669.049 476.18 669.868 475.361 669.868 474.35C669.868 473.339 669.049 472.52 668.038 472.52C667.028 472.52 666.208 473.339 666.208 474.35C666.208 475.361 667.028 476.18 668.038 476.18Z" fill="#16171A"/>
<path opacity="0.025" d="M646.083 445.07C647.093 445.07 647.913 444.25 647.913 443.24C647.913 442.229 647.093 441.41 646.083 441.41C645.073 441.41 644.253 442.229 644.253 443.24C644.253 444.25 645.073 445.07 646.083 445.07Z" fill="#16171A"/>
<path opacity="0.025" d="M1042.19 634.475C1043.2 634.475 1044.02 633.656 1044.02 632.645C1044.02 631.634 1043.2 630.815 1042.19 630.815C1041.18 630.815 1040.36 631.634 1040.36 632.645C1040.36 633.656 1041.18 634.475 1042.19 634.475Z" fill="#16171A"/>
<path opacity="0.025" d="M966.265 649.115C967.781 649.115 969.009 647.886 969.009 646.37C969.009 644.853 967.781 643.625 966.265 643.625C964.749 643.625 963.521 644.853 963.521 646.37C963.521 647.886 964.749 649.115 966.265 649.115Z" fill="#16171A"/>
<path opacity="0.025" d="M851.914 640.88C853.43 640.88 854.659 639.651 854.659 638.135C854.659 636.619 853.43 635.39 851.914 635.39C850.399 635.39 849.17 636.619 849.17 638.135C849.17 639.651 850.399 640.88 851.914 640.88Z" fill="#16171A"/>
<path opacity="0.025" d="M778.73 616.175C780.245 616.175 781.474 614.946 781.474 613.43C781.474 611.914 780.245 610.685 778.73 610.685C777.214 610.685 775.985 611.914 775.985 613.43C775.985 614.946 777.214 616.175 778.73 616.175Z" fill="#16171A"/>
<path opacity="0.025" d="M681.76 552.125C682.771 552.125 683.59 551.306 683.59 550.295C683.59 549.284 682.771 548.465 681.76 548.465C680.75 548.465 679.931 549.284 679.931 550.295C679.931 551.306 680.75 552.125 681.76 552.125Z" fill="#16171A"/>
<path opacity="0.025" d="M653.401 525.59C654.412 525.59 655.231 524.77 655.231 523.76C655.231 522.749 654.412 521.93 653.401 521.93C652.391 521.93 651.572 522.749 651.572 523.76C651.572 524.77 652.391 525.59 653.401 525.59Z" fill="#16171A"/>
<path opacity="0.025" d="M628.701 495.395C629.712 495.395 630.531 494.576 630.531 493.565C630.531 492.554 629.712 491.735 628.701 491.735C627.691 491.735 626.872 492.554 626.872 493.565C626.872 494.576 627.691 495.395 628.701 495.395Z" fill="#16171A"/>
<path opacity="0.025" d="M1205.94 598.79C1206.95 598.79 1207.77 597.971 1207.77 596.96C1207.77 595.95 1206.95 595.13 1205.94 595.13C1204.93 595.13 1204.11 595.95 1204.11 596.96C1204.11 597.971 1204.93 598.79 1205.94 598.79Z" fill="#16171A"/>
<path opacity="0.025" d="M1174.84 620.75C1175.85 620.75 1176.67 619.931 1176.67 618.92C1176.67 617.909 1175.85 617.09 1174.84 617.09C1173.83 617.09 1173.01 617.909 1173.01 618.92C1173.01 619.931 1173.83 620.75 1174.84 620.75Z" fill="#16171A"/>
<path opacity="0.025" d="M1033.05 682.054C1034.56 682.054 1035.79 680.825 1035.79 679.309C1035.79 677.793 1034.56 676.564 1033.05 676.564C1031.53 676.564 1030.3 677.793 1030.3 679.309C1030.3 680.825 1031.53 682.054 1033.05 682.054Z" fill="#16171A"/>
<path opacity="0.025" d="M995.538 689.375C997.054 689.375 998.283 688.146 998.283 686.63C998.283 685.114 997.054 683.885 995.538 683.885C994.023 683.885 992.794 685.114 992.794 686.63C992.794 688.146 994.023 689.375 995.538 689.375Z" fill="#16171A"/>
<path opacity="0.025" d="M957.117 693.035C958.633 693.035 959.861 691.806 959.861 690.29C959.861 688.774 958.633 687.545 957.117 687.545C955.601 687.545 954.373 688.774 954.373 690.29C954.373 691.806 955.601 693.035 957.117 693.035Z" fill="#16171A"/>
<path opacity="0.025" d="M918.695 693.035C920.21 693.035 921.439 691.806 921.439 690.29C921.439 688.774 920.21 687.545 918.695 687.545C917.179 687.545 915.95 688.774 915.95 690.29C915.95 691.806 917.179 693.035 918.695 693.035Z" fill="#16171A"/>
<path opacity="0.025" d="M841.851 682.054C843.367 682.054 844.596 680.825 844.596 679.309C844.596 677.793 843.367 676.564 841.851 676.564C840.336 676.564 839.107 677.793 839.107 679.309C839.107 680.825 840.336 682.054 841.851 682.054Z" fill="#16171A"/>
<path opacity="0.025" d="M804.344 671.99C805.86 671.99 807.088 670.761 807.088 669.245C807.088 667.729 805.86 666.5 804.344 666.5C802.828 666.5 801.6 667.729 801.6 669.245C801.6 670.761 802.828 671.99 804.344 671.99Z" fill="#16171A"/>
<path opacity="0.025" d="M700.971 621.665C702.487 621.665 703.715 620.436 703.715 618.92C703.715 617.404 702.487 616.175 700.971 616.175C699.455 616.175 698.227 617.404 698.227 618.92C698.227 620.436 699.455 621.665 700.971 621.665Z" fill="#16171A"/>
<path opacity="0.025" d="M1335.85 518.27C1336.86 518.27 1337.68 517.451 1337.68 516.44C1337.68 515.43 1336.86 514.61 1335.85 514.61C1334.84 514.61 1334.02 515.43 1334.02 516.44C1334.02 517.451 1334.84 518.27 1335.85 518.27Z" fill="#16171A"/>
<path opacity="0.025" d="M1261.75 607.94C1263.26 607.94 1264.49 606.711 1264.49 605.195C1264.49 603.679 1263.26 602.45 1261.75 602.45C1260.23 602.45 1259 603.679 1259 605.195C1259 606.711 1260.23 607.94 1261.75 607.94Z" fill="#16171A"/>
<path opacity="0.025" d="M1134.59 693.949C1136.1 693.949 1137.33 692.72 1137.33 691.204C1137.33 689.688 1136.1 688.459 1134.59 688.459C1133.07 688.459 1131.84 689.688 1131.84 691.204C1131.84 692.72 1133.07 693.949 1134.59 693.949Z" fill="#16171A"/>
<path opacity="0.025" d="M1098.91 707.675C1100.43 707.675 1101.66 706.446 1101.66 704.93C1101.66 703.414 1100.43 702.185 1098.91 702.185C1097.4 702.185 1096.17 703.414 1096.17 704.93C1096.17 706.446 1097.4 707.675 1098.91 707.675Z" fill="#16171A"/>
<path opacity="0.025" d="M1061.4 719.57C1062.92 719.57 1064.15 718.341 1064.15 716.825C1064.15 715.309 1062.92 714.08 1061.4 714.08C1059.89 714.08 1058.66 715.309 1058.66 716.825C1058.66 718.341 1059.89 719.57 1061.4 719.57Z" fill="#16171A"/>
<path opacity="0.025" d="M947.054 736.04C948.57 736.04 949.798 734.811 949.798 733.295C949.798 731.779 948.57 730.55 947.054 730.55C945.538 730.55 944.31 731.779 944.31 733.295C944.31 734.811 945.538 736.04 947.054 736.04Z" fill="#16171A"/>
<path opacity="0.025" d="M832.703 724.145C834.219 724.145 835.448 722.916 835.448 721.4C835.448 719.884 834.219 718.655 832.703 718.655C831.188 718.655 829.959 719.884 829.959 721.4C829.959 722.916 831.188 724.145 832.703 724.145Z" fill="#16171A"/>
<path opacity="0.025" d="M758.604 701.27C760.12 701.27 761.348 700.041 761.348 698.525C761.348 697.009 760.12 695.78 758.604 695.78C757.088 695.78 755.859 697.009 755.859 698.525C755.859 700.041 757.088 701.27 758.604 701.27Z" fill="#16171A"/>
<path opacity="0.025" d="M627.787 620.75C629.303 620.75 630.531 619.521 630.531 618.005C630.531 616.489 629.303 615.26 627.787 615.26C626.271 615.26 625.042 616.489 625.042 618.005C625.042 619.521 626.271 620.75 627.787 620.75Z" fill="#16171A"/>
<path opacity="0.025" d="M573.813 565.85C575.329 565.85 576.558 564.621 576.558 563.105C576.558 561.589 575.329 560.36 573.813 560.36C572.298 560.36 571.069 561.589 571.069 563.105C571.069 564.621 572.298 565.85 573.813 565.85Z" fill="#16171A"/>
<path opacity="0.025" d="M1418.18 451.475C1419.69 451.475 1420.92 450.246 1420.92 448.73C1420.92 447.214 1419.69 445.985 1418.18 445.985C1416.66 445.985 1415.43 447.214 1415.43 448.73C1415.43 450.246 1416.66 451.475 1418.18 451.475Z" fill="#16171A"/>
<path opacity="0.025" d="M1341.33 584.15C1342.35 584.15 1343.16 583.331 1343.16 582.32C1343.16 581.31 1342.35 580.49 1341.33 580.49C1340.32 580.49 1339.51 581.31 1339.51 582.32C1339.51 583.331 1340.32 584.15 1341.33 584.15Z" fill="#16171A"/>
<path opacity="0.025" d="M1316.64 614.344C1318.15 614.344 1319.38 613.116 1319.38 611.599C1319.38 610.083 1318.15 608.854 1316.64 608.854C1315.12 608.854 1313.89 610.083 1313.89 611.599C1313.89 613.116 1315.12 614.344 1316.64 614.344Z" fill="#16171A"/>
<path opacity="0.025" d="M1162.03 726.889C1163.04 726.889 1163.86 726.07 1163.86 725.059C1163.86 724.049 1163.04 723.229 1162.03 723.229C1161.02 723.229 1160.2 724.049 1160.2 725.059C1160.2 726.07 1161.02 726.889 1162.03 726.889Z" fill="#16171A"/>
<path opacity="0.025" d="M1126.36 743.36C1127.87 743.36 1129.1 742.131 1129.1 740.615C1129.1 739.099 1127.87 737.87 1126.36 737.87C1124.84 737.87 1123.61 739.099 1123.61 740.615C1123.61 742.131 1124.84 743.36 1126.36 743.36Z" fill="#16171A"/>
<path opacity="0.025" d="M1089.76 756.17C1091.28 756.17 1092.51 754.941 1092.51 753.425C1092.51 751.909 1091.28 750.68 1089.76 750.68C1088.25 750.68 1087.02 751.909 1087.02 753.425C1087.02 754.941 1088.25 756.17 1089.76 756.17Z" fill="#16171A"/>
<path opacity="0.025" d="M937.906 779.045C939.422 779.045 940.65 777.816 940.65 776.3C940.65 774.784 939.422 773.555 937.906 773.555C936.39 773.555 935.162 774.784 935.162 776.3C935.162 777.816 936.39 779.045 937.906 779.045Z" fill="#16171A"/>
<path opacity="0.025" d="M899.484 777.215C900.494 777.215 901.314 776.395 901.314 775.385C901.314 774.374 900.494 773.555 899.484 773.555C898.473 773.555 897.654 774.374 897.654 775.385C897.654 776.395 898.473 777.215 899.484 777.215Z" fill="#16171A"/>
<path opacity="0.025" d="M822.64 765.32C823.651 765.32 824.47 764.501 824.47 763.49C824.47 762.479 823.651 761.66 822.64 761.66C821.63 761.66 820.811 762.479 820.811 763.49C820.811 764.501 821.63 765.32 822.64 765.32Z" fill="#16171A"/>
<path opacity="0.025" d="M785.133 756.17C786.649 756.17 787.877 754.941 787.877 753.425C787.877 751.909 786.649 750.68 785.133 750.68C783.617 750.68 782.389 751.909 782.389 753.425C782.389 754.941 783.617 756.17 785.133 756.17Z" fill="#16171A"/>
<path opacity="0.025" d="M748.541 743.36C750.057 743.36 751.286 742.131 751.286 740.615C751.286 739.099 750.057 737.87 748.541 737.87C747.026 737.87 745.797 739.099 745.797 740.615C745.797 742.131 747.026 743.36 748.541 743.36Z" fill="#16171A"/>
<path opacity="0.025" d="M679.016 710.42C680.532 710.42 681.76 709.191 681.76 707.675C681.76 706.159 680.532 704.93 679.016 704.93C677.5 704.93 676.271 706.159 676.271 707.675C676.271 709.191 677.5 710.42 679.016 710.42Z" fill="#16171A"/>
<path opacity="0.025" d="M646.998 689.375C648.514 689.375 649.742 688.146 649.742 686.63C649.742 685.114 648.514 683.885 646.998 683.885C645.482 683.885 644.253 685.114 644.253 686.63C644.253 688.146 645.482 689.375 646.998 689.375Z" fill="#16171A"/>
<path opacity="0.025" d="M586.62 644.54C588.156 644.318 589.558 643.547 590.568 642.369C591.577 641.191 592.125 639.686 592.109 638.135C592.109 636.679 591.531 635.282 590.502 634.253C589.472 633.223 588.076 632.645 586.62 632.645C585.069 632.629 583.565 633.177 582.387 634.186C581.21 635.196 580.438 636.599 580.217 638.135C580.217 638.976 580.382 639.809 580.704 640.586C581.026 641.363 581.498 642.069 582.092 642.664C582.687 643.259 583.393 643.73 584.17 644.052C584.947 644.374 585.779 644.54 586.62 644.54Z" fill="#16171A"/>
<path opacity="0.025" d="M559.177 616.175C561.703 616.175 563.751 614.127 563.751 611.6C563.751 609.073 561.703 607.025 559.177 607.025C556.65 607.025 554.603 609.073 554.603 611.6C554.603 614.127 556.65 616.175 559.177 616.175Z" fill="#16171A"/>
<path opacity="0.025" d="M510.692 553.955C512.207 553.955 513.436 552.726 513.436 551.21C513.436 549.694 512.207 548.465 510.692 548.465C509.176 548.465 507.947 549.694 507.947 551.21C507.947 552.726 509.176 553.955 510.692 553.955Z" fill="#16171A"/>
<path opacity="0.025" d="M490.566 521.015C492.081 521.015 493.31 519.786 493.31 518.27C493.31 516.754 492.081 515.525 490.566 515.525C489.05 515.525 487.821 516.754 487.821 518.27C487.821 519.786 489.05 521.015 490.566 521.015Z" fill="#16171A"/>
<path opacity="0.025" d="M456.718 454.22C459.75 454.22 462.207 451.762 462.207 448.73C462.207 445.698 459.75 443.24 456.718 443.24C453.687 443.24 451.229 445.698 451.229 448.73C451.229 451.762 453.687 454.22 456.718 454.22Z" fill="#16171A"/>
<path opacity="0.025" d="M443.91 418.535C447.447 418.535 450.314 415.667 450.314 412.13C450.314 408.592 447.447 405.725 443.91 405.725C440.374 405.725 437.507 408.592 437.507 412.13C437.507 415.667 440.374 418.535 443.91 418.535Z" fill="#16171A"/>
<path opacity="0.025" d="M1392.56 588.725C1394.08 588.725 1395.31 587.496 1395.31 585.98C1395.31 584.464 1394.08 583.235 1392.56 583.235C1391.05 583.235 1389.82 584.464 1389.82 585.98C1389.82 587.496 1391.05 588.725 1392.56 588.725Z" fill="#16171A"/>
<path opacity="0.025" d="M1286.45 700.355C1287.96 700.355 1289.19 699.126 1289.19 697.61C1289.19 696.094 1287.96 694.865 1286.45 694.865C1284.93 694.865 1283.7 696.094 1283.7 697.61C1283.7 699.126 1284.93 700.355 1286.45 700.355Z" fill="#16171A"/>
<path opacity="0.025" d="M1005.6 816.56V815.645V814.73L1004.69 815.645L1005.6 816.56Z" fill="#16171A"/>
<path opacity="0.025" d="M889.421 820.22C890.937 820.22 892.166 818.991 892.166 817.475C892.166 815.959 890.937 814.73 889.421 814.73C887.905 814.73 886.677 815.959 886.677 817.475C886.677 818.991 887.905 820.22 889.421 820.22Z" fill="#16171A"/>
<path opacity="0.025" d="M775.985 798.26C777.501 798.26 778.73 797.031 778.73 795.515C778.73 793.999 777.501 792.77 775.985 792.77C774.469 792.77 773.241 793.999 773.241 795.515C773.241 797.031 774.469 798.26 775.985 798.26Z" fill="#16171A"/>
<path opacity="0.025" d="M739.393 786.365C740.909 786.365 742.138 785.136 742.138 783.62C742.138 782.104 740.909 780.875 739.393 780.875C737.878 780.875 736.649 782.104 736.649 783.62C736.649 785.136 737.878 786.365 739.393 786.365Z" fill="#16171A"/>
<path opacity="0.025" d="M573.813 687.545C574.787 688.107 575.891 688.403 577.015 688.403C578.139 688.403 579.243 688.107 580.217 687.545C580.217 685.846 579.542 684.217 578.341 683.016C577.14 681.814 575.512 681.14 573.813 681.14C572.115 681.14 570.486 681.814 569.285 683.016C568.084 684.217 567.41 685.846 567.41 687.545C568.383 688.107 569.487 688.403 570.611 688.403C571.736 688.403 572.84 688.107 573.813 687.545Z" fill="#16171A"/>
<path opacity="0.025" d="M543.625 667.415C545.808 667.415 547.903 666.547 549.447 665.003C550.991 663.459 551.858 661.364 551.858 659.18C551.858 656.996 550.991 654.901 549.447 653.357C547.903 651.812 545.808 650.945 543.625 650.945C541.441 650.945 539.347 651.812 537.803 653.357C536.259 654.901 535.392 656.996 535.392 659.18C535.392 661.364 536.259 663.459 537.803 665.003C539.347 666.547 541.441 667.415 543.625 667.415Z" fill="#16171A"/>
<path opacity="0.025" d="M518.925 639.964C521.189 639.737 523.288 638.673 524.81 636.981C526.332 635.289 527.17 633.091 527.158 630.814C527.158 628.63 526.291 626.536 524.747 624.991C523.203 623.447 521.109 622.579 518.925 622.579C517.77 622.45 516.6 622.567 515.493 622.923C514.386 623.278 513.367 623.864 512.502 624.642C511.638 625.42 510.948 626.373 510.479 627.436C510.009 628.5 509.77 629.651 509.777 630.814C509.777 633.241 510.741 635.568 512.456 637.284C514.172 639 516.499 639.964 518.925 639.964Z" fill="#16171A"/>
<path opacity="0.025" d="M494.225 608.855C496.259 608.868 498.226 608.127 499.746 606.775C501.267 605.423 502.233 603.557 502.459 601.535C501.867 599.851 500.744 598.405 499.259 597.415C497.774 596.425 496.007 595.944 494.225 596.045C492.042 596.045 489.948 596.913 488.404 598.457C486.86 600.001 485.992 602.096 485.992 604.28C486.732 605.793 487.918 607.043 489.39 607.861C490.862 608.679 492.55 609.026 494.225 608.855Z" fill="#16171A"/>
<path opacity="0.025" d="M471.355 575C472.112 575.175 472.9 575.155 473.647 574.942C474.393 574.728 475.073 574.327 475.622 573.778C476.171 573.229 476.572 572.549 476.785 571.802C476.999 571.056 477.019 570.267 476.844 569.51C476.844 568.054 476.266 566.658 475.236 565.628C474.207 564.598 472.811 564.02 471.355 564.02C469.899 564.02 468.503 564.598 467.474 565.628C466.444 566.658 465.866 568.054 465.866 569.51C465.866 570.966 466.444 572.362 467.474 573.392C468.503 574.422 469.899 575 471.355 575Z" fill="#16171A"/>
<path opacity="0.025" d="M418.297 471.605C420.823 471.605 422.871 469.557 422.871 467.03C422.871 464.503 420.823 462.455 418.297 462.455C415.771 462.455 413.723 464.503 413.723 467.03C413.723 469.557 415.771 471.605 418.297 471.605Z" fill="#16171A"/>
<path opacity="0.025" d="M404.574 437.75C406.353 437.526 407.987 436.657 409.167 435.308C410.348 433.958 410.992 432.223 410.978 430.43C410.784 428.798 410.047 427.28 408.886 426.118C407.724 424.956 406.205 424.219 404.574 424.025C402.943 424.219 401.425 424.956 400.263 426.118C399.101 427.28 398.364 428.798 398.171 430.43C398.157 432.223 398.801 433.958 399.981 435.308C401.162 436.657 402.796 437.526 404.574 437.75Z" fill="#16171A"/>
<path opacity="0.025" d="M394.511 402.979C395.748 403.126 397.002 402.991 398.179 402.583C399.356 402.175 400.425 401.506 401.305 400.625C402.186 399.744 402.856 398.675 403.263 397.498C403.671 396.321 403.806 395.066 403.659 393.829C403.787 392.553 403.646 391.264 403.244 390.046C402.842 388.828 402.189 387.708 401.326 386.759C400.463 385.81 399.411 385.053 398.237 384.537C397.063 384.021 395.794 383.758 394.511 383.764C393.19 383.764 391.881 384.025 390.66 384.53C389.439 385.036 388.33 385.778 387.396 386.712C386.461 387.647 385.72 388.756 385.214 389.978C384.709 391.199 384.448 392.508 384.448 393.829C384.442 395.112 384.705 396.382 385.221 397.556C385.737 398.73 386.494 399.783 387.443 400.646C388.391 401.508 389.511 402.162 390.729 402.564C391.947 402.966 393.235 403.108 394.511 402.979Z" fill="#16171A"/>
<path opacity="0.025" d="M1520.64 413.045H1525.21C1524.52 412.643 1523.73 412.432 1522.92 412.432C1522.12 412.432 1521.33 412.643 1520.64 413.045Z" fill="#16171A"/>
<path opacity="0.025" d="M1509.66 454.22C1512.19 454.22 1514.23 452.172 1514.23 449.645C1514.23 447.118 1512.19 445.07 1509.66 445.07C1507.13 445.07 1505.08 447.118 1505.08 449.645C1505.08 452.172 1507.13 454.22 1509.66 454.22Z" fill="#16171A"/>
<path opacity="0.025" d="M1463 559.445C1465.02 559.445 1466.66 557.806 1466.66 555.785C1466.66 553.764 1465.02 552.125 1463 552.125C1460.98 552.125 1459.34 553.764 1459.34 555.785C1459.34 557.806 1460.98 559.445 1463 559.445Z" fill="#16171A"/>
<path opacity="0.025" d="M1216.92 794.6V793.685L1216.01 794.6H1216.92Z" fill="#16171A"/>
<path opacity="0.025" d="M918.695 863.225V862.31H917.78L918.695 863.225Z" fill="#16171A"/>
<path opacity="0.025" d="M880.273 860.48V859.565H879.358L880.273 860.48Z" fill="#16171A"/>
<path opacity="0.025" d="M841.851 855.905V854.99V854.075L840.937 854.99L841.851 855.905Z" fill="#16171A"/>
<path opacity="0.025" d="M765.922 839.435C766.933 839.435 767.752 838.616 767.752 837.605C767.752 836.594 766.933 835.775 765.922 835.775C764.912 835.775 764.093 836.594 764.093 837.605C764.093 838.616 764.912 839.435 765.922 839.435Z" fill="#16171A"/>
<path opacity="0.025" d="M593.024 757.085C594.54 757.085 595.769 755.856 595.769 754.34C595.769 752.824 594.54 751.595 593.024 751.595C591.508 751.595 590.28 752.824 590.28 754.34C590.28 755.856 591.508 757.085 593.024 757.085Z" fill="#16171A"/>
<path opacity="0.025" d="M561.921 737.87C562.845 737.879 563.76 737.688 564.603 737.311C565.446 736.933 566.198 736.378 566.806 735.683C567.414 734.987 567.865 734.168 568.127 733.282C568.389 732.396 568.457 731.464 568.325 730.55C568.325 729.708 568.159 728.876 567.837 728.098C567.515 727.321 567.044 726.615 566.449 726.021C565.854 725.426 565.149 724.954 564.372 724.632C563.595 724.31 562.762 724.145 561.921 724.145C560.223 724.145 558.594 724.819 557.393 726.021C556.192 727.222 555.517 728.851 555.517 730.55C555.385 731.464 555.453 732.396 555.715 733.282C555.977 734.168 556.428 734.987 557.036 735.683C557.644 736.378 558.396 736.933 559.239 737.311C560.082 737.688 560.997 737.879 561.921 737.87Z" fill="#16171A"/>
<path opacity="0.025" d="M532.647 713.165C536.689 713.165 539.965 709.888 539.965 705.845C539.965 701.802 536.689 698.525 532.647 698.525C528.605 698.525 525.329 701.802 525.329 705.845C525.329 709.888 528.605 713.165 532.647 713.165Z" fill="#16171A"/>
<path opacity="0.025" d="M504.288 687.545C506.322 687.557 508.288 686.816 509.809 685.465C511.329 684.113 512.295 682.247 512.521 680.225C512.521 678.041 511.654 675.946 510.11 674.402C508.566 672.857 506.471 671.99 504.288 671.99C502.266 672.216 500.4 673.182 499.049 674.703C497.698 676.223 496.957 678.19 496.969 680.225C497.168 682.098 498.003 683.847 499.335 685.179C500.667 686.511 502.415 687.346 504.288 687.545Z" fill="#16171A"/>
<path opacity="0.025" d="M478.674 658.265C480.857 658.265 482.951 657.397 484.495 655.853C486.04 654.308 486.907 652.214 486.907 650.03C486.681 648.008 485.715 646.141 484.195 644.79C482.674 643.438 480.708 642.697 478.674 642.71C476.64 642.697 474.673 643.438 473.153 644.79C471.633 646.141 470.666 648.008 470.44 650.03C470.44 652.214 471.308 654.308 472.852 655.853C474.396 657.397 476.49 658.265 478.674 658.265Z" fill="#16171A"/>
<path opacity="0.025" d="M452.144 628.985C453.307 628.992 454.458 628.753 455.521 628.283C456.585 627.813 457.537 627.123 458.315 626.259C459.093 625.394 459.679 624.375 460.034 623.268C460.39 622.161 460.507 620.991 460.377 619.835C460.377 617.651 459.51 615.556 457.966 614.012C456.422 612.467 454.328 611.6 452.144 611.6C450.989 611.471 449.819 611.588 448.712 611.943C447.605 612.299 446.586 612.885 445.721 613.663C444.857 614.441 444.168 615.393 443.698 616.457C443.228 617.521 442.989 618.672 442.996 619.835C442.849 621.072 442.984 622.326 443.392 623.503C443.8 624.68 444.469 625.75 445.35 626.63C446.231 627.511 447.3 628.181 448.477 628.589C449.653 628.997 450.907 629.132 452.144 628.985Z" fill="#16171A"/>
<path opacity="0.025" d="M432.933 598.79C438.491 598.79 442.996 594.283 442.996 588.725C442.996 583.166 438.491 578.66 432.933 578.66C427.376 578.66 422.871 583.166 422.871 588.725C422.871 594.283 427.376 598.79 432.933 598.79Z" fill="#16171A"/>
<path opacity="0.025" d="M412.807 563.105C416.849 563.105 420.126 559.828 420.126 555.785C420.126 551.742 416.849 548.465 412.807 548.465C408.765 548.465 405.489 551.742 405.489 555.785C405.489 559.828 408.765 563.105 412.807 563.105Z" fill="#16171A"/>
<path opacity="0.025" d="M354.26 420.365C355.966 419.983 357.506 419.068 358.658 417.752C359.809 416.436 360.511 414.787 360.664 413.045C360.664 410.861 359.796 408.766 358.252 407.222C356.708 405.678 354.614 404.81 352.43 404.81C350.747 405.402 349.301 406.526 348.311 408.011C347.321 409.496 346.84 411.263 346.941 413.045C347.14 414.918 347.975 416.667 349.307 417.999C350.639 419.331 352.387 420.166 354.26 420.365Z" fill="#16171A"/>
<path opacity="0.025" d="M1554.48 456.05C1556.18 456.05 1557.81 455.375 1559.01 454.174C1560.21 452.972 1560.89 451.343 1560.89 449.645C1560.67 448.109 1559.9 446.706 1558.72 445.696C1557.54 444.687 1556.04 444.139 1554.48 444.155C1553.26 444.512 1552.18 445.224 1551.36 446.202C1550.55 447.18 1550.04 448.379 1549.91 449.645C1549.85 451.069 1550.27 452.473 1551.1 453.633C1551.93 454.793 1553.12 455.643 1554.48 456.05Z" fill="#16171A"/>
<path opacity="0.025" d="M1542.59 491.735C1545.12 491.735 1547.17 489.687 1547.17 487.16C1547.17 484.633 1545.12 482.585 1542.59 482.585C1540.07 482.585 1538.02 484.633 1538.02 487.16C1538.02 489.687 1540.07 491.735 1542.59 491.735Z" fill="#16171A"/>
<path opacity="0.025" d="M1527.04 527.42C1527.87 527.902 1528.82 528.155 1529.78 528.155C1530.75 528.155 1531.69 527.902 1532.53 527.42C1532.53 525.964 1531.95 524.567 1530.92 523.538C1529.89 522.508 1528.5 521.93 1527.04 521.93C1526.56 522.764 1526.3 523.711 1526.3 524.675C1526.3 525.638 1526.56 526.585 1527.04 527.42Z" fill="#16171A"/>
<path opacity="0.025" d="M1510.57 562.19C1513.1 562.19 1515.15 560.142 1515.15 557.615C1515.15 555.088 1513.1 553.04 1510.57 553.04C1508.05 553.04 1506 555.088 1506 557.615C1506 560.142 1508.05 562.19 1510.57 562.19Z" fill="#16171A"/>
<path opacity="0.025" d="M1492.28 596.045C1494.8 596.045 1496.85 593.997 1496.85 591.47C1496.85 588.943 1494.8 586.895 1492.28 586.895C1489.75 586.895 1487.7 588.943 1487.7 591.47C1487.7 593.997 1489.75 596.045 1492.28 596.045Z" fill="#16171A"/>
<path opacity="0.025" d="M1471.24 628.07C1473.76 628.07 1475.81 626.022 1475.81 623.495C1475.81 620.968 1473.76 618.92 1471.24 618.92C1468.71 618.92 1466.66 620.968 1466.66 623.495C1466.66 626.022 1468.71 628.07 1471.24 628.07Z" fill="#16171A"/>
<path opacity="0.025" d="M1448.37 659.18C1450.89 659.18 1452.94 657.131 1452.94 654.605C1452.94 652.078 1450.89 650.03 1448.37 650.03C1445.84 650.03 1443.79 652.078 1443.79 654.605C1443.79 657.131 1445.84 659.18 1448.37 659.18Z" fill="#16171A"/>
<path opacity="0.025" d="M1423.67 688.46C1425.69 688.46 1427.33 686.821 1427.33 684.8C1427.33 682.778 1425.69 681.14 1423.67 681.14C1421.65 681.14 1420.01 682.778 1420.01 684.8C1420.01 686.821 1421.65 688.46 1423.67 688.46Z" fill="#16171A"/>
<path opacity="0.025" d="M1369.69 742.445C1371.21 742.445 1372.44 741.216 1372.44 739.7C1372.44 738.184 1371.21 736.955 1369.69 736.955C1368.18 736.955 1366.95 738.184 1366.95 739.7C1366.95 741.216 1368.18 742.445 1369.69 742.445Z" fill="#16171A"/>
<path opacity="0.025" d="M1277.3 810.155V809.24H1276.38L1277.3 810.155Z" fill="#16171A"/>
<path opacity="0.025" d="M614.98 822.965C617 822.965 618.639 821.326 618.639 819.305C618.639 817.284 617 815.645 614.98 815.645C612.959 815.645 611.32 817.284 611.32 819.305C611.32 821.326 612.959 822.965 614.98 822.965Z" fill="#16171A"/>
<path opacity="0.025" d="M550.028 780.875C552.554 780.875 554.602 778.826 554.602 776.3C554.602 773.773 552.554 771.725 550.028 771.725C547.502 771.725 545.454 773.773 545.454 776.3C545.454 778.826 547.502 780.875 550.028 780.875Z" fill="#16171A"/>
<path opacity="0.025" d="M519.84 759.83C523.882 759.83 527.158 756.553 527.158 752.51C527.158 748.467 523.882 745.19 519.84 745.19C515.798 745.19 512.521 748.467 512.521 752.51C512.521 756.553 515.798 759.83 519.84 759.83Z" fill="#16171A"/>
<path opacity="0.025" d="M491.481 734.21C492.516 734.34 493.567 734.248 494.563 733.939C495.56 733.63 496.478 733.111 497.258 732.418C498.038 731.725 498.66 730.873 499.084 729.92C499.508 728.966 499.722 727.933 499.714 726.89C499.714 724.706 498.847 722.611 497.303 721.067C495.759 719.522 493.665 718.655 491.481 718.655C489.297 718.655 487.203 719.522 485.659 721.067C484.115 722.611 483.248 724.706 483.248 726.89C483.24 727.933 483.455 728.966 483.878 729.92C484.302 730.873 484.924 731.725 485.704 732.418C486.484 733.111 487.402 733.63 488.399 733.939C489.395 734.248 490.446 734.34 491.481 734.21Z" fill="#16171A"/>
<path opacity="0.025" d="M464.037 707.674C466.22 707.674 468.314 706.807 469.858 705.262C471.402 703.718 472.27 701.623 472.27 699.439C472.936 698.117 473.234 696.639 473.132 695.162C473.029 693.685 472.53 692.262 471.687 691.045C470.845 689.827 469.689 688.859 468.343 688.243C466.996 687.627 465.509 687.386 464.037 687.544C462.874 687.537 461.723 687.776 460.659 688.246C459.596 688.716 458.644 689.406 457.866 690.27C457.088 691.135 456.502 692.154 456.147 693.261C455.791 694.369 455.674 695.539 455.803 696.694C455.348 697.975 455.217 699.348 455.421 700.691C455.626 702.035 456.159 703.307 456.974 704.394C457.789 705.481 458.861 706.35 460.093 706.922C461.326 707.494 462.68 707.753 464.037 707.674Z" fill="#16171A"/>
<path opacity="0.025" d="M438.422 677.479C439.457 677.61 440.508 677.517 441.504 677.208C442.501 676.899 443.42 676.381 444.199 675.688C444.979 674.995 445.601 674.143 446.025 673.189C446.449 672.236 446.664 671.203 446.655 670.159C446.655 667.975 445.788 665.881 444.244 664.336C442.7 662.792 440.606 661.924 438.422 661.924C436.401 662.15 434.534 663.117 433.183 664.637C431.832 666.158 431.091 668.125 431.104 670.159C431.104 672.101 431.875 673.963 433.247 675.335C434.62 676.708 436.481 677.479 438.422 677.479Z" fill="#16171A"/>
<path opacity="0.025" d="M415.552 647.285C417.573 647.059 419.44 646.093 420.791 644.572C422.142 643.052 422.883 641.085 422.871 639.05C422.672 637.177 421.837 635.428 420.505 634.096C419.173 632.764 417.425 631.929 415.552 631.73C413.518 631.718 411.551 632.458 410.031 633.81C408.511 635.162 407.545 637.028 407.319 639.05C407.319 641.234 408.186 643.329 409.73 644.873C411.274 646.418 413.368 647.285 415.552 647.285Z" fill="#16171A"/>
<path opacity="0.025" d="M393.597 616.175C396.023 616.175 398.35 615.211 400.065 613.495C401.781 611.779 402.745 609.451 402.745 607.025C403.019 605.68 402.988 604.29 402.653 602.959C402.318 601.628 401.688 600.39 400.81 599.335C399.931 598.281 398.827 597.437 397.578 596.868C396.329 596.298 394.969 596.017 393.597 596.045C392.441 595.915 391.271 596.032 390.164 596.388C389.057 596.744 388.038 597.33 387.174 598.108C386.31 598.886 385.62 599.838 385.15 600.902C384.68 601.965 384.441 603.117 384.449 604.28C383.703 605.677 383.375 607.26 383.506 608.838C383.637 610.417 384.22 611.924 385.185 613.179C386.151 614.435 387.458 615.385 388.95 615.916C390.442 616.448 392.055 616.537 393.597 616.175Z" fill="#16171A"/>
<path opacity="0.025" d="M373.471 584.15C379.029 584.15 383.534 579.644 383.534 574.085C383.534 568.526 379.029 564.02 373.471 564.02C367.914 564.02 363.408 568.526 363.408 574.085C363.408 579.644 367.914 584.15 373.471 584.15Z" fill="#16171A"/>
<path opacity="0.025" d="M360.664 548.465C361.386 547.213 361.767 545.793 361.767 544.348C361.767 542.902 361.386 541.482 360.664 540.23C361.568 538.876 362.051 537.284 362.051 535.655C362.051 534.026 361.568 532.434 360.664 531.08C359.427 530.933 358.173 531.068 356.996 531.476C355.819 531.884 354.75 532.554 353.869 533.434C352.989 534.315 352.319 535.385 351.912 536.562C351.504 537.739 351.369 538.993 351.516 540.23C351.508 541.393 351.748 542.544 352.217 543.608C352.687 544.672 353.377 545.624 354.241 546.402C355.105 547.18 356.124 547.766 357.231 548.122C358.338 548.477 359.508 548.594 360.664 548.465Z" fill="#16171A"/>
<path opacity="0.025" d="M340.538 511.865C344.58 511.865 347.856 508.587 347.856 504.545C347.856 500.502 344.58 497.225 340.538 497.225C336.496 497.225 333.219 500.502 333.219 504.545C333.219 508.587 336.496 511.865 340.538 511.865Z" fill="#16171A"/>
<path opacity="0.025" d="M326.816 475.265C328.514 475.265 330.143 474.59 331.344 473.389C332.545 472.188 333.219 470.558 333.219 468.86C333.351 467.945 333.284 467.013 333.022 466.127C332.76 465.241 332.309 464.422 331.701 463.727C331.092 463.031 330.341 462.476 329.498 462.098C328.654 461.721 327.739 461.53 326.816 461.54C325.819 461.383 324.799 461.465 323.84 461.777C322.881 462.09 322.009 462.625 321.296 463.338C320.582 464.052 320.047 464.924 319.735 465.884C319.422 466.843 319.341 467.863 319.497 468.86C319.488 469.784 319.678 470.699 320.056 471.542C320.433 472.386 320.988 473.137 321.684 473.746C322.379 474.354 323.198 474.805 324.083 475.067C324.969 475.329 325.901 475.397 326.816 475.265Z" fill="#16171A"/>
<path opacity="0.025" d="M314.923 440.495C316.16 440.642 317.414 440.506 318.591 440.098C319.768 439.691 320.837 439.021 321.718 438.14C322.598 437.259 323.268 436.19 323.675 435.013C324.083 433.836 324.219 432.582 324.071 431.345C324.079 430.182 323.84 429.03 323.37 427.967C322.9 426.903 322.21 425.951 321.346 425.173C320.482 424.395 319.463 423.809 318.356 423.453C317.249 423.097 316.079 422.98 314.923 423.11C312.74 423.11 310.646 423.977 309.102 425.522C307.558 427.066 306.69 429.161 306.69 431.345C306.561 432.5 306.678 433.67 307.033 434.778C307.389 435.885 307.975 436.904 308.753 437.769C309.531 438.633 310.483 439.323 311.546 439.793C312.61 440.263 313.761 440.502 314.923 440.495Z" fill="#16171A"/>
<path opacity="0.025" d="M305.775 402.98C308.132 402.774 310.341 401.744 312.014 400.071C313.687 398.397 314.717 396.188 314.923 393.83C314.696 391.566 313.632 389.467 311.941 387.944C310.249 386.421 308.051 385.584 305.775 385.595C303.592 385.595 301.498 386.463 299.954 388.007C298.41 389.552 297.542 391.646 297.542 393.83C297.531 396.107 298.368 398.305 299.89 399.997C301.413 401.689 303.511 402.753 305.775 402.98Z" fill="#16171A"/>
<path opacity="0.025" d="M1609.37 419.45C1611.07 419.45 1612.7 418.775 1613.9 417.574C1615.1 416.373 1615.78 414.744 1615.78 413.045C1615.78 411.346 1615.1 409.717 1613.9 408.516C1612.7 407.315 1611.07 406.64 1609.37 406.64C1607.58 406.626 1605.85 407.27 1604.5 408.451C1603.15 409.631 1602.28 411.266 1602.05 413.045C1602.28 414.824 1603.15 416.458 1604.5 417.639C1605.85 418.82 1607.58 419.464 1609.37 419.45Z" fill="#16171A"/>
<path opacity="0.025" d="M1599.31 457.879C1601.25 457.879 1603.11 457.108 1604.49 455.735C1605.86 454.363 1606.63 452.501 1606.63 450.559C1606.79 449.562 1606.7 448.543 1606.39 447.583C1606.08 446.624 1605.54 445.752 1604.83 445.038C1604.12 444.325 1603.25 443.79 1602.29 443.477C1601.33 443.165 1600.31 443.083 1599.31 443.239C1597.37 443.239 1595.51 444.011 1594.14 445.383C1592.76 446.756 1591.99 448.618 1591.99 450.559C1592.19 452.433 1593.03 454.181 1594.36 455.513C1595.69 456.846 1597.44 457.681 1599.31 457.879Z" fill="#16171A"/>
<path opacity="0.025" d="M1587.42 495.394C1591.96 495.394 1595.65 491.707 1595.65 487.159C1595.65 482.611 1591.96 478.924 1587.42 478.924C1582.87 478.924 1579.18 482.611 1579.18 487.159C1579.18 491.707 1582.87 495.394 1587.42 495.394Z" fill="#16171A"/>
<path opacity="0.025" d="M1573.7 531.08C1577.74 531.08 1581.01 527.803 1581.01 523.76C1581.01 519.717 1577.74 516.44 1573.7 516.44C1569.65 516.44 1566.38 519.717 1566.38 523.76C1566.38 527.803 1569.65 531.08 1573.7 531.08Z" fill="#16171A"/>
<path opacity="0.025" d="M1558.14 564.935C1558.99 564.935 1559.82 564.769 1560.59 564.448C1561.37 564.126 1562.08 563.654 1562.67 563.059C1563.27 562.464 1563.74 561.758 1564.06 560.981C1564.38 560.204 1564.55 559.371 1564.55 558.53C1564.55 557.689 1564.38 556.856 1564.06 556.079C1563.74 555.302 1563.27 554.596 1562.67 554.001C1562.08 553.406 1561.37 552.935 1560.59 552.613C1559.82 552.291 1558.99 552.125 1558.14 552.125C1557.17 551.833 1556.13 551.778 1555.13 551.966C1554.13 552.154 1553.18 552.579 1552.38 553.206C1551.57 553.832 1550.93 554.643 1550.5 555.569C1550.07 556.495 1549.87 557.51 1549.91 558.53C1549.87 559.55 1550.07 560.565 1550.5 561.492C1550.93 562.418 1551.57 563.228 1552.38 563.855C1553.18 564.481 1554.13 564.906 1555.13 565.094C1556.13 565.282 1557.17 565.228 1558.14 564.935Z" fill="#16171A"/>
<path opacity="0.025" d="M1540.76 600.62C1544.8 600.62 1548.08 597.343 1548.08 593.3C1548.08 589.257 1544.8 585.98 1540.76 585.98C1536.72 585.98 1533.44 589.257 1533.44 593.3C1533.44 597.343 1536.72 600.62 1540.76 600.62Z" fill="#16171A"/>
<path opacity="0.025" d="M1520.64 634.475C1525.18 634.475 1528.87 630.788 1528.87 626.24C1528.87 621.692 1525.18 618.005 1520.64 618.005C1516.09 618.005 1512.4 621.692 1512.4 626.24C1512.4 630.788 1516.09 634.475 1520.64 634.475Z" fill="#16171A"/>
<path opacity="0.025" d="M1499.6 664.67C1501.13 664.448 1502.53 663.677 1503.54 662.499C1504.55 661.321 1505.1 659.816 1505.09 658.265C1505.1 656.713 1504.55 655.209 1503.54 654.031C1502.53 652.853 1501.13 652.081 1499.6 651.86C1497.9 651.86 1496.27 652.535 1495.07 653.736C1493.87 654.937 1493.19 656.566 1493.19 658.265C1493.19 659.964 1493.87 661.593 1495.07 662.794C1496.27 663.995 1497.9 664.67 1499.6 664.67Z" fill="#16171A"/>
<path opacity="0.025" d="M1475.81 695.78C1476.83 695.822 1477.85 695.621 1478.77 695.192C1479.7 694.763 1480.51 694.118 1481.13 693.313C1481.76 692.507 1482.19 691.563 1482.37 690.56C1482.56 689.556 1482.51 688.523 1482.22 687.545C1481.24 686.982 1480.14 686.687 1479.01 686.687C1477.89 686.687 1476.78 686.982 1475.81 687.545C1474.84 686.982 1473.73 686.687 1472.61 686.687C1471.49 686.687 1470.38 686.982 1469.41 687.545C1469.12 688.523 1469.06 689.556 1469.25 690.56C1469.44 691.563 1469.86 692.507 1470.49 693.313C1471.11 694.118 1471.92 694.763 1472.85 695.192C1473.78 695.621 1474.79 695.822 1475.81 695.78Z" fill="#16171A"/>
<path opacity="0.025" d="M1451.11 725.06C1452.03 725.192 1452.96 725.125 1453.84 724.862C1454.73 724.6 1455.55 724.149 1456.24 723.541C1456.94 722.933 1457.49 722.181 1457.87 721.337C1458.25 720.494 1458.44 719.579 1458.43 718.655C1458.43 716.956 1457.75 715.327 1456.55 714.126C1455.35 712.925 1453.72 712.25 1452.03 712.25C1450.33 712.25 1448.7 712.925 1447.5 714.126C1446.3 715.327 1445.62 716.956 1445.62 718.655C1445.61 720.206 1446.15 721.711 1447.16 722.889C1448.17 724.067 1449.58 724.838 1451.11 725.06Z" fill="#16171A"/>
<path opacity="0.025" d="M1396.22 775.385C1397.23 775.385 1398.05 774.565 1398.05 773.555C1398.05 772.544 1397.23 771.725 1396.22 771.725C1395.21 771.725 1394.39 772.544 1394.39 773.555C1394.39 774.565 1395.21 775.385 1396.22 775.385Z" fill="#16171A"/>
<path opacity="0.025" d="M1366.95 799.175L1367.86 798.26H1366.95V799.175Z" fill="#16171A"/>
<path opacity="0.025" d="M746.711 922.7L747.626 921.785H746.711V922.7Z" fill="#16171A"/>
<path opacity="0.025" d="M604.917 865.97C606.432 865.97 607.661 864.741 607.661 863.225C607.661 861.709 606.432 860.48 604.917 860.48C603.401 860.48 602.172 861.709 602.172 863.225C602.172 864.741 603.401 865.97 604.917 865.97Z" fill="#16171A"/>
<path opacity="0.025" d="M423.785 725.974C424.82 726.105 425.871 726.012 426.867 725.703C427.864 725.394 428.783 724.876 429.562 724.183C430.342 723.489 430.965 722.638 431.388 721.684C431.812 720.731 432.027 719.698 432.018 718.654C431.793 716.632 430.826 714.766 429.306 713.414C427.786 712.062 425.819 711.322 423.785 711.334C421.912 711.533 420.164 712.368 418.832 713.7C417.5 715.032 416.666 716.781 416.467 718.654C416.467 720.596 417.238 722.457 418.61 723.83C419.983 725.203 421.844 725.974 423.785 725.974Z" fill="#16171A"/>
<path opacity="0.025" d="M399.086 696.695C403.127 696.695 406.404 693.418 406.404 689.375C406.404 685.332 403.127 682.055 399.086 682.055C395.044 682.055 391.767 685.332 391.767 689.375C391.767 693.418 395.044 696.695 399.086 696.695Z" fill="#16171A"/>
<path opacity="0.025" d="M376.215 666.5C378.237 666.274 380.103 665.308 381.454 663.787C382.806 662.267 383.546 660.3 383.534 658.265C383.534 657.304 383.345 656.352 382.977 655.464C382.609 654.576 382.07 653.769 381.39 653.089C380.711 652.409 379.904 651.87 379.016 651.502C378.128 651.134 377.176 650.945 376.215 650.945C375.18 650.815 374.13 650.907 373.133 651.216C372.137 651.525 371.218 652.043 370.438 652.737C369.659 653.43 369.036 654.282 368.612 655.235C368.189 656.189 367.974 657.222 367.982 658.265C367.982 660.449 368.85 662.544 370.394 664.088C371.938 665.633 374.032 666.5 376.215 666.5Z" fill="#16171A"/>
<path opacity="0.025" d="M354.26 634.475C356.114 634.053 357.764 633.002 358.932 631.501C360.099 630 360.711 628.141 360.663 626.24C360.663 624.056 359.796 621.961 358.252 620.417C356.708 618.872 354.614 618.005 352.43 618.005C350.247 618.005 348.152 618.872 346.608 620.417C345.064 621.961 344.197 624.056 344.197 626.24C344.165 627.494 344.421 628.739 344.944 629.879C345.467 631.02 346.243 632.025 347.214 632.82C348.185 633.614 349.324 634.176 350.545 634.463C351.766 634.75 353.037 634.754 354.26 634.475Z" fill="#16171A"/>
<path opacity="0.025" d="M335.049 601.535C336.831 601.636 338.598 601.155 340.083 600.165C341.568 599.175 342.691 597.729 343.283 596.045C343.412 594.889 343.295 593.719 342.939 592.612C342.584 591.504 341.998 590.485 341.22 589.62C340.442 588.756 339.49 588.066 338.427 587.596C337.363 587.127 336.212 586.887 335.049 586.895C333.813 586.747 332.559 586.883 331.382 587.291C330.205 587.698 329.136 588.368 328.255 589.249C327.375 590.13 326.705 591.199 326.297 592.376C325.89 593.553 325.754 594.808 325.901 596.045C326.527 597.897 327.79 599.466 329.466 600.472C331.142 601.478 333.121 601.854 335.049 601.535Z" fill="#16171A"/>
<path opacity="0.025" d="M316.753 567.68C317.99 567.828 319.244 567.692 320.421 567.284C321.598 566.876 322.667 566.207 323.547 565.326C324.428 564.445 325.097 563.376 325.505 562.199C325.913 561.022 326.048 559.767 325.901 558.53C325.901 556.104 324.937 553.776 323.222 552.06C321.506 550.344 319.179 549.38 316.753 549.38C314.489 549.608 312.39 550.672 310.868 552.363C309.346 554.055 308.508 556.254 308.52 558.53C308.391 559.686 308.508 560.856 308.863 561.963C309.219 563.071 309.804 564.09 310.582 564.954C311.36 565.819 312.312 566.509 313.376 566.979C314.439 567.448 315.59 567.688 316.753 567.68Z" fill="#16171A"/>
<path opacity="0.025" d="M301.201 531.994C302.357 532.124 303.527 532.007 304.634 531.651C305.741 531.295 306.76 530.709 307.624 529.931C308.488 529.153 309.178 528.201 309.648 527.137C310.117 526.074 310.357 524.922 310.349 523.759C310.496 522.522 310.361 521.268 309.953 520.091C309.546 518.914 308.876 517.845 307.996 516.964C307.115 516.083 306.046 515.413 304.869 515.006C303.692 514.598 302.438 514.462 301.201 514.609C298.775 514.609 296.448 515.573 294.733 517.289C293.017 519.005 292.053 521.333 292.053 523.759C292.281 526.024 293.344 528.123 295.036 529.646C296.727 531.168 298.926 532.006 301.201 531.994Z" fill="#16171A"/>
<path opacity="0.025" d="M287.479 496.309C288.716 496.456 289.97 496.321 291.147 495.913C292.324 495.505 293.393 494.836 294.273 493.955C295.154 493.074 295.823 492.005 296.231 490.828C296.639 489.651 296.774 488.396 296.627 487.159C296.627 484.733 295.663 482.405 293.948 480.689C292.232 478.973 289.905 478.009 287.479 478.009C285.053 478.009 282.726 478.973 281.01 480.689C279.295 482.405 278.331 484.733 278.331 487.159C278.184 488.396 278.319 489.651 278.727 490.828C279.135 492.005 279.804 493.074 280.685 493.955C281.566 494.836 282.635 495.505 283.811 495.913C284.988 496.321 286.242 496.456 287.479 496.309Z" fill="#16171A"/>
<path opacity="0.025" d="M275.587 459.71C278.013 459.71 280.34 458.746 282.055 457.03C283.771 455.314 284.735 452.987 284.735 450.56C284.882 449.323 284.746 448.069 284.339 446.892C283.931 445.715 283.261 444.645 282.381 443.765C281.5 442.884 280.431 442.214 279.254 441.806C278.077 441.398 276.823 441.263 275.587 441.41C273.16 441.41 270.833 442.374 269.118 444.09C267.402 445.806 266.438 448.133 266.438 450.56C266.645 452.918 267.675 455.127 269.348 456.8C271.021 458.474 273.23 459.504 275.587 459.71Z" fill="#16171A"/>
<path opacity="0.025" d="M269.183 423.11C271.278 422.476 273.076 421.111 274.251 419.265C275.425 417.418 275.9 415.211 275.587 413.045C275.9 410.878 275.425 408.672 274.251 406.825C273.076 404.978 271.278 403.614 269.183 402.98C267.655 402.545 266.046 402.479 264.487 402.786C262.928 403.093 261.464 403.765 260.214 404.747C258.965 405.729 257.966 406.993 257.299 408.435C256.632 409.877 256.315 411.457 256.376 413.045C256.315 414.633 256.632 416.213 257.299 417.655C257.966 419.097 258.965 420.361 260.214 421.343C261.464 422.325 262.928 422.997 264.487 423.304C266.046 423.611 267.655 423.544 269.183 423.11Z" fill="#16171A"/>
<path opacity="0.025" d="M1653.28 421.28C1655.47 421.28 1657.56 420.413 1659.11 418.868C1660.65 417.324 1661.52 415.229 1661.52 413.045C1661.52 410.861 1660.65 408.767 1659.11 407.222C1657.56 405.678 1655.47 404.81 1653.28 404.81C1651.96 404.144 1650.48 403.846 1649.01 403.948C1647.53 404.051 1646.11 404.55 1644.89 405.393C1643.67 406.236 1642.71 407.392 1642.09 408.738C1641.47 410.085 1641.23 411.573 1641.39 413.045C1641.23 414.518 1641.47 416.006 1642.09 417.352C1642.71 418.699 1643.67 419.855 1644.89 420.698C1646.11 421.541 1647.53 422.04 1649.01 422.142C1650.48 422.245 1651.96 421.947 1653.28 421.28Z" fill="#16171A"/>
<path opacity="0.025" d="M1644.14 458.795C1648.68 458.795 1652.37 455.108 1652.37 450.56C1652.37 446.012 1648.68 442.325 1644.14 442.325C1639.59 442.325 1635.9 446.012 1635.9 450.56C1635.9 455.108 1639.59 458.795 1644.14 458.795Z" fill="#16171A"/>
<path opacity="0.025" d="M1633.16 497.224C1635.51 497.018 1637.72 495.988 1639.4 494.315C1641.07 492.641 1642.1 490.432 1642.31 488.074C1642.32 485.556 1641.38 483.126 1639.69 481.262C1638 479.399 1635.67 478.238 1633.16 478.009C1631.88 478.003 1630.61 478.266 1629.43 478.782C1628.26 479.298 1627.21 480.055 1626.34 481.004C1625.48 481.953 1624.83 483.073 1624.42 484.291C1624.02 485.509 1623.88 486.798 1624.01 488.074C1624.01 490.501 1624.97 492.828 1626.69 494.544C1628.4 496.26 1630.73 497.224 1633.16 497.224Z" fill="#16171A"/>
<path opacity="0.025" d="M1620.35 534.74C1625.91 534.74 1630.41 530.234 1630.41 524.675C1630.41 519.117 1625.91 514.61 1620.35 514.61C1614.79 514.61 1610.29 519.117 1610.29 524.675C1610.29 530.234 1614.79 534.74 1620.35 534.74Z" fill="#16171A"/>
<path opacity="0.025" d="M1604.8 570.425C1607.71 570.425 1610.5 569.268 1612.56 567.209C1614.62 565.149 1615.78 562.357 1615.78 559.445C1615.78 558.042 1615.5 556.654 1614.93 555.369C1614.37 554.084 1613.55 552.931 1612.51 551.983C1611.48 551.036 1610.26 550.315 1608.93 549.866C1607.6 549.418 1606.2 549.252 1604.8 549.38C1602.04 549.37 1599.38 550.4 1597.34 552.266C1595.31 554.131 1594.05 556.694 1593.82 559.445C1593.82 562.357 1594.98 565.149 1597.04 567.209C1599.1 569.268 1601.89 570.425 1604.8 570.425Z" fill="#16171A"/>
<path opacity="0.025" d="M1588.33 604.28C1590.61 604.291 1592.81 603.454 1594.5 601.931C1596.19 600.409 1597.25 598.31 1597.48 596.045C1597.48 593.618 1596.52 591.291 1594.8 589.575C1593.09 587.859 1590.76 586.895 1588.33 586.895C1585.81 586.885 1583.38 587.819 1581.52 589.513C1579.66 591.206 1578.5 593.537 1578.27 596.045C1578.7 598.386 1579.95 600.499 1581.79 602.006C1583.64 603.514 1585.95 604.32 1588.33 604.28Z" fill="#16171A"/>
<path opacity="0.025" d="M1570.04 639.05C1571.44 639.055 1572.83 638.768 1574.11 638.206C1575.4 637.644 1576.55 636.82 1577.5 635.786C1578.44 634.752 1579.16 633.532 1579.61 632.203C1580.06 630.874 1580.23 629.466 1580.1 628.07C1580.1 625.4 1579.04 622.84 1577.15 620.953C1575.26 619.065 1572.71 618.005 1570.04 618.005C1568.64 617.877 1567.23 618.043 1565.9 618.491C1564.58 618.94 1563.36 619.661 1562.32 620.608C1561.29 621.556 1560.46 622.709 1559.9 623.994C1559.34 625.279 1559.05 626.667 1559.06 628.07C1559.06 630.982 1560.22 633.774 1562.27 635.834C1564.33 637.893 1567.12 639.05 1570.04 639.05Z" fill="#16171A"/>
<path opacity="0.025" d="M1549.91 671.99C1555.47 671.99 1559.97 667.484 1559.97 661.925C1559.97 656.366 1555.47 651.86 1549.91 651.86C1544.35 651.86 1539.85 656.366 1539.85 661.925C1539.85 667.484 1544.35 671.99 1549.91 671.99Z" fill="#16171A"/>
<path opacity="0.025" d="M1527.04 701.27C1531.59 701.27 1535.27 697.583 1535.27 693.035C1535.27 688.487 1531.59 684.8 1527.04 684.8C1522.49 684.8 1518.81 688.487 1518.81 693.035C1518.81 697.583 1522.49 701.27 1527.04 701.27Z" fill="#16171A"/>
<path opacity="0.025" d="M1503.26 728.719C1504.01 728.895 1504.8 728.875 1505.55 728.661C1506.29 728.447 1506.97 728.047 1507.52 727.498C1508.07 726.948 1508.47 726.268 1508.69 725.522C1508.9 724.775 1508.92 723.986 1508.74 723.229C1508.74 723.229 1508.74 723.229 1503.26 723.229C1503.26 723.229 1500.51 728.719 1503.26 728.719Z" fill="#16171A"/>
<path opacity="0.025" d="M1452.03 783.62L1458.43 779.045C1458.43 779.045 1450.2 783.62 1452.03 783.62Z" fill="#16171A"/>
<path opacity="0.025" d="M593.939 908.975C595.455 908.975 596.684 907.746 596.684 906.23C596.684 904.714 595.455 903.485 593.939 903.485C592.424 903.485 591.195 904.714 591.195 906.23C591.195 907.746 592.424 908.975 593.939 908.975Z" fill="#16171A"/>
<path opacity="0.025" d="M528.073 871.46C530.599 871.46 532.647 869.412 532.647 866.885C532.647 864.358 530.599 862.31 528.073 862.31C525.547 862.31 523.499 864.358 523.499 866.885C523.499 869.412 525.547 871.46 528.073 871.46Z" fill="#16171A"/>
<path opacity="0.025" d="M359.749 714.08C362.78 714.08 365.237 711.622 365.237 708.59C365.237 705.558 362.78 703.1 359.749 703.1C356.717 703.1 354.26 705.558 354.26 708.59C354.26 711.622 356.717 714.08 359.749 714.08Z" fill="#16171A"/>
<path opacity="0.025" d="M336.879 687.545C337.72 687.545 338.552 687.379 339.329 687.057C340.106 686.735 340.812 686.264 341.407 685.669C342.001 685.074 342.473 684.368 342.795 683.591C343.117 682.814 343.282 681.981 343.282 681.14C343.282 680.299 343.117 679.466 342.795 678.689C342.473 677.912 342.001 677.206 341.407 676.611C340.812 676.016 340.106 675.544 339.329 675.222C338.552 674.901 337.72 674.735 336.879 674.735C335.18 674.735 333.552 675.41 332.351 676.611C331.15 677.812 330.475 679.441 330.475 681.14C330.475 682.839 331.15 684.468 332.351 685.669C333.552 686.87 335.18 687.545 336.879 687.545Z" fill="#16171A"/>
<path opacity="0.025" d="M315.838 652.774C319.88 652.774 323.157 649.497 323.157 645.454C323.157 641.412 319.88 638.134 315.838 638.134C311.797 638.134 308.52 641.412 308.52 645.454C308.52 649.497 311.797 652.774 315.838 652.774Z" fill="#16171A"/>
<path opacity="0.025" d="M295.712 618.005C297.411 618.005 299.039 617.33 300.24 616.129C301.441 614.928 302.116 613.299 302.116 611.6C302.116 609.901 301.441 608.272 300.24 607.071C299.039 605.87 297.411 605.195 295.712 605.195C294.014 605.195 292.385 605.87 291.184 607.071C289.983 608.272 289.309 609.901 289.309 611.6C289.309 613.299 289.983 614.928 291.184 616.129C292.385 617.33 294.014 618.005 295.712 618.005Z" fill="#16171A"/>
<path opacity="0.025" d="M278.331 583.235C281.363 583.235 283.82 580.777 283.82 577.745C283.82 574.713 281.363 572.255 278.331 572.255C275.3 572.255 272.842 574.713 272.842 577.745C272.842 580.777 275.3 583.235 278.331 583.235Z" fill="#16171A"/>
<path opacity="0.025" d="M262.779 548.465C264.478 548.465 266.106 547.79 267.307 546.589C268.508 545.388 269.183 543.759 269.183 542.06C269.199 540.508 268.651 539.004 267.642 537.826C266.632 536.648 265.229 535.876 263.694 535.655C261.996 535.655 260.367 536.33 259.166 537.531C257.965 538.732 257.29 540.361 257.29 542.06C257.274 543.611 257.822 545.116 258.832 546.294C259.841 547.472 261.244 548.243 262.779 548.465Z" fill="#16171A"/>
<path opacity="0.025" d="M248.143 514.61C249.47 514.795 250.822 514.654 252.083 514.198C253.343 513.742 254.473 512.985 255.374 511.994C256.275 511.002 256.921 509.805 257.255 508.507C257.589 507.209 257.602 505.849 257.291 504.545C257.438 503.308 257.303 502.054 256.895 500.877C256.487 499.7 255.818 498.63 254.937 497.749C254.056 496.868 252.987 496.199 251.81 495.791C250.634 495.383 249.38 495.248 248.143 495.395C246.98 495.388 245.829 495.627 244.765 496.097C243.702 496.567 242.75 497.257 241.972 498.121C241.194 498.985 240.608 500.005 240.253 501.112C239.897 502.219 239.78 503.389 239.91 504.545C239.63 505.768 239.634 507.039 239.921 508.26C240.208 509.482 240.77 510.621 241.564 511.592C242.358 512.563 243.364 513.34 244.504 513.863C245.644 514.386 246.889 514.641 248.143 514.61Z" fill="#16171A"/>
<path opacity="0.025" d="M236.25 478.925C238.919 478.925 241.478 477.864 243.366 475.977C245.253 474.089 246.313 471.529 246.313 468.86C246.084 466.352 244.924 464.021 243.061 462.327C241.198 460.633 238.768 459.699 236.25 459.71C233.824 459.71 231.497 460.674 229.781 462.39C228.066 464.105 227.102 466.433 227.102 468.86C226.974 470.136 227.115 471.425 227.517 472.643C227.919 473.861 228.573 474.981 229.435 475.93C230.298 476.879 231.35 477.636 232.524 478.152C233.698 478.668 234.968 478.931 236.25 478.925Z" fill="#16171A"/>
<path opacity="0.025" d="M226.188 442.325C228.947 442.334 231.609 441.304 233.644 439.439C235.678 437.574 236.935 435.011 237.165 432.26C237.165 429.348 236.009 426.555 233.95 424.496C231.891 422.437 229.099 421.28 226.188 421.28C224.785 421.274 223.398 421.561 222.113 422.123C220.828 422.685 219.675 423.51 218.728 424.544C217.781 425.577 217.06 426.798 216.611 428.127C216.163 429.455 215.997 430.863 216.125 432.26C216.125 434.929 217.185 437.489 219.072 439.377C220.959 441.264 223.519 442.325 226.188 442.325Z" fill="#16171A"/>
<path opacity="0.025" d="M217.954 404.81C220.866 404.81 223.658 403.653 225.717 401.594C227.775 399.535 228.932 396.742 228.932 393.83C228.938 392.428 228.65 391.04 228.088 389.755C227.526 388.47 226.702 387.317 225.669 386.369C224.635 385.422 223.415 384.7 222.087 384.252C220.758 383.804 219.35 383.638 217.954 383.765C216.633 383.765 215.324 384.026 214.103 384.531C212.882 385.037 211.773 385.779 210.839 386.713C209.904 387.648 209.163 388.757 208.657 389.979C208.152 391.2 207.891 392.509 207.891 393.83C207.764 395.227 207.93 396.635 208.378 397.964C208.826 399.292 209.547 400.513 210.495 401.547C211.442 402.58 212.595 403.405 213.88 403.967C215.164 404.529 216.552 404.816 217.954 404.81Z" fill="#16171A"/>
<path opacity="0.025" d="M1697.19 423.11C1698.48 423.117 1699.75 422.853 1700.92 422.337C1702.09 421.821 1703.15 421.064 1704.01 420.115C1704.87 419.166 1705.53 418.046 1705.93 416.828C1706.33 415.61 1706.47 414.321 1706.34 413.045C1706.34 410.618 1705.38 408.291 1703.66 406.575C1701.95 404.859 1699.62 403.895 1697.19 403.895C1694.68 403.885 1692.25 404.819 1690.38 406.513C1688.52 408.206 1687.36 410.537 1687.13 413.045C1687.13 414.367 1687.39 415.676 1687.9 416.897C1688.4 418.118 1689.14 419.227 1690.08 420.162C1691.01 421.097 1692.12 421.838 1693.34 422.344C1694.56 422.85 1695.87 423.11 1697.19 423.11Z" fill="#16171A"/>
<path opacity="0.025" d="M1688.05 461.54C1690.96 461.54 1693.75 460.383 1695.81 458.324C1697.87 456.265 1699.02 453.472 1699.02 450.56C1699.03 449.157 1698.74 447.769 1698.18 446.484C1697.62 445.2 1696.79 444.046 1695.76 443.099C1694.73 442.151 1693.51 441.43 1692.18 440.981C1690.85 440.533 1689.44 440.367 1688.05 440.495C1686.72 440.495 1685.42 440.755 1684.2 441.261C1682.97 441.767 1681.87 442.508 1680.93 443.443C1680 444.377 1679.26 445.487 1678.75 446.708C1678.24 447.929 1677.98 449.238 1677.98 450.56C1677.86 451.956 1678.02 453.364 1678.47 454.693C1678.92 456.022 1679.64 457.242 1680.59 458.276C1681.53 459.31 1682.69 460.134 1683.97 460.696C1685.26 461.258 1686.64 461.546 1688.05 461.54Z" fill="#16171A"/>
<path opacity="0.025" d="M1677.98 504.545C1679.79 504.545 1681.57 504.19 1683.23 503.5C1684.9 502.81 1686.41 501.799 1687.69 500.525C1688.96 499.25 1689.97 497.737 1690.66 496.072C1691.35 494.407 1691.71 492.622 1691.71 490.82C1691.71 489.017 1691.35 487.233 1690.66 485.567C1689.97 483.902 1688.96 482.389 1687.69 481.115C1686.41 479.84 1684.9 478.829 1683.23 478.14C1681.57 477.45 1679.79 477.095 1677.98 477.095C1674.34 477.095 1670.85 478.541 1668.28 481.115C1665.71 483.689 1664.26 487.18 1664.26 490.82C1664.12 492.657 1664.39 494.502 1665.03 496.23C1665.67 497.957 1666.67 499.525 1667.98 500.828C1669.28 502.131 1670.85 503.137 1672.57 503.779C1674.3 504.42 1676.15 504.681 1677.98 504.545Z" fill="#16171A"/>
<path opacity="0.025" d="M1666.09 538.4C1669.73 538.4 1673.22 536.954 1675.79 534.38C1678.37 531.806 1679.81 528.315 1679.81 524.675C1679.81 521.035 1678.37 517.544 1675.79 514.97C1673.22 512.396 1669.73 510.95 1666.09 510.95C1662.36 510.942 1658.77 512.359 1656.05 514.909C1653.33 517.46 1651.69 520.953 1651.45 524.675C1651.69 528.397 1653.33 531.89 1656.05 534.44C1658.77 536.991 1662.36 538.407 1666.09 538.4Z" fill="#16171A"/>
<path opacity="0.025" d="M1651.45 574.085C1658.53 574.085 1664.26 568.35 1664.26 561.275C1664.26 554.2 1658.53 548.465 1651.45 548.465C1644.38 548.465 1638.65 554.2 1638.65 561.275C1638.65 568.35 1644.38 574.085 1651.45 574.085Z" fill="#16171A"/>
<path opacity="0.025" d="M1635.9 606.11C1641.46 606.11 1645.96 601.604 1645.96 596.045C1645.96 590.486 1641.46 585.98 1635.9 585.98C1630.34 585.98 1625.84 590.486 1625.84 596.045C1625.84 601.604 1630.34 606.11 1635.9 606.11Z" fill="#16171A"/>
<path opacity="0.025" d="M1617.61 640.88C1619 641.007 1620.41 640.841 1621.74 640.393C1623.07 639.944 1624.29 639.223 1625.32 638.276C1626.35 637.328 1627.18 636.175 1627.74 634.89C1628.3 633.605 1628.59 632.217 1628.58 630.815C1628.58 627.902 1627.43 625.11 1625.37 623.051C1623.31 620.991 1620.52 619.835 1617.61 619.835C1616.2 619.829 1614.82 620.116 1613.53 620.678C1612.25 621.24 1611.09 622.065 1610.15 623.098C1609.2 624.132 1608.48 625.353 1608.03 626.681C1607.58 628.01 1607.42 629.418 1607.54 630.815C1607.54 633.484 1608.6 636.044 1610.49 637.932C1612.38 639.819 1614.94 640.88 1617.61 640.88Z" fill="#16171A"/>
<path opacity="0.025" d="M1598.4 671.989C1599.55 672.118 1600.72 672.001 1601.83 671.646C1602.93 671.29 1603.95 670.704 1604.82 669.926C1605.68 669.148 1606.37 668.196 1606.84 667.132C1607.31 666.068 1607.55 664.917 1607.54 663.754C1607.55 662.591 1607.31 661.44 1606.84 660.376C1606.37 659.312 1605.68 658.36 1604.82 657.582C1603.95 656.804 1602.93 656.218 1601.83 655.863C1600.72 655.507 1599.55 655.39 1598.4 655.519C1596.21 655.519 1594.12 656.387 1592.57 657.931C1591.03 659.476 1590.16 661.57 1590.16 663.754C1590.16 665.938 1591.03 668.033 1592.57 669.577C1594.12 671.122 1596.21 671.989 1598.4 671.989Z" fill="#16171A"/>
<path opacity="0.025" d="M1577.35 702.185C1578.91 702.201 1580.41 701.653 1581.59 700.643C1582.77 699.634 1583.54 698.231 1583.76 696.695C1584.25 695.67 1584.46 694.533 1584.37 693.399C1584.28 692.266 1583.89 691.177 1583.23 690.246C1582.58 689.314 1581.69 688.573 1580.66 688.098C1579.63 687.624 1578.49 687.433 1577.35 687.545C1575.82 687.767 1574.42 688.538 1573.41 689.716C1572.4 690.894 1571.85 692.399 1571.87 693.95C1571.34 694.84 1571.07 695.861 1571.1 696.894C1571.13 697.928 1571.45 698.934 1572.02 699.794C1572.59 700.655 1573.4 701.336 1574.34 701.759C1575.29 702.182 1576.33 702.33 1577.35 702.185Z" fill="#16171A"/>
<path opacity="0.025" d="M1478.56 815.644C1479.06 815.644 1479.47 815.235 1479.47 814.729C1479.47 814.224 1479.06 813.814 1478.56 813.814C1478.05 813.814 1477.64 814.224 1477.64 814.729C1477.64 815.235 1478.05 815.644 1478.56 815.644Z" fill="#16171A"/>
<path opacity="0.025" d="M618.639 966.62H619.554L618.639 965.705V966.62Z" fill="#16171A"/>
<path opacity="0.025" d="M550.029 933.679C551.544 933.679 552.773 932.45 552.773 930.934C552.773 929.418 551.544 928.189 550.029 928.189C548.513 928.189 547.284 929.418 547.284 930.934C547.284 932.45 548.513 933.679 550.029 933.679Z" fill="#16171A"/>
<path opacity="0.025" d="M517.095 915.38C519.622 915.38 521.67 913.332 521.67 910.805C521.67 908.278 519.622 906.23 517.095 906.23C514.569 906.23 512.521 908.278 512.521 910.805C512.521 913.332 514.569 915.38 517.095 915.38Z" fill="#16171A"/>
<path opacity="0.025" d="M485.077 896.165C489.119 896.165 492.396 892.888 492.396 888.845C492.396 884.802 489.119 881.525 485.077 881.525C481.035 881.525 477.759 884.802 477.759 888.845C477.759 892.888 481.035 896.165 485.077 896.165Z" fill="#16171A"/>
<path opacity="0.025" d="M452.144 870.545C452.659 871.129 453.293 871.597 454.003 871.917C454.712 872.238 455.482 872.404 456.261 872.404C457.04 872.404 457.81 872.238 458.519 871.917C459.229 871.597 459.863 871.129 460.378 870.545C461.833 869.453 462.796 867.827 463.053 866.025C463.31 864.224 462.842 862.393 461.75 860.937C460.658 859.481 459.033 858.519 457.231 858.261C455.43 858.004 453.6 858.473 452.144 859.565C451.197 860.134 450.413 860.939 449.869 861.901C449.325 862.863 449.039 863.95 449.039 865.055C449.039 866.16 449.325 867.247 449.869 868.209C450.413 869.171 451.197 869.976 452.144 870.545Z" fill="#16171A"/>
<path opacity="0.025" d="M369.812 790.025C371.328 790.025 372.556 788.796 372.556 787.28C372.556 785.764 371.328 784.535 369.812 784.535C368.296 784.535 367.067 785.764 367.067 787.28C367.067 788.796 368.296 790.025 369.812 790.025Z" fill="#16171A"/>
<path opacity="0.025" d="M276.501 668.33C276.83 667.612 277.001 666.832 277.001 666.042C277.001 665.253 276.83 664.473 276.501 663.755C276.1 664.45 275.889 665.239 275.889 666.042C275.889 666.845 276.1 667.634 276.501 668.33Z" fill="#16171A"/>
<path opacity="0.025" d="M223.443 564.019C224.958 564.019 226.187 562.79 226.187 561.274C226.187 559.758 224.958 558.529 223.443 558.529C221.927 558.529 220.698 559.758 220.698 561.274C220.698 562.79 221.927 564.019 223.443 564.019Z" fill="#16171A"/>
<path opacity="0.025" d="M209.721 529.25V524.675C209.319 525.37 209.108 526.159 209.108 526.962C209.108 527.765 209.319 528.554 209.721 529.25Z" fill="#16171A"/>
<path opacity="0.025" d="M196.913 494.48C198.612 494.48 200.241 493.805 201.441 492.604C202.642 491.403 203.317 489.774 203.317 488.075C203.317 487.234 203.151 486.401 202.83 485.624C202.508 484.847 202.036 484.141 201.441 483.546C200.847 482.951 200.141 482.479 199.364 482.157C198.587 481.836 197.754 481.67 196.913 481.67C196.072 481.67 195.24 481.836 194.463 482.157C193.686 482.479 192.98 482.951 192.385 483.546C191.791 484.141 191.319 484.847 190.997 485.624C190.675 486.401 190.51 487.234 190.51 488.075C190.51 489.774 191.184 491.403 192.385 492.604C193.586 493.805 195.215 494.48 196.913 494.48Z" fill="#16171A"/>
<path opacity="0.025" d="M186.851 458.794C189.034 458.794 191.129 457.927 192.673 456.382C194.217 454.838 195.084 452.743 195.084 450.559C195.084 448.375 194.217 446.281 192.673 444.736C191.129 443.192 189.034 442.324 186.851 442.324C185.695 442.195 184.526 442.312 183.419 442.668C182.312 443.023 181.292 443.609 180.428 444.387C179.564 445.165 178.874 446.118 178.404 447.181C177.935 448.245 177.696 449.396 177.703 450.559C177.696 451.722 177.935 452.874 178.404 453.937C178.874 455.001 179.564 455.954 180.428 456.731C181.292 457.509 182.312 458.095 183.419 458.451C184.526 458.807 185.695 458.924 186.851 458.794Z" fill="#16171A"/>
<path opacity="0.025" d="M178.617 423.11C183.67 423.11 187.765 419.013 187.765 413.96C187.765 408.907 183.67 404.81 178.617 404.81C173.565 404.81 169.469 408.907 169.469 413.96C169.469 419.013 173.565 423.11 178.617 423.11Z" fill="#16171A"/>
<path opacity="0.025" d="M1741.1 423.11C1743.61 422.881 1745.94 421.72 1747.64 419.857C1749.33 417.994 1750.26 415.563 1750.25 413.045C1750.05 410.688 1749.02 408.478 1747.34 406.805C1745.67 405.131 1743.46 404.101 1741.1 403.895C1738.84 404.123 1736.74 405.186 1735.22 406.878C1733.7 408.57 1732.86 410.769 1732.87 413.045C1732.75 414.248 1732.86 415.463 1733.2 416.622C1733.55 417.781 1734.12 418.859 1734.89 419.795C1735.65 420.731 1736.6 421.506 1737.67 422.075C1738.73 422.644 1739.9 422.996 1741.1 423.11Z" fill="#16171A"/>
<path opacity="0.025" d="M1732.87 461.54C1738.43 461.54 1742.93 457.033 1742.93 451.475C1742.93 445.916 1738.43 441.41 1732.87 441.41C1727.31 441.41 1722.81 445.916 1722.81 451.475C1722.81 457.033 1727.31 461.54 1732.87 461.54Z" fill="#16171A"/>
<path opacity="0.025" d="M1722.81 500.885C1729.38 500.885 1734.7 495.559 1734.7 488.99C1734.7 482.42 1729.38 477.095 1722.81 477.095C1716.24 477.095 1710.92 482.42 1710.92 488.99C1710.92 495.559 1716.24 500.885 1722.81 500.885Z" fill="#16171A"/>
<path opacity="0.025" d="M1710.92 541.145C1719.51 541.145 1726.47 534.18 1726.47 525.59C1726.47 516.999 1719.51 510.035 1710.92 510.035C1702.33 510.035 1695.36 516.999 1695.36 525.59C1695.36 534.18 1702.33 541.145 1710.92 541.145Z" fill="#16171A"/>
<path opacity="0.025" d="M1698.11 576.83C1700.11 576.833 1702.09 576.427 1703.93 575.634C1705.77 574.842 1707.42 573.681 1708.8 572.223C1710.17 570.765 1711.23 569.042 1711.91 567.158C1712.59 565.275 1712.87 563.273 1712.75 561.275C1712.75 557.392 1711.2 553.668 1708.46 550.923C1705.71 548.177 1701.99 546.635 1698.11 546.635C1696.11 546.509 1694.11 546.795 1692.23 547.475C1690.34 548.154 1688.62 549.213 1687.16 550.585C1685.71 551.957 1684.54 553.614 1683.75 555.452C1682.96 557.291 1682.55 559.273 1682.56 561.275C1682.42 563.352 1682.73 565.434 1683.47 567.383C1684.2 569.331 1685.34 571.1 1686.81 572.572C1688.29 574.044 1690.05 575.186 1692 575.92C1693.95 576.654 1696.03 576.964 1698.11 576.83Z" fill="#16171A"/>
<path opacity="0.025" d="M1682.56 608.855C1684.2 608.86 1685.82 608.525 1687.33 607.87C1688.84 607.216 1690.19 606.257 1691.31 605.054C1692.42 603.851 1693.28 602.429 1693.82 600.878C1694.36 599.328 1694.58 597.682 1694.45 596.045C1694.45 592.89 1693.2 589.865 1690.97 587.634C1688.74 585.403 1685.71 584.15 1682.56 584.15C1679.4 584.15 1676.38 585.403 1674.15 587.634C1671.92 589.865 1670.66 592.89 1670.66 596.045C1670.54 597.682 1670.75 599.328 1671.29 600.878C1671.83 602.429 1672.69 603.851 1673.81 605.054C1674.92 606.257 1676.28 607.216 1677.78 607.87C1679.29 608.525 1680.92 608.86 1682.56 608.855Z" fill="#16171A"/>
<path opacity="0.025" d="M1666.09 642.71C1671.65 642.71 1676.15 638.204 1676.15 632.645C1676.15 627.086 1671.65 622.58 1666.09 622.58C1660.53 622.58 1656.03 627.086 1656.03 632.645C1656.03 638.204 1660.53 642.71 1666.09 642.71Z" fill="#16171A"/>
<path opacity="0.025" d="M1647.79 675.65C1652.85 675.65 1656.94 671.553 1656.94 666.5C1656.94 661.446 1652.85 657.35 1647.79 657.35C1642.74 657.35 1638.65 661.446 1638.65 666.5C1638.65 671.553 1642.74 675.65 1647.79 675.65Z" fill="#16171A"/>
<path opacity="0.025" d="M1605.71 736.04C1608.24 736.04 1610.29 733.992 1610.29 731.465C1610.29 728.938 1608.24 726.89 1605.71 726.89C1603.19 726.89 1601.14 728.938 1601.14 731.465C1601.14 733.992 1603.19 736.04 1605.71 736.04Z" fill="#16171A"/>
<path opacity="0.025" d="M507.033 958.385C508.548 958.385 509.777 957.156 509.777 955.64C509.777 954.124 508.548 952.895 507.033 952.895C505.517 952.895 504.288 954.124 504.288 955.64C504.288 957.156 505.517 958.385 507.033 958.385Z" fill="#16171A"/>
<path opacity="0.025" d="M442.996 916.294C443.86 917.171 444.994 917.732 446.215 917.886C447.436 918.041 448.673 917.781 449.728 917.147C450.784 916.514 451.596 915.544 452.034 914.394C452.472 913.244 452.511 911.979 452.144 910.804C451.31 910.323 450.363 910.069 449.4 910.069C448.436 910.069 447.49 910.323 446.655 910.804C445.821 910.323 444.874 910.069 443.911 910.069C442.947 910.069 442.001 910.323 441.166 910.804C440.93 911.799 440.976 912.84 441.299 913.81C441.622 914.78 442.21 915.64 442.996 916.294Z" fill="#16171A"/>
<path opacity="0.025" d="M412.807 891.589C415.334 891.589 417.381 889.541 417.381 887.014C417.381 884.488 415.334 882.439 412.807 882.439C410.281 882.439 408.233 884.488 408.233 887.014C408.233 889.541 410.281 891.589 412.807 891.589Z" fill="#16171A"/>
<path opacity="0.025" d="M356.09 839.435C358.616 839.435 360.664 837.386 360.664 834.86C360.664 832.333 358.616 830.285 356.09 830.285C353.564 830.285 351.516 832.333 351.516 834.86C351.516 837.386 353.564 839.435 356.09 839.435Z" fill="#16171A"/>
<path opacity="0.025" d="M280.161 751.595C280.562 750.9 280.774 750.111 280.774 749.308C280.774 748.504 280.562 747.716 280.161 747.02C279.832 747.738 279.662 748.518 279.662 749.308C279.662 750.097 279.832 750.877 280.161 751.595Z" fill="#16171A"/>
<path opacity="0.025" d="M217.954 655.52C219.746 655.534 221.482 654.889 222.831 653.709C224.179 652.528 225.048 650.893 225.272 649.115C225.048 647.336 224.179 645.701 222.831 644.521C221.482 643.34 219.746 642.696 217.954 642.71C216.256 642.71 214.627 643.385 213.426 644.586C212.225 645.787 211.55 647.416 211.55 649.115C211.55 650.813 212.225 652.443 213.426 653.644C214.627 654.845 216.256 655.52 217.954 655.52Z" fill="#16171A"/>
<path opacity="0.025" d="M200.573 619.835C202.029 619.835 203.425 619.256 204.454 618.227C205.483 617.197 206.062 615.801 206.062 614.345C205.843 613.052 205.17 611.881 204.163 611.041C203.157 610.202 201.883 609.751 200.573 609.77C199.263 609.751 197.989 610.202 196.982 611.041C195.976 611.881 195.302 613.052 195.084 614.345C195.084 615.801 195.662 617.197 196.692 618.227C197.721 619.256 199.117 619.835 200.573 619.835Z" fill="#16171A"/>
<path opacity="0.025" d="M185.021 585.065C186.313 584.846 187.484 584.173 188.323 583.166C189.162 582.159 189.613 580.885 189.595 579.575C189.613 578.264 189.162 576.99 188.323 575.984C187.484 574.977 186.313 574.303 185.021 574.085C184.168 573.781 183.252 573.694 182.357 573.83C181.461 573.966 180.614 574.322 179.889 574.866C179.164 575.409 178.585 576.124 178.204 576.945C177.822 577.767 177.65 578.67 177.703 579.575C177.65 580.479 177.822 581.383 178.204 582.204C178.585 583.026 179.164 583.74 179.889 584.284C180.614 584.828 181.461 585.183 182.357 585.32C183.252 585.456 184.168 585.368 185.021 585.065Z" fill="#16171A"/>
<path opacity="0.025" d="M147.514 474.35C150.04 474.35 152.088 472.301 152.088 469.775C152.088 467.248 150.04 465.2 147.514 465.2C144.988 465.2 142.94 467.248 142.94 469.775C142.94 472.301 144.988 474.35 147.514 474.35Z" fill="#16171A"/>
<path opacity="0.025" d="M138.366 440.495C142.913 440.495 146.599 436.808 146.599 432.26C146.599 427.712 142.913 424.025 138.366 424.025C133.819 424.025 130.133 427.712 130.133 432.26C130.133 436.808 133.819 440.495 138.366 440.495Z" fill="#16171A"/>
<path opacity="0.025" d="M131.048 403.895C133.405 403.689 135.614 402.659 137.287 400.985C138.96 399.312 139.99 397.103 140.196 394.745C140.206 392.227 139.273 389.796 137.579 387.933C135.885 386.07 133.555 384.909 131.048 384.68C128.379 384.68 125.819 385.741 123.932 387.628C122.045 389.516 120.985 392.076 120.985 394.745C121.214 397.253 122.374 399.584 124.237 401.278C126.1 402.972 128.53 403.906 131.048 403.895Z" fill="#16171A"/>
<path opacity="0.025" d="M1785.02 419.45C1788.05 419.45 1790.5 416.992 1790.5 413.96C1790.5 410.928 1788.05 408.47 1785.02 408.47C1781.98 408.47 1779.53 410.928 1779.53 413.96C1779.53 416.992 1781.98 419.45 1785.02 419.45Z" fill="#16171A"/>
<path opacity="0.025" d="M1776.78 457.88C1777.62 457.88 1778.46 457.714 1779.23 457.392C1780.01 457.07 1780.72 456.599 1781.31 456.004C1781.9 455.409 1782.38 454.703 1782.7 453.926C1783.02 453.149 1783.19 452.316 1783.19 451.475C1783.19 449.776 1782.51 448.147 1781.31 446.946C1780.11 445.745 1778.48 445.07 1776.78 445.07C1775.08 445.07 1773.45 445.745 1772.25 446.946C1771.05 448.147 1770.38 449.776 1770.38 451.475C1770.38 452.316 1770.54 453.149 1770.87 453.926C1771.19 454.703 1771.66 455.409 1772.25 456.004C1772.85 456.599 1773.55 457.07 1774.33 457.392C1775.11 457.714 1775.94 457.88 1776.78 457.88Z" fill="#16171A"/>
<path opacity="0.025" d="M1767.63 496.31C1771.68 496.31 1774.95 493.033 1774.95 488.99C1774.95 484.947 1771.68 481.67 1767.63 481.67C1763.59 481.67 1760.32 484.947 1760.32 488.99C1760.32 493.033 1763.59 496.31 1767.63 496.31Z" fill="#16171A"/>
<path opacity="0.025" d="M1756.66 536.57C1758.06 536.576 1759.45 536.289 1760.73 535.727C1762.02 535.164 1763.17 534.34 1764.12 533.306C1765.06 532.273 1765.78 531.052 1766.23 529.723C1766.68 528.395 1766.85 526.987 1766.72 525.59C1766.72 522.921 1765.66 520.361 1763.77 518.473C1761.88 516.586 1759.33 515.525 1756.66 515.525C1755.26 515.398 1753.85 515.563 1752.52 516.012C1751.2 516.46 1749.98 517.181 1748.94 518.129C1747.91 519.077 1747.08 520.23 1746.52 521.515C1745.96 522.8 1745.67 524.188 1745.68 525.59C1745.68 528.502 1746.84 531.295 1748.89 533.354C1750.95 535.413 1753.74 536.57 1756.66 536.57Z" fill="#16171A"/>
<path opacity="0.025" d="M1743.85 575C1750.92 575 1756.66 569.265 1756.66 562.19C1756.66 555.116 1750.92 549.38 1743.85 549.38C1736.78 549.38 1731.04 555.116 1731.04 562.19C1731.04 569.265 1736.78 575 1743.85 575Z" fill="#16171A"/>
<path opacity="0.025" d="M1732.87 611.599C1736.19 610.733 1739.06 608.655 1740.92 605.776C1742.79 602.898 1743.5 599.426 1742.93 596.044C1742.66 593.275 1741.55 590.655 1739.75 588.53C1737.96 586.406 1735.56 584.878 1732.87 584.149C1730.94 583.604 1728.91 583.491 1726.93 583.816C1724.94 584.141 1723.06 584.898 1721.4 586.032C1719.74 587.167 1718.35 588.652 1717.33 590.382C1716.31 592.111 1715.68 594.045 1715.49 596.044C1715.08 598.345 1715.27 600.711 1716.04 602.918C1716.8 605.126 1718.11 607.102 1719.85 608.659C1721.59 610.217 1723.7 611.305 1725.98 611.819C1728.26 612.334 1730.63 612.258 1732.87 611.599Z" fill="#16171A"/>
<path opacity="0.025" d="M1713.66 645.455C1716.81 645.455 1719.84 644.201 1722.07 641.971C1724.3 639.74 1725.55 636.714 1725.55 633.56C1725.55 630.405 1724.3 627.379 1722.07 625.149C1719.84 622.918 1716.81 621.665 1713.66 621.665C1712.02 621.538 1710.38 621.752 1708.83 622.293C1707.28 622.834 1705.86 623.69 1704.65 624.808C1703.45 625.925 1702.49 627.28 1701.84 628.786C1701.18 630.292 1700.85 631.918 1700.85 633.56C1700.85 635.202 1701.18 636.827 1701.84 638.333C1702.49 639.84 1703.45 641.194 1704.65 642.311C1705.86 643.429 1707.28 644.285 1708.83 644.826C1710.38 645.367 1712.02 645.581 1713.66 645.455Z" fill="#16171A"/>
<path opacity="0.025" d="M1695.36 681.14C1699 681.14 1702.49 679.693 1705.07 677.12C1707.64 674.546 1709.09 671.055 1709.09 667.415C1708.85 663.935 1707.31 660.675 1704.76 658.296C1702.21 655.917 1698.85 654.597 1695.36 654.605C1691.97 654.605 1688.71 655.954 1686.31 658.356C1683.91 660.759 1682.56 664.017 1682.56 667.415C1682.55 670.901 1683.87 674.261 1686.25 676.81C1688.63 679.359 1691.89 680.907 1695.36 681.14Z" fill="#16171A"/>
<path opacity="0.025" d="M400.915 937.34C401.317 936.644 401.528 935.855 401.528 935.052C401.528 934.249 401.317 933.46 400.915 932.765C400.315 932.765 399.72 932.883 399.165 933.113C398.61 933.343 398.106 933.68 397.681 934.105C397.256 934.529 396.919 935.034 396.689 935.589C396.46 936.144 396.341 936.739 396.341 937.34H400.915Z" fill="#16171A"/>
<path opacity="0.025" d="M269.183 801.005V796.43C269.183 796.43 261.864 801.005 269.183 801.005Z" fill="#16171A"/>
<path opacity="0.025" d="M218.869 737.87C220.89 737.87 222.528 736.231 222.528 734.21C222.528 732.188 220.89 730.55 218.869 730.55C216.848 730.55 215.209 732.188 215.209 734.21C215.209 736.231 216.848 737.87 218.869 737.87Z" fill="#16171A"/>
<path opacity="0.025" d="M198.743 703.099C199.754 703.099 200.573 702.28 200.573 701.269C200.573 700.259 199.754 699.439 198.743 699.439C197.733 699.439 196.914 700.259 196.914 701.269C196.914 702.28 197.733 703.099 198.743 703.099Z" fill="#16171A"/>
<path opacity="0.025" d="M162.151 638.135C164.677 638.135 166.725 636.087 166.725 633.56C166.725 631.034 164.677 628.985 162.151 628.985C159.625 628.985 157.577 631.034 157.577 633.56C157.577 636.087 159.625 638.135 162.151 638.135Z" fill="#16171A"/>
<path opacity="0.025" d="M145.684 606.11C146.938 606.141 148.183 605.886 149.323 605.363C150.463 604.84 151.469 604.063 152.263 603.092C153.057 602.121 153.619 600.981 153.906 599.76C154.193 598.539 154.197 597.268 153.918 596.045C153.692 594.023 152.725 592.156 151.205 590.805C149.685 589.453 147.718 588.712 145.684 588.725C143.743 588.725 141.882 589.496 140.509 590.869C139.137 592.241 138.366 594.103 138.366 596.045C137.895 597.199 137.727 598.454 137.877 599.691C138.027 600.929 138.49 602.107 139.223 603.115C139.956 604.123 140.935 604.927 142.065 605.451C143.196 605.976 144.442 606.202 145.684 606.11Z" fill="#16171A"/>
<path opacity="0.025" d="M131.963 569.51C136.004 569.51 139.281 566.232 139.281 562.19C139.281 558.147 136.004 554.87 131.963 554.87C127.921 554.87 124.644 558.147 124.644 562.19C124.644 566.232 127.921 569.51 131.963 569.51Z" fill="#16171A"/>
<path opacity="0.025" d="M119.155 533.825C121.338 533.825 123.433 532.957 124.977 531.413C126.521 529.869 127.388 527.774 127.388 525.59C127.388 523.406 126.521 521.311 124.977 519.767C123.433 518.223 121.338 517.355 119.155 517.355C116.879 517.344 114.681 518.181 112.989 519.704C111.298 521.227 110.234 523.325 110.007 525.59C110.234 527.855 111.298 529.954 112.989 531.476C114.681 532.999 116.879 533.836 119.155 533.825Z" fill="#16171A"/>
<path opacity="0.025" d="M107.263 495.395C108.961 495.395 110.59 494.72 111.791 493.519C112.992 492.318 113.666 490.689 113.666 488.99C113.666 487.291 112.992 485.662 111.791 484.461C110.59 483.26 108.961 482.585 107.263 482.585C105.727 482.807 104.325 483.578 103.315 484.756C102.306 485.934 101.758 487.438 101.774 488.99C101.758 490.541 102.306 492.046 103.315 493.224C104.325 494.402 105.727 495.173 107.263 495.395Z" fill="#16171A"/>
<path opacity="0.025" d="M98.1144 456.965C99.5701 456.965 100.966 456.386 101.996 455.357C103.025 454.327 103.603 452.931 103.603 451.475C103.603 450.019 103.025 448.622 101.996 447.593C100.966 446.563 99.5701 445.985 98.1144 445.985C96.6586 445.985 95.2626 446.563 94.2332 447.593C93.2038 448.622 92.6255 450.019 92.6255 451.475C92.6255 452.931 93.2038 454.327 94.2332 455.357C95.2626 456.386 96.6586 456.965 98.1144 456.965Z" fill="#16171A"/>
<path opacity="0.025" d="M90.7959 419.45C92.3312 419.228 93.7339 418.457 94.7434 417.279C95.7529 416.101 96.3005 414.596 96.2846 413.045C96.2846 411.589 95.7064 410.192 94.677 409.163C93.6477 408.133 92.2516 407.555 90.7959 407.555C89.5743 407.912 88.4868 408.624 87.6721 409.602C86.8574 410.58 86.3525 411.779 86.2218 413.045C86.1628 414.469 86.5806 415.873 87.4091 417.033C88.2376 418.193 89.4295 419.044 90.7959 419.45Z" fill="#16171A"/>
<path opacity="0.025" d="M1820.69 454.219C1822.21 454.219 1823.44 452.991 1823.44 451.475C1823.44 449.958 1822.21 448.729 1820.69 448.729C1819.18 448.729 1817.95 449.958 1817.95 451.475C1817.95 452.991 1819.18 454.219 1820.69 454.219Z" fill="#16171A"/>
<path opacity="0.025" d="M1801.48 532.91C1802.32 532.91 1803.16 532.744 1803.93 532.422C1804.71 532.1 1805.42 531.628 1806.01 531.034C1806.6 530.439 1807.08 529.733 1807.4 528.956C1807.72 528.179 1807.89 527.346 1807.89 526.505C1807.89 525.663 1807.72 524.831 1807.4 524.054C1807.08 523.276 1806.6 522.57 1806.01 521.976C1805.42 521.381 1804.71 520.909 1803.93 520.587C1803.16 520.265 1802.32 520.1 1801.48 520.1C1799.78 520.1 1798.15 520.774 1796.95 521.976C1795.75 523.177 1795.08 524.806 1795.08 526.505C1795.08 528.203 1795.75 529.832 1796.95 531.034C1798.15 532.235 1799.78 532.91 1801.48 532.91Z" fill="#16171A"/>
<path opacity="0.025" d="M1789.59 571.34C1791.61 571.114 1793.48 570.147 1794.83 568.627C1796.18 567.106 1796.92 565.139 1796.91 563.105C1796.92 561.07 1796.18 559.103 1794.83 557.583C1793.48 556.062 1791.61 555.096 1789.59 554.87C1787.41 554.87 1785.31 555.737 1783.77 557.282C1782.22 558.826 1781.36 560.921 1781.36 563.105C1781.36 565.289 1782.22 567.383 1783.77 568.928C1785.31 570.472 1787.41 571.34 1789.59 571.34Z" fill="#16171A"/>
<path opacity="0.025" d="M1775.87 610.685C1777.69 610.734 1779.5 610.364 1781.15 609.603C1782.81 608.841 1784.27 607.71 1785.42 606.295C1786.57 604.88 1787.38 603.22 1787.78 601.442C1788.19 599.665 1788.18 597.818 1787.76 596.045C1787.76 592.89 1786.51 589.864 1784.28 587.633C1782.05 585.403 1779.02 584.15 1775.87 584.15C1774.23 584.023 1772.59 584.237 1771.04 584.778C1769.49 585.319 1768.06 586.175 1766.86 587.293C1765.66 588.41 1764.7 589.765 1764.04 591.271C1763.39 592.777 1763.06 594.402 1763.06 596.045C1762.61 597.898 1762.61 599.832 1763.06 601.684C1763.52 603.537 1764.41 605.253 1765.67 606.688C1766.92 608.124 1768.5 609.236 1770.28 609.932C1772.05 610.627 1773.97 610.885 1775.87 610.685Z" fill="#16171A"/>
<path opacity="0.025" d="M1760.32 648.2C1763.96 648.2 1767.45 646.754 1770.02 644.18C1772.59 641.606 1774.04 638.115 1774.04 634.475C1774.04 630.835 1772.59 627.344 1770.02 624.77C1767.45 622.196 1763.96 620.75 1760.32 620.75C1756.59 620.743 1753 622.159 1750.28 624.71C1747.56 627.26 1745.91 630.753 1745.68 634.475C1745.68 636.357 1746.06 638.22 1746.8 639.948C1747.55 641.675 1748.64 643.231 1750.02 644.518C1751.39 645.806 1753.01 646.797 1754.78 647.43C1756.56 648.063 1758.44 648.325 1760.32 648.2Z" fill="#16171A"/>
<path opacity="0.025" d="M1743.85 682.055C1750.92 682.055 1756.66 676.32 1756.66 669.245C1756.66 662.17 1750.92 656.435 1743.85 656.435C1736.78 656.435 1731.04 662.17 1731.04 669.245C1731.04 676.32 1736.78 682.055 1743.85 682.055Z" fill="#16171A"/>
<path opacity="0.025" d="M1725.55 712.25C1726.64 712.136 1727.69 711.809 1728.64 711.286C1729.6 710.763 1730.44 710.055 1731.12 709.204C1731.8 708.353 1732.31 707.375 1732.61 706.327C1732.91 705.28 1733 704.183 1732.87 703.1C1732.87 702.019 1732.66 700.948 1732.25 699.949C1731.83 698.949 1731.23 698.042 1730.46 697.277C1729.7 696.512 1728.79 695.906 1727.79 695.492C1726.79 695.078 1725.72 694.865 1724.64 694.865C1723.48 694.736 1722.31 694.853 1721.21 695.208C1720.1 695.564 1719.08 696.15 1718.22 696.928C1717.35 697.706 1716.66 698.658 1716.19 699.722C1715.72 700.786 1715.48 701.937 1715.49 703.1C1715.31 704.427 1715.45 705.78 1715.9 707.041C1716.36 708.301 1717.12 709.431 1718.11 710.333C1719.1 711.234 1720.29 711.88 1721.59 712.214C1722.89 712.549 1724.25 712.561 1725.55 712.25Z" fill="#16171A"/>
<path opacity="0.025" d="M389.022 980.345C390.033 980.345 390.852 979.526 390.852 978.515C390.852 977.504 390.033 976.685 389.022 976.685C388.012 976.685 387.193 977.504 387.193 978.515C387.193 979.526 388.012 980.345 389.022 980.345Z" fill="#16171A"/>
<path opacity="0.025" d="M329.56 931.85C331.076 931.85 332.305 930.621 332.305 929.105C332.305 927.589 331.076 926.36 329.56 926.36C328.045 926.36 326.816 927.589 326.816 929.105C326.816 930.621 328.045 931.85 329.56 931.85Z" fill="#16171A"/>
<path opacity="0.025" d="M302.116 905.315C303.632 905.315 304.86 904.086 304.86 902.57C304.86 901.054 303.632 899.825 302.116 899.825C300.6 899.825 299.372 901.054 299.372 902.57C299.372 904.086 300.6 905.315 302.116 905.315Z" fill="#16171A"/>
<path opacity="0.025" d="M141.11 687.545V686.63V685.715L140.195 686.63L141.11 687.545Z" fill="#16171A"/>
<path opacity="0.025" d="M107.262 622.58C108.718 622.58 110.114 622.001 111.144 620.972C112.173 619.942 112.751 618.546 112.751 617.09C112.767 615.538 112.22 614.034 111.21 612.856C110.201 611.678 108.798 610.906 107.262 610.685C105.564 610.685 103.935 611.359 102.735 612.561C101.534 613.762 100.859 615.391 100.859 617.09C101.08 618.625 101.852 620.028 103.029 621.038C104.207 622.048 105.711 622.595 107.262 622.58Z" fill="#16171A"/>
<path opacity="0.025" d="M92.6256 588.724C96.6674 588.724 99.944 585.447 99.944 581.404C99.944 577.362 96.6674 574.084 92.6256 574.084C88.5837 574.084 85.3071 577.362 85.3071 581.404C85.3071 585.447 88.5837 588.724 92.6256 588.724Z" fill="#16171A"/>
<path opacity="0.025" d="M79.8185 555.785C82.7299 555.785 85.5221 554.628 87.5808 552.569C89.6395 550.51 90.7961 547.717 90.7961 544.805C90.7961 541.893 89.6395 539.1 87.5808 537.041C85.5221 534.982 82.7299 533.825 79.8185 533.825C78.3769 533.825 76.9494 534.109 75.6175 534.661C74.2856 535.213 73.0754 536.022 72.0561 537.041C71.0367 538.061 70.2281 539.271 69.6764 540.603C69.1248 541.935 68.8408 543.363 68.8408 544.805C68.8408 547.717 69.9973 550.51 72.0561 552.569C74.1148 554.628 76.907 555.785 79.8185 555.785Z" fill="#16171A"/>
<path opacity="0.025" d="M67.9257 520.1C69.8656 520.145 71.7904 519.749 73.5547 518.941C75.319 518.133 76.8767 516.935 78.1103 515.437C79.3438 513.939 80.2209 512.18 80.6752 510.293C81.1295 508.406 81.1493 506.441 80.733 504.545C80.7378 502.903 80.4027 501.277 79.7487 499.771C79.0947 498.265 78.1359 496.911 76.9328 495.793C75.7297 494.676 74.3084 493.82 72.7582 493.279C71.208 492.738 69.5627 492.524 67.9257 492.65C64.7717 492.65 61.7468 493.903 59.5165 496.134C57.2862 498.365 56.0333 501.39 56.0333 504.545C55.4384 506.377 55.2972 508.326 55.6219 510.225C55.9466 512.123 56.7274 513.915 57.8973 515.445C59.0671 516.975 60.5909 518.198 62.3378 519.009C64.0846 519.82 66.0022 520.194 67.9257 520.1Z" fill="#16171A"/>
<path opacity="0.025" d="M58.7778 481.669C61.6893 481.669 64.4815 480.513 66.5402 478.454C68.5989 476.394 69.7555 473.602 69.7555 470.69C69.8823 469.173 69.6924 467.646 69.1978 466.206C68.7032 464.767 67.9148 463.445 66.8825 462.327C65.8502 461.208 64.5966 460.317 63.2014 459.709C61.8061 459.1 60.2997 458.789 58.7778 458.795C55.6237 458.795 52.5988 460.048 50.3686 462.278C48.1383 464.509 46.8853 467.535 46.8853 470.69C46.88 472.212 47.1913 473.718 47.7993 475.114C48.4073 476.51 49.2987 477.763 50.417 478.796C51.5353 479.828 52.8561 480.617 54.2954 481.112C55.7348 481.606 57.2612 481.796 58.7778 481.669Z" fill="#16171A"/>
<path opacity="0.025" d="M50.5447 440.495C51.5878 440.503 52.6207 440.288 53.574 439.864C54.5273 439.44 55.379 438.818 56.072 438.038C56.7651 437.258 57.2834 436.339 57.5923 435.343C57.9012 434.346 57.9936 433.295 57.8631 432.26C57.8631 430.318 57.0921 428.456 55.7197 427.084C54.3472 425.711 52.4857 424.94 50.5447 424.94C48.5107 424.927 46.5441 425.668 45.0239 427.02C43.5037 428.371 42.5375 430.238 42.3115 432.26C42.3115 434.444 43.1789 436.538 44.7229 438.083C46.2669 439.627 48.3611 440.495 50.5447 440.495Z" fill="#16171A"/>
<path opacity="0.025" d="M44.1412 399.32C44.8366 399.722 45.6253 399.933 46.4282 399.933C47.2311 399.933 48.0199 399.722 48.7153 399.32C48.7336 398.01 48.2825 396.736 47.4436 395.729C46.6047 394.722 45.4333 394.048 44.1412 393.83C42.6855 393.83 41.2894 394.409 40.2601 395.438C39.2307 396.468 38.6523 397.864 38.6523 399.32C39.4868 399.802 40.4333 400.056 41.3968 400.056C42.3603 400.056 43.3068 399.802 44.1412 399.32Z" fill="#16171A"/>
<path opacity="0.025" d="M1834.42 569.51C1836.11 569.51 1837.74 568.835 1838.94 567.634C1840.14 566.433 1840.82 564.804 1840.82 563.105C1840.6 561.569 1839.83 560.166 1838.65 559.157C1837.47 558.147 1835.97 557.599 1834.42 557.615C1833.69 557.615 1832.98 557.757 1832.31 558.033C1831.65 558.309 1831.04 558.713 1830.53 559.223C1830.02 559.733 1829.62 560.338 1829.34 561.004C1829.07 561.67 1828.93 562.384 1828.93 563.105C1828.93 563.105 1830.76 569.51 1834.42 569.51Z" fill="#16171A"/>
<path opacity="0.025" d="M1824.35 607.025C1825.39 606.624 1826.33 606.017 1827.13 605.242C1827.92 604.466 1828.56 603.537 1828.98 602.511C1829.41 601.486 1829.63 600.384 1829.62 599.272C1829.61 598.161 1829.37 597.063 1828.93 596.045C1827.43 595.613 1825.85 595.613 1824.35 596.045C1822.99 594.758 1821.19 594.041 1819.32 594.041C1817.45 594.041 1815.65 594.758 1814.29 596.045C1812.83 597.38 1811.97 599.238 1811.88 601.211C1811.8 603.185 1812.5 605.111 1813.83 606.567C1815.17 608.023 1817.02 608.89 1819 608.975C1820.97 609.061 1822.9 608.36 1824.35 607.025Z" fill="#16171A"/>
<path opacity="0.025" d="M1806.97 645.455C1809.64 645.455 1812.2 644.394 1814.09 642.507C1815.97 640.619 1817.03 638.059 1817.03 635.39C1817.03 632.72 1815.97 630.16 1814.09 628.273C1812.2 626.385 1809.64 625.325 1806.97 625.325C1804.3 625.325 1801.74 626.385 1799.86 628.273C1797.97 630.16 1796.91 632.72 1796.91 635.39C1796.91 638.059 1797.97 640.619 1799.86 642.507C1801.74 644.394 1804.3 645.455 1806.97 645.455Z" fill="#16171A"/>
<path opacity="0.025" d="M1790.5 681.139C1796.06 681.139 1800.57 676.633 1800.57 671.074C1800.57 665.516 1796.06 661.009 1790.5 661.009C1784.95 661.009 1780.44 665.516 1780.44 671.074C1780.44 676.633 1784.95 681.139 1790.5 681.139Z" fill="#16171A"/>
<path opacity="0.025" d="M234.42 895.25L235.335 894.335H234.42V895.25Z" fill="#16171A"/>
<path opacity="0.025" d="M185.021 835.775H185.936V834.86L185.021 835.775Z" fill="#16171A"/>
<path opacity="0.025" d="M162.151 804.665L163.066 803.75H162.151V804.665Z" fill="#16171A"/>
<path opacity="0.025" d="M53.289 607.025C54.6542 607.217 56.0461 607.02 57.3043 606.456C58.5625 605.892 59.6359 604.984 60.4007 603.837C61.1655 602.689 61.5907 601.349 61.6273 599.971C61.6638 598.592 61.3103 597.231 60.6074 596.045C59.5336 595.297 58.2566 594.896 56.9482 594.896C55.6397 594.896 54.3627 595.297 53.289 596.045C51.5906 596.045 49.9618 596.72 48.7609 597.921C47.56 599.122 46.8853 600.751 46.8853 602.45C47.4061 603.743 48.2856 604.861 49.42 605.671C50.5544 606.482 51.8968 606.951 53.289 607.025Z" fill="#16171A"/>
<path opacity="0.025" d="M40.4816 574.085C43.393 574.085 46.1853 572.928 48.244 570.869C50.3027 568.81 51.4592 566.017 51.4592 563.105C51.4592 561.663 51.1753 560.235 50.6236 558.903C50.0719 557.571 49.2633 556.361 48.244 555.341C47.2246 554.321 46.0144 553.513 44.6826 552.961C43.3507 552.409 41.9232 552.125 40.4816 552.125C37.6402 552.336 34.9691 553.561 32.9544 555.576C30.9396 557.591 29.7152 560.263 29.5039 563.105C29.5039 566.017 30.6604 568.81 32.7191 570.869C34.7779 572.928 37.5701 574.085 40.4816 574.085Z" fill="#16171A"/>
<path opacity="0.025" d="M28.5893 538.399C30.2262 538.526 31.8716 538.312 33.4217 537.771C34.9719 537.23 36.3933 536.374 37.5964 535.256C38.7995 534.139 39.7582 532.784 40.4122 531.278C41.0662 529.772 41.4014 528.147 41.3966 526.504C41.4014 524.862 41.0662 523.237 40.4122 521.731C39.7582 520.225 38.7995 518.87 37.5964 517.753C36.3933 516.635 34.9719 515.779 33.4217 515.238C31.8716 514.697 30.2262 514.483 28.5893 514.609C25.4352 514.609 22.4103 515.863 20.18 518.093C17.9498 520.324 16.6968 523.35 16.6968 526.504C16.6968 529.659 17.9498 532.685 20.18 534.916C22.4103 537.146 25.4352 538.399 28.5893 538.399Z" fill="#16171A"/>
<path opacity="0.025" d="M18.5263 501.799C25.0943 501.799 30.4187 496.474 30.4187 489.904C30.4187 483.335 25.0943 478.009 18.5263 478.009C11.9582 478.009 6.63379 483.335 6.63379 489.904C6.63379 496.474 11.9582 501.799 18.5263 501.799Z" fill="#16171A"/>
<path opacity="0.025" d="M10.2932 462.455C11.6953 462.461 13.0831 462.173 14.3677 461.611C15.6523 461.049 16.8052 460.225 17.7527 459.191C18.7001 458.157 19.4211 456.937 19.8694 455.608C20.3178 454.279 20.4835 452.871 20.356 451.475C20.356 448.805 19.2958 446.245 17.4087 444.358C15.5215 442.47 12.962 441.41 10.2932 441.41C8.89686 441.282 7.48935 441.448 6.16083 441.897C4.83232 442.345 3.61214 443.066 2.57856 444.014C1.54499 444.961 0.720812 446.115 0.15889 447.399C-0.403031 448.684 -0.690291 450.072 -0.684484 451.475C-0.684484 454.387 0.472045 457.18 2.53076 459.239C4.58947 461.298 7.38171 462.455 10.2932 462.455Z" fill="#16171A"/>
<path opacity="0.025" d="M2.97469 422.195C4.13737 422.202 5.28835 421.963 6.35194 421.493C7.41553 421.023 8.36755 420.334 9.14536 419.469C9.92317 418.605 10.5092 417.585 10.8647 416.478C11.2201 415.371 11.3372 414.201 11.208 413.045C11.208 410.861 10.3405 408.766 8.79648 407.222C7.25244 405.678 5.15828 404.81 2.97469 404.81C0.791094 404.81 -1.30307 405.678 -2.8471 407.222C-4.39113 408.766 -5.25857 410.861 -5.25857 413.045C-5.38779 414.201 -5.27077 415.371 -4.91528 416.478C-4.55978 417.585 -3.97388 418.605 -3.19607 419.469C-2.41826 420.334 -1.46624 421.023 -0.40265 421.493C0.66094 421.963 1.81201 422.202 2.97469 422.195Z" fill="#16171A"/>
<path opacity="0.025" d="M1900.28 492.65C1901.8 492.65 1903.03 491.421 1903.03 489.905C1903.03 488.389 1901.8 487.16 1900.28 487.16C1898.77 487.16 1897.54 488.389 1897.54 489.905C1897.54 491.421 1898.77 492.65 1900.28 492.65Z" fill="#16171A"/>
<path opacity="0.025" d="M1891.13 530.165C1892.65 530.165 1893.88 528.936 1893.88 527.42C1893.88 525.904 1892.65 524.675 1891.13 524.675C1889.62 524.675 1888.39 525.904 1888.39 527.42C1888.39 528.936 1889.62 530.165 1891.13 530.165Z" fill="#16171A"/>
<path opacity="0.025" d="M1880.16 565.849C1881.17 565.849 1881.98 565.03 1881.98 564.019C1881.98 563.009 1881.17 562.189 1880.16 562.189C1879.14 562.189 1878.33 563.009 1878.33 564.019C1878.33 565.03 1879.14 565.849 1880.16 565.849Z" fill="#16171A"/>
<path opacity="0.025" d="M1852.71 640.879C1854.02 640.898 1855.3 640.447 1856.3 639.607C1857.31 638.768 1857.98 637.597 1858.2 636.304C1857.37 635.823 1856.42 635.569 1855.46 635.569C1854.49 635.569 1853.55 635.823 1852.71 636.304C1852.02 635.903 1851.23 635.691 1850.42 635.691C1849.62 635.691 1848.83 635.903 1848.14 636.304C1848.14 636.905 1848.26 637.5 1848.49 638.055C1848.72 638.61 1849.05 639.115 1849.48 639.539C1849.9 639.964 1850.41 640.301 1850.96 640.531C1851.52 640.761 1852.11 640.879 1852.71 640.879Z" fill="#16171A"/>
<path opacity="0.025" d="M1821.61 707.674V706.759H1820.69L1821.61 707.674Z" fill="#16171A"/>
<path opacity="0.025" d="M1.14516 596.045C2.42109 596.173 3.70973 596.032 4.92747 595.63C6.14522 595.228 7.26486 594.574 8.21373 593.711C9.1626 592.849 9.91952 591.796 10.4354 590.622C10.9512 589.447 11.2145 588.178 11.2081 586.895C11.2081 584.226 10.1478 581.666 8.26067 579.778C6.37352 577.89 3.81399 576.83 1.14516 576.83C-1.36209 577.059 -3.69243 578.22 -5.386 580.083C-7.07957 581.946 -8.01327 584.377 -8.00284 586.895C-8.00284 589.322 -7.03904 591.649 -5.32345 593.365C-3.60785 595.081 -1.28106 596.045 1.14516 596.045Z" fill="#16171A"/>
<path opacity="0.025" d="M-10.7475 556.7C-7.83609 556.7 -5.04384 555.544 -2.98513 553.484C-0.92642 551.425 0.230196 548.632 0.230196 545.72C0.230196 542.808 -0.92642 540.015 -2.98513 537.956C-5.04384 535.897 -7.83609 534.74 -10.7475 534.74C-12.1496 534.735 -13.5374 535.022 -14.822 535.584C-16.1066 536.146 -17.2596 536.97 -18.2071 538.004C-19.1545 539.038 -19.8755 540.258 -20.3238 541.587C-20.7721 542.916 -20.9378 544.324 -20.8104 545.72C-20.82 548.481 -19.7898 551.143 -17.925 553.178C-16.0602 555.213 -13.4976 556.47 -10.7475 556.7Z" fill="#16171A"/>
</g>
</g>
</svg>
