<svg width="1920" height="911" viewBox="0 0 1920 911" fill="none" xmlns="http://www.w3.org/2000/svg">
<mask id="mask0_597_21027" style="mask-type:alpha" maskUnits="userSpaceOnUse" x="0" y="0" width="1920" height="911">
<rect width="1920" height="911" fill="#F6F6F6"/>
</mask>
<g mask="url(#mask0_597_21027)">
<g opacity="0.12">
<path d="M192.66 -140.294C228.962 -114.174 273.496 -97.1347 325.415 -89.8513C377.334 -82.5678 418.134 -90.4913 451.161 -113.807C480.589 -134.597 500.521 -164.486 521.615 -196.136C563.064 -258.284 605.907 -322.568 726.314 -318.896C779.887 -317.204 827.741 -298.594 877.122 -259.975C921.342 -225.455 960.897 -179.556 1002.77 -130.987C1045.56 -81.3406 1089.81 -29.9888 1142.73 13.4392C1202.88 62.78 1265.51 94.0682 1334.12 109.094C1508.42 147.243 1628.34 148.38 1711.57 112.63C1786.97 80.2306 1825.52 20.3182 1866.35 -43.1479C1885.09 -72.3077 1904.54 -102.549 1928.46 -132.038L1925.6 -136.938C1900.6 -106.576 1880.53 -75.3767 1860.81 -44.7697C1820.44 17.8879 1782.39 77.1747 1708.85 108.755C1627.26 143.816 1508.97 142.479 1336.39 104.705C1184.89 71.5963 1091.02 -37.5151 1008.04 -133.68C966.005 -182.425 926.323 -228.489 881.76 -263.289C831.379 -302.644 782.271 -321.752 727.191 -323.403C671.339 -325.142 626.647 -312.629 590.291 -285.354C558.426 -261.336 536.921 -229.055 516.09 -197.829C475.318 -136.679 436.81 -78.8949 326.967 -94.333C211.93 -110.487 155.453 -172.581 128.307 -221.805C110.497 -254.036 99.6747 -289.656 96.5452 -326.347L90.4488 -325.784C93.5757 -288.634 104.507 -252.562 122.529 -219.926C139.677 -188.486 163.639 -161.278 192.66 -140.294Z" fill="#DDDFDF"/>
<path d="M341.376 -132.581C392.709 -125.375 432.716 -133.165 463.728 -156.383C491.239 -177.013 508.652 -206.69 527.083 -238.013C563.561 -299.985 601.28 -364.095 722.287 -358.371C775.855 -355.866 823.415 -336.272 871.94 -296.702C915.385 -261.248 953.916 -214.481 994.707 -164.981C1036.22 -114.553 1079.17 -62.4419 1130.91 -18.0533C1189.66 32.3789 1251.26 64.8379 1319.17 81.1763C1499.99 124.67 1625.04 127.7 1712.63 90.6874C1792.09 57.1144 1833.7 -6.44974 1877.82 -73.7915C1892.07 -95.6391 1906.87 -118.174 1923.41 -140.521L1920.44 -145.6C1902.92 -122.108 1887.42 -98.4468 1872.36 -75.4301C1828.74 -8.82973 1787.55 54.0677 1710.01 86.8173C1624.1 123.115 1500.66 119.956 1321.53 76.8503C1171.71 40.8087 1084.42 -65.1223 1000.07 -167.518C959.027 -217.14 920.471 -264.104 876.682 -299.837C827.162 -340.236 778.313 -360.186 723.297 -362.805C667.081 -365.473 623.134 -353.637 588.969 -326.621C558.921 -302.886 539.936 -270.608 521.577 -239.417C485.915 -178.823 452.34 -121.643 343.064 -136.933C227.992 -153.096 169.581 -215.62 140.891 -265.173C122.097 -297.468 110.115 -333.269 105.683 -370.371L99.5418 -369.781C104.001 -332.21 116.108 -295.95 135.117 -263.236C153.205 -231.725 177.862 -204.476 207.415 -183.34C244.443 -156.954 289.44 -139.945 341.376 -132.581Z" fill="#DDDFDF"/>
<path d="M177.775 -97.2613C213.233 -71.2488 257.537 -54.3451 309.456 -47.0617C361.375 -39.7782 403.5 -47.6958 438.778 -71.2177C470.16 -92.1598 492.594 -122.341 516.317 -154.269C562.641 -216.505 610.441 -280.836 730.355 -279.188C783.805 -278.476 832.086 -260.625 882.23 -223.114C927.157 -189.488 967.7 -144.468 1010.62 -96.8158C1054.7 -47.9153 1100.26 2.66418 1154.42 45.1279C1215.99 93.3997 1279.65 123.517 1349.05 137.178C1516.76 170.172 1631.56 169.496 1710.3 135.053C1781.77 103.783 1817.27 47.4291 1854.85 -12.2451C1877.49 -48.2257 1901.26 -85.9764 1934.43 -121.685L1931.68 -126.383C1897.18 -89.8314 1872.95 -51.3656 1849.34 -13.8577C1812.24 45.0884 1777.18 100.763 1707.6 131.2C1630.43 164.936 1517.17 165.429 1351.15 132.764C1198 102.634 1101.21 -4.79833 1015.82 -99.5856C972.814 -147.429 932.055 -192.563 886.761 -226.456C835.551 -264.815 786.087 -282.994 731.032 -283.728C675.977 -284.462 630.084 -271.487 591.889 -243.917C558.274 -219.656 534.249 -187.372 511.08 -156.189C465.077 -94.3811 421.66 -36.0073 311.07 -51.4892C196.033 -67.6428 141.401 -129.406 115.887 -178.203C99.1177 -210.348 89.479 -245.732 87.6281 -281.942L81.5762 -281.404C83.382 -244.705 93.1012 -208.831 110.068 -176.24C126.261 -145.056 149.431 -118.029 177.775 -97.2613Z" fill="#DDDFDF"/>
<path d="M237.273 -269.308C275.605 -242.695 321.408 -225.437 373.252 -218.23C424.257 -211.072 462.143 -218.792 488.97 -241.874C512.731 -262.292 525.306 -291.511 538.595 -322.438C565.011 -383.899 592.344 -447.488 714.2 -437.696C767.77 -433.39 814.572 -412.062 861.336 -370.471C903.214 -333.229 939.607 -284.73 978.114 -233.384C1017.13 -181.374 1057.48 -127.594 1106.87 -81.2618C1162.96 -28.6097 1222.63 6.14885 1289.19 25.0506C1482.87 79.9072 1618.08 86.9039 1714.71 47.2174C1802.22 11.2797 1850.24 -59.9086 1901.18 -135.354L1914.73 -155.298L1911.7 -160.489C1906.3 -152.618 1901.03 -144.79 1895.78 -137.032C1845.38 -62.3539 1797.78 8.16753 1712.17 43.3305C1617.31 82.3077 1483.74 75.1334 1291.85 20.8213C1144.79 -20.8044 1062.78 -130.091 983.498 -235.783C944.828 -287.304 908.344 -335.96 866.122 -373.481C818.407 -415.927 770.542 -437.685 715.382 -442.141C658.472 -446.715 616.233 -436.118 586.285 -409.798C559.977 -386.6 546.196 -354.513 532.778 -323.449C519.713 -293.013 507.338 -264.272 484.524 -244.648C459.035 -222.77 424.202 -215.785 374.898 -222.706C259.79 -238.878 197.622 -302.178 165.661 -352.549C144.864 -385.063 130.552 -421.293 123.512 -459.242L117.425 -458.354C124.538 -419.968 138.996 -383.316 160.005 -350.411C180.051 -318.46 206.329 -290.877 237.273 -269.308Z" fill="#DDDFDF"/>
<path d="M252.091 -312.302C291.164 -285.551 337.269 -268.29 389.13 -261.002C427.378 -255.631 457.16 -258.52 480.095 -269.775C517.682 -288.221 530.665 -325.367 544.411 -364.7C555.076 -395.234 566.113 -426.826 589.611 -448.772C615.865 -473.14 655.21 -482.525 710.023 -477.174C827.762 -465.845 896.592 -369.445 969.521 -267.425C1007.28 -214.59 1046.34 -159.934 1094.56 -112.62C1149.35 -58.8482 1208.13 -22.9038 1274.18 -2.86506C1474.16 57.9204 1614.44 67.0808 1715.64 26.0134C1805.84 -10.6013 1857.05 -84.0439 1910.52 -162.294L1907.48 -167.484C1853.63 -88.7096 1802.76 -14.3252 1713.11 22.0555C1613.62 62.4528 1475.13 53.1745 1276.95 -7.10201C1131.12 -51.4215 1051.74 -162.462 974.984 -269.841C937.497 -322.265 902.095 -371.794 860.732 -410.208C813.939 -453.644 766.476 -476.358 711.375 -481.689C654.088 -487.214 612.839 -477.286 585.007 -451.303C560.566 -428.506 549.364 -396.426 538.501 -365.357C525.109 -327.011 512.46 -290.782 477.09 -273.423C455.54 -262.827 427.3 -260.18 390.716 -265.324C275.573 -281.505 211.507 -345.226 178.033 -395.823C156.242 -428.472 140.759 -464.913 132.384 -503.262L126.327 -502.271C134.77 -463.502 150.398 -426.657 172.403 -393.64C193.436 -361.614 220.502 -333.987 252.091 -312.302Z" fill="#DDDFDF"/>
<path d="M222.398 -226.307C260.012 -199.843 305.398 -182.732 357.273 -175.422C408.442 -168.241 447.359 -175.994 476.263 -199.119C501.888 -219.636 516.866 -249.06 532.73 -280.203C564.191 -341.973 596.734 -405.846 718.212 -398.086C771.814 -394.7 818.968 -374.208 866.642 -333.63C909.321 -297.277 946.794 -249.65 986.45 -199.216C1026.74 -148.01 1068.39 -95.0824 1118.93 -49.7557C1176.39 1.7957 1236.99 35.4131 1304.23 53.0155C1491.51 102.066 1621.65 107.073 1713.73 68.6967C1797.17 33.9674 1842.01 -33.3753 1889.45 -104.734C1899.06 -119.098 1908.6 -133.596 1918.93 -148.321L1915.92 -153.467C1904.81 -137.657 1894.32 -121.911 1884.04 -106.435C1837.05 -35.8484 1792.69 30.8236 1711.14 64.778C1620.77 102.391 1492.25 97.2777 1306.69 48.6594C1158.31 9.79302 1073.69 -97.7889 991.93 -201.912C952.147 -252.512 914.547 -300.304 871.524 -336.937C822.899 -378.37 774.545 -399.271 719.415 -402.753C662.858 -406.363 619.754 -395.14 587.668 -368.47C559.383 -344.955 543.041 -312.782 527.167 -281.603C511.539 -250.928 496.774 -221.96 472.065 -202.189C444.546 -180.084 408.598 -173.107 359.071 -180.048C243.964 -196.22 183.681 -259.121 153.425 -308.989C133.628 -341.382 120.481 -377.394 114.753 -414.924L108.658 -414.151C114.424 -376.165 127.706 -339.709 147.73 -306.918C166.75 -275.153 192.18 -247.699 222.398 -226.307Z" fill="#DDDFDF"/>
<path d="M88.5487 160.767C119.678 185.949 161.804 202.415 213.781 209.695C333.438 226.509 410.131 162.031 491.316 93.784C564.707 32.079 640.584 -31.7411 754.694 -41.502C807.348 -46 857.141 -33.4189 911.356 -1.83277C959.966 26.486 1005.83 66.2886 1054.37 108.437C1106.35 153.553 1160.08 200.226 1222.18 237.078C1292.87 279.023 1363.81 301.365 1439.06 305.395C1719.1 320.091 1752.49 251.666 1791.19 172.39C1820.98 111.358 1854 43.6314 2005.35 -0.503493L2003.01 -4.50816C1947.1 11.8679 1903.06 32.6431 1869.74 58.2671C1846.16 76.2199 1826.13 98.4139 1810.69 123.71C1839.84 69.7834 1878.55 13.0779 1989.07 -28.2419L1986.79 -32.1348C1946.7 -17.0905 1913.36 0.820387 1886.27 21.8989C1837.81 59.5895 1816.23 100.832 1795.36 140.726C1773.54 182.473 1752.81 221.987 1702.46 247.058C1646.22 275.095 1558.1 283.286 1425.15 272.842C1261.71 259.989 1150.46 159.607 1052.33 71.0712C1004.47 27.8681 959.242 -12.9407 910.872 -42.3905C856.035 -75.655 805.255 -89.4608 750.675 -85.6376C632.648 -77.4893 560.129 -12.6006 489.99 50.1451C416.178 116.211 346.434 178.605 231.348 162.42C139.14 149.458 79.4366 108.08 53.7138 39.5242C42.1094 7.53158 38.3697 -26.7827 42.8101 -60.5239L36.7125 -60.6804C32.1987 -26.3984 35.9744 8.46625 47.7227 40.9871C58.8519 71.215 78.1063 97.7858 103.366 117.774C135.223 143.071 177.726 159.617 229.698 166.99C348.392 183.646 419.375 120.136 494.516 52.9027C563.766 -9.05267 635.329 -73.1118 750.628 -81.0458C803.478 -84.697 853.061 -71.2422 906.71 -38.7244C954.772 -9.54482 999.813 31.1019 1047.5 74.1074C1098.21 119.725 1150.47 167.018 1211.07 204.841C1280.15 247.821 1349.74 271.553 1423.9 277.385C1558.41 287.97 1647.89 279.528 1705.49 250.785C1746.36 230.415 1768.11 201.418 1786.27 169.437L1785.34 171.334C1766.45 210.077 1748.57 246.661 1701.8 270.927C1649.56 298.04 1566.32 307.547 1440 300.791C1274.21 292.042 1159.94 192.858 1059.16 105.333C1010.4 63.0493 964.422 23.068 915.402 -5.49102C859.945 -37.7622 808.844 -50.6291 754.561 -45.989C637.923 -35.9804 561.14 28.5498 486.915 90.9835C407.139 158.046 331.564 221.509 215.559 205.292C123.372 192.316 64.7816 151.248 41.4102 83.1189C30.8974 51.1188 28.3481 17.0374 33.9835 -16.1705L27.8466 -16.3942C22.1008 17.3593 24.6711 52.0048 35.335 84.5409C45.4233 114.513 63.8903 140.966 88.5487 160.767Z" fill="#DDDFDF"/>
<path d="M118.197 74.8021C150.785 100.272 193.639 116.852 245.571 124.158C363.377 140.734 428.83 78.0874 498.129 11.7493C563.099 -50.2846 630.17 -114.629 746.533 -120.693C799.555 -123.484 848.916 -109.178 901.989 -75.6934C949.571 -45.6922 993.718 -4.16178 1040.55 39.7945C1089.82 86.0407 1140.65 133.904 1200.08 172.559C1267.59 216.607 1335.93 241.699 1409.02 249.274C1550.08 263.867 1644.62 256.752 1706.24 226.978C1762.25 199.92 1786.06 156.742 1811.25 111.01C1842.26 54.7301 1876.11 -6.69705 1974.38 -53.4962L1972.07 -57.4562C1947.49 -46.0276 1924.26 -31.8785 1902.84 -15.2744C1852.6 24.2059 1828.7 67.5876 1805.56 109.537C1780.81 154.497 1757.38 196.999 1703.21 223.17C1642.98 252.399 1549.86 259.13 1410.37 244.666C1249.16 227.868 1140.94 126.346 1045.44 36.6613C998.574 -7.51327 954.064 -49.1013 906.174 -79.3725C851.963 -113.724 801.333 -128.248 746.714 -125.363C627.397 -119.163 559.312 -53.9852 493.455 9.04798C425.5 74.0895 361.305 135.55 247.312 119.537C132.404 103.398 85.3903 43.3641 66.1517 -4.14975C53.5012 -36.1387 48.5829 -70.6627 51.7972 -104.912L45.752 -104.979C42.4738 -70.1967 47.4514 -35.1321 60.2801 -2.63658C72.3498 27.8708 92.3434 54.6037 118.197 74.8021Z" fill="#DDDFDF"/>
<path d="M148.037 -11.2442C182.059 14.4679 225.622 31.2345 277.554 38.5403C393.856 54.8546 448.64 -6.26515 506.638 -70.9769C562.48 -133.316 620.252 -197.746 738.507 -199.961C791.867 -201.149 840.642 -184.969 892.293 -149.45C938.565 -117.632 981.026 -74.3641 1026.04 -28.6274C1072.67 18.8965 1120.9 68.0118 1177.59 108.601C1242.05 154.731 1307.91 182.507 1379.13 193.156C1533.52 216.525 1638.08 212.504 1708.21 180.451C1771.85 151.357 1801.44 101.886 1832.71 49.3299C1861.21 1.54466 1891.7 -49.6015 1950.91 -93.8192L1948.45 -98.0253C1944.36 -95.0032 1940.38 -91.9531 1936.47 -88.8267C1882.97 -45.7507 1854.58 1.81806 1827.21 47.7976C1796.36 99.5133 1767.24 148.35 1705.43 176.615C1636.71 208.017 1533.79 211.745 1380.95 188.668C1224.04 164.907 1121.57 60.5328 1031.17 -31.567C986.057 -77.5181 943.461 -120.916 896.8 -152.988C844.042 -189.27 793.904 -205.674 739.038 -204.597C684.173 -203.52 637.609 -189.432 595.555 -161.375C558.539 -136.716 529.722 -104.512 501.778 -73.329C445.042 -10.1059 391.486 49.7249 279.289 34.0118C164.346 17.8637 113.527 -42.9766 91.1396 -91.2011C76.397 -123.225 69.1128 -158.176 69.8353 -193.423L63.725 -193.241C63.0163 -157.482 70.4128 -122.025 85.3597 -89.5314C99.4672 -58.6604 121.001 -31.764 148.037 -11.2442Z" fill="#DDDFDF"/>
<path d="M162.832 -54.2243C197.563 -28.3265 241.49 -11.5025 293.409 -4.21902C345.328 3.06447 388.938 -4.88126 426.308 -28.5756C459.688 -49.6957 484.703 -80.1862 511.169 -112.457C562.308 -174.777 615.199 -239.234 734.178 -239.441C787.571 -239.597 836.151 -222.672 887.066 -186.152C932.68 -153.408 974.107 -109.236 1018.14 -62.5632C1063.48 -14.3733 1110.38 35.4563 1165.83 76.9519C1228.83 124.177 1293.6 153.07 1363.85 165.305C1524.91 193.393 1634.58 190.976 1709 157.77C1776.54 127.595 1809.01 74.6921 1843.44 18.6637C1869.38 -23.5396 1896.89 -68.3085 1941.59 -109.028L1938.97 -113.503C1892.52 -71.8779 1864.78 -26.7336 1837.88 17.0549C1803.93 72.3196 1771.87 124.533 1706.2 153.853C1633.34 186.388 1525.14 188.603 1365.74 160.836C1210.79 133.833 1111.17 27.9342 1023.18 -65.3926C979.076 -112.293 937.409 -156.565 891.434 -189.518C839.545 -226.88 789.657 -244.09 734.672 -243.935C679.688 -243.779 633.437 -230.235 593.274 -202.383C557.954 -177.906 531.475 -145.658 505.879 -114.467C454.591 -51.9393 406.152 7.09009 294.844 -8.54208C179.865 -24.6995 127.148 -85.9608 103.182 -134.523C87.4193 -166.599 78.9561 -201.768 78.4007 -237.503L72.2889 -237.171C72.8271 -200.935 81.3866 -165.268 97.352 -132.734C112.58 -101.7 135.036 -74.7757 162.832 -54.2243Z" fill="#DDDFDF"/>
<path d="M133.161 31.7531C166.464 57.315 209.689 74.069 261.618 81.317C378.625 97.7592 438.658 35.9107 502.24 -29.5749C562.677 -91.8101 625.193 -156.192 742.553 -160.346C795.712 -162.287 844.841 -147.095 897.152 -112.654C944.052 -81.713 987.43 -39.342 1033.3 5.50176C1081.26 52.3691 1130.82 100.828 1188.84 140.458C1254.8 185.56 1321.89 211.954 1393.98 221.164C1541.79 240.214 1641.25 234.519 1707.06 203.586C1766.87 175.535 1793.53 129.219 1821.75 80.1854C1851.95 27.7112 1884.62 -29.0612 1961.62 -75.2512L1959.35 -79.1441C1945.5 -70.9645 1932.23 -61.8554 1919.62 -51.8795C1867.74 -10.5948 1841.55 34.8777 1816.24 78.8751C1788.46 127.135 1762.2 172.74 1704.25 199.914C1639.82 230.164 1541.86 235.458 1395.64 216.861C1236.61 196.561 1131.31 93.5693 1038.37 2.71718C992.26 -42.3781 948.808 -84.8256 901.52 -116.019C848.039 -151.278 797.611 -166.792 742.864 -164.793C688.856 -162.866 641.273 -148.212 597.429 -119.979C558.802 -95.0984 527.598 -62.9691 497.428 -31.8954C435.142 32.262 376.337 92.8214 263.306 76.9657C148.385 60.8045 99.4514 0.362944 78.6563 -47.5016C64.9569 -79.4998 58.8505 -114.235 60.8156 -148.987L54.8228 -148.964C52.7973 -113.682 58.9709 -78.4094 72.8595 -45.9121C85.9727 -15.2841 106.737 11.4598 133.161 31.7531Z" fill="#DDDFDF"/>
<path d="M2136.58 876.272L2132.54 877.626C2115.87 850.8 2095.15 826.723 2071.1 806.256C2033.72 774.065 1970.88 735.654 1884.47 736.801C1857 737.16 1837.58 742.148 1825.06 752.034C1804.52 768.278 1805.2 795.441 1805.94 824.176C1806.43 847.517 1807.16 871.524 1795.85 890.426C1782.99 911.952 1756.2 923.551 1713.95 926.001C1673.24 928.266 1633.32 917.312 1588.31 891.555C1548.51 868.775 1510.01 837.43 1469.21 804.254C1385.68 736.318 1299.34 666.038 1183.46 650.519C1026 629.442 924.735 638.059 864.692 677.696C810.527 713.328 794.188 771.795 776.976 833.909C751.003 927.286 721.546 1033 560.557 1100.17C497.721 1126.43 414.557 1133.24 313.333 1120.46C232.6 1110.24 140.193 1087.56 38.7186 1053.11C-69.2421 1016.06 -174.529 971.63 -276.397 920.14L-273.851 917.363C-172.186 968.751 -67.1117 1013.09 40.6306 1050.08C141.773 1084.44 233.792 1107.02 314.083 1117.21C414.268 1129.89 496.472 1123.18 558.397 1097.32C717.544 1030.8 746.673 925.88 772.54 833.245C790.026 770.625 806.41 711.547 861.735 675.027C922.873 634.69 1025.34 625.819 1184.19 647.084C1236.68 654.107 1288.21 673.191 1341.66 705.33C1388.74 733.702 1431.25 768.277 1472.36 801.716C1551.72 866.267 1626.73 927.229 1713.6 922.4C1754.09 920.166 1779.65 909.207 1791.76 888.932C1802.64 870.758 1802.05 847.075 1801.46 824.179C1800.71 794.714 1799.99 766.838 1821.83 749.574C1835.21 738.996 1855.68 733.67 1884.36 733.296C1922.61 732.639 1960.57 739.941 1995.84 754.74C2024.46 766.912 2050.98 783.517 2074.44 803.944C2115.71 839.593 2136.39 875.909 2136.58 876.272Z" fill="#DDDFDF"/>
<path d="M2131.13 843.863L2127.04 845.154C2111.43 818.406 2091.61 794.348 2068.35 773.907C2032.13 741.64 1970.81 703.454 1884.39 704.601C1847.39 705.065 1824.44 713.872 1812.14 732.242C1801.12 748.711 1800.04 770.495 1798.86 793.583C1797.69 817.185 1796.47 841.614 1783.91 860.948C1769.61 882.977 1742.44 895.149 1700.56 898.142C1660.07 901.05 1620.06 890.781 1574.65 865.848C1534.5 843.816 1495.43 813.195 1454.1 780.783C1369.21 714.293 1281.42 645.575 1165.42 632.099C1014.05 614.541 916.901 624.129 859.731 662.247C808.121 696.668 793.115 752.076 777.247 810.721C752.778 900.84 725.123 1003.08 563.41 1069.17C497.419 1096.18 412.49 1101.21 311.024 1084.25C230.101 1070.8 138.391 1043.19 38.607 1002.46C-67.6927 958.627 -170.531 906.831 -269.031 847.513L-266.207 844.905C-167.91 904.07 -65.291 955.739 40.7772 999.471C140.221 1040.08 231.498 1067.47 312.043 1080.92C412.445 1097.71 496.316 1092.75 561.367 1066.19C721.145 1000.87 748.682 899.483 772.901 810.078C788.927 750.834 804.117 694.899 856.851 659.712C915.082 620.879 1013.38 611.03 1166.14 628.753C1218.7 634.859 1270.57 653.033 1324.68 684.333C1372.31 711.853 1415.52 745.684 1457.28 778.396C1498.5 810.683 1537.48 841.179 1577.31 863.084C1621.81 887.516 1660.88 897.59 1700.25 894.74C1789.8 888.302 1792.15 840.096 1794.49 793.463C1795.69 769.989 1796.8 747.842 1808.25 730.702C1821.2 711.332 1846.22 701.659 1884.43 701.181C1922.4 700.5 1960.09 707.8 1995.06 722.611C2023.14 734.722 2049.07 751.322 2071.83 771.76C2111.64 807.245 2130.94 843.5 2131.13 843.863Z" fill="#DDDFDF"/>
<path d="M2125.68 811.455L2121.54 812.684C2121.39 812.303 2103.6 776.547 2065.59 741.535C2016.46 695.81 1951.46 671.001 1884.36 672.361C1847.18 672.863 1823.47 681.814 1809.73 700.526C1797.42 717.307 1794.67 739.546 1791.76 763.057C1788.81 786.987 1785.73 811.723 1771.92 831.489C1756.21 854.011 1728.5 866.706 1687.21 870.346C1646.95 873.93 1606.9 864.376 1561.12 840.257C1520.62 818.919 1480.99 789.046 1439.04 757.431C1352.88 692.354 1263.58 625.168 1147.36 613.825C1002.11 599.744 909.054 610.095 854.729 646.76C805.695 679.881 791.913 732.08 777.415 787.544C754.573 874.522 728.659 973.122 566.252 1038.06C497.038 1065.71 410.37 1069.04 308.613 1047.91C227.464 1031.06 136.569 998.681 38.4191 951.676C-66.2593 900.993 -166.627 841.851 -261.684 774.839L-258.605 772.408C-163.759 839.269 -63.6188 898.287 40.8196 948.872C138.579 995.697 229.092 1027.92 309.829 1044.68C410.447 1065.57 496.018 1062.36 564.185 1035.09C724.705 970.901 750.373 873.176 773.03 786.942C787.73 730.999 801.62 678.138 851.821 644.371C907.184 606.999 1001.29 596.262 1147.99 610.595C1200.64 615.718 1252.86 632.983 1307.64 663.33C1355.86 689.933 1399.69 723.046 1442.04 755.082C1483.84 786.589 1523.33 816.354 1563.52 837.533C1608.39 861.151 1647.51 870.533 1686.61 867.05C1775.29 859.259 1781.35 810.254 1787.22 762.861C1790.18 738.955 1792.97 716.379 1805.73 698.973C1820.13 679.365 1845.8 669.559 1884.2 669.067C1921.92 668.276 1959.38 675.549 1994.06 690.401C2021.59 702.448 2046.9 719.045 2068.92 739.497C2091.72 760.151 2110.9 784.472 2125.68 811.455Z" fill="#DDDFDF"/>
<path d="M2120.23 779.046L2116.05 780.18C2102.51 753.627 2084.48 729.62 2062.74 709.222C2028.95 677.088 1970.58 639.059 1884.19 640.197C1802.24 641.269 1793.59 685.683 1784.44 732.689C1779.82 756.856 1774.82 781.949 1759.79 802.138C1742.67 825.098 1714.52 838.36 1673.73 842.627C1633.76 846.86 1593.62 837.991 1547.5 814.669C1506.69 794.071 1466.55 764.952 1424.04 734.109C1336.38 670.508 1245.72 604.736 1129.25 595.544C990.056 584.637 901.104 595.776 849.643 631.115C803.152 662.921 790.688 712.31 777.423 764.372C756.183 848.138 732.089 943.093 569.014 1006.95C496.572 1035.31 408.139 1036.85 306.148 1011.56C224.766 991.363 134.627 954.14 38.271 900.851C-64.8512 843.267 -162.743 776.78 -254.287 702.148L-250.987 699.878C-159.614 774.348 -61.9033 840.686 41.0274 898.132C137.094 951.15 226.827 988.225 307.755 1008.29C408.599 1033.33 495.886 1031.83 567.194 1003.92C728.349 940.794 752.197 846.713 773.38 763.671C786.744 710.924 799.38 661.12 846.951 628.43C899.484 592.479 989.418 580.925 1130 591.997C1182.88 596.118 1235.41 612.482 1290.86 641.91C1339.62 667.798 1384.23 700.164 1427.36 731.453C1469.72 762.188 1509.72 791.223 1550.23 811.662C1595.43 834.483 1634.58 843.206 1673.45 839.08C1761.25 829.88 1770.93 780.136 1780.33 732.119C1785.1 707.764 1789.57 684.757 1803.63 667.086C1819.51 647.151 1845.94 637.201 1884.37 636.724C1921.81 635.916 1958.98 643.194 1993.34 658.061C2020.37 670.035 2045.11 686.617 2066.46 707.067C2088.42 727.766 2106.61 752.121 2120.23 779.046Z" fill="#DDDFDF"/>
<path d="M2114.79 746.605L2110.57 747.676C2098.08 721.224 2080.93 697.238 2059.93 676.868C2027.39 644.815 1970.45 606.854 1884.12 607.998C1801.66 609.094 1789.71 654.397 1777.06 702.396C1770.59 726.893 1763.92 752.223 1747.62 772.716C1729.2 796.102 1700.57 809.893 1660.38 814.775C1620.68 819.641 1580.52 811.455 1534.03 788.972C1492.9 768.977 1452.28 740.684 1409.24 710.581C1324.31 651.268 1228.04 584.026 1111.19 577.053C977.988 569.346 893.271 581.412 844.472 615.392C800.519 645.939 789.25 692.265 777.304 741.3C767.387 782.045 757.144 824.181 728.657 865.009C696.121 911.653 644.779 947.976 571.724 975.995C496.091 1005.02 405.826 1004.66 303.594 975.275C221.95 951.793 132.628 909.673 37.8616 850.202C-123.348 748.997 -245.87 630.837 -247.087 629.663L-243.588 627.564C-242.372 628.738 -120.098 746.664 40.7508 847.624C135.312 906.684 224.21 948.608 305.353 971.977C406.437 1001.11 495.433 1001.39 569.931 972.816C731.697 910.767 753.71 820.364 773.092 740.581C785.173 690.955 796.569 644.096 841.646 612.784C891.35 578.253 977.117 565.882 1111.61 573.87C1164.57 577.017 1217.61 592.41 1273.74 620.909C1323.1 645.984 1368.41 677.63 1412.24 708.255C1455.15 738.195 1495.64 766.508 1536.43 786.224C1581.95 808.224 1621.14 816.28 1659.73 811.528C1746.59 800.945 1759.89 750.519 1772.75 701.768C1779.31 676.939 1785.49 653.494 1800.89 635.492C1818.21 615.215 1845.45 605.127 1884.14 604.611C1921.31 603.747 1958.23 611.01 1992.3 625.892C2018.8 637.791 2042.94 654.368 2063.56 674.828C2084.79 695.498 2102.15 719.809 2114.79 746.605Z" fill="#DDDFDF"/>
<path d="M2109.3 714.215L2105.07 715.206C2093.61 688.871 2077.34 664.902 2057.1 644.523C2025.75 612.545 1970.31 574.682 1883.97 575.826C1801.01 576.946 1785.72 623.212 1769.52 672.244C1761.3 696.9 1752.92 722.588 1735.42 743.553C1715.56 767.36 1686.61 781.619 1646.88 787.145C1607.15 792.67 1567.32 785.172 1520.48 763.414C1479.1 744.27 1437.98 716.619 1394.43 687.349C1308.16 629.291 1210.31 563.495 1092.99 558.912C965.869 553.913 885.26 566.709 839.288 599.189C797.848 628.485 787.695 671.967 777.153 717.917C768.116 757.013 758.774 797.412 730.868 836.808C699.004 881.826 647.878 917.123 574.52 944.686C495.633 974.34 403.574 972.348 301.08 938.65C219.33 911.8 130.622 864.886 37.6256 799.139C-120.598 687.399 -238.441 558.161 -239.574 556.848L-235.934 554.913C-234.763 556.185 -117.143 685.18 40.8405 796.711C133.538 862.162 221.743 908.884 303.063 935.594C404.364 968.84 495.1 970.913 572.765 941.683C735.164 880.617 755.237 793.902 772.931 717.39C783.726 670.807 793.911 626.826 836.44 596.669C883.331 563.527 964.99 550.425 1093.41 555.488C1146.53 557.547 1200 571.995 1256.85 599.581C1306.86 623.849 1352.89 654.799 1397.43 684.76C1440.81 713.954 1481.8 741.489 1522.86 760.482C1568.69 781.694 1607.87 789.052 1646.18 783.699C1732.03 771.783 1748.91 720.715 1765.24 671.334C1773.62 645.999 1781.52 622.083 1798.27 603.718C1817.09 583.106 1845.16 572.928 1884.03 572.317C1922.9 571.706 1959.09 578.948 1991.35 593.585C2017.31 605.428 2040.83 622.002 2060.72 642.459C2081.23 663.155 2097.7 687.489 2109.3 714.215Z" fill="#DDDFDF"/>
<path d="M2103.85 681.804L2099.58 682.7C2089.13 656.506 2073.75 632.564 2054.27 612.174C2024.17 580.278 1970.17 542.474 1883.86 543.61C1800.28 544.66 1781.63 592.083 1761.82 642.151C1751.94 667.147 1741.75 692.989 1723.1 714.294C1701.95 738.495 1672.57 753.265 1633.46 759.373C1594.35 765.481 1554.21 758.691 1507.1 737.872C1465.46 719.443 1423.89 692.528 1379.87 664.028C1292.11 607.139 1192.73 542.852 1074.9 540.701C953.987 538.389 877.397 551.895 834.167 583.013C795.226 611.092 786.476 651.704 776.984 694.78C768.841 732.195 760.433 770.871 733.156 808.819C702.02 852.217 650.945 886.549 577.435 913.628C495.284 943.889 401.49 940.049 298.682 902.195C216.699 871.998 128.818 820.209 37.4582 748.264C-117.95 625.889 -231.106 485.598 -232.242 484.205L-228.445 482.401C-227.334 483.803 -114.378 623.843 40.7171 745.955C131.698 817.607 219.162 869.144 300.674 899.163C402.199 936.544 494.702 940.4 575.558 910.588C738.623 850.521 756.684 767.521 772.635 694.273C782.141 650.651 791.105 609.446 831.162 580.578C875.301 548.774 952.724 534.961 1075.24 537.279C1128.59 538.279 1182.57 551.813 1240.1 578.39C1290.75 601.828 1337.54 632.12 1382.8 661.432C1426.65 689.833 1468.04 716.681 1509.4 734.943C1555.49 755.328 1594.67 762.036 1632.7 756.058C1717.52 742.793 1737.91 691.158 1757.65 641.197C1767.86 615.323 1777.52 590.895 1795.63 572.191C1815.96 551.186 1844.86 540.758 1883.9 540.246C1922.93 539.734 1958.71 546.861 1990.41 561.459C2015.88 573.22 2038.84 589.787 2058.02 610.251C2077.74 630.945 2093.3 655.237 2103.85 681.804Z" fill="#DDDFDF"/>
<path d="M2098.4 649.394L2094.08 650.227C2084.69 624.162 2070.2 600.227 2051.46 579.818C2022.57 547.989 1970.02 510.276 1883.74 511.427C1799.58 512.528 1777.43 560.943 1753.97 612.191C1742.44 637.392 1730.51 663.496 1710.73 685.11C1688.26 709.609 1658.64 724.9 1620.04 731.602C1581.44 738.304 1541.09 732.243 1493.83 712.207C1451.98 694.507 1410.06 668.261 1365.46 640.541C1276.29 584.957 1175.25 521.958 1056.96 522.301C941.857 522.633 869.394 536.701 828.877 566.522C792.436 593.463 784.768 631.434 776.636 671.521C769.42 707.27 761.968 744.215 735.353 780.73C704.897 822.525 654.191 855.802 580.252 882.525C494.805 913.379 399.228 907.708 296.1 865.538C213.941 831.999 126.825 775.388 37.1732 697.216C-115.338 564.285 -223.774 412.955 -224.897 411.449L-221.006 409.827C-219.94 411.327 -111.69 562.373 40.5085 695.041C129.832 772.982 216.505 829.271 298.232 862.59C400.039 904.111 494.235 909.777 578.317 879.399C742.044 820.25 758.023 740.991 772.167 671.059C780.339 630.199 788.146 591.799 825.72 564.116C867.099 533.626 940.564 519.271 1056.91 518.94C1110.51 518.768 1164.92 531.221 1223.26 556.963C1274.59 579.609 1322.14 609.243 1368.11 637.914C1412.44 665.546 1454.31 691.649 1495.84 709.223C1542.2 728.805 1581.34 734.856 1619.1 728.244C1702.78 713.642 1726.71 661.568 1749.79 611.03C1773.74 558.626 1796.41 509.127 1883.71 507.953C1922.67 507.444 1958.23 514.593 1989.38 529.152C2014.34 540.859 2036.71 557.437 2055.17 577.913C2074.16 598.646 2088.86 622.942 2098.4 649.394Z" fill="#DDDFDF"/>
<path d="M2092.92 616.995L2088.6 617.724C2080.23 591.818 2066.64 567.905 2048.66 547.465C2020.99 515.725 1969.9 478.095 1883.62 479.246C1798.79 480.352 1773.11 529.904 1745.88 582.378C1732.7 607.807 1718.99 634.135 1698.23 656.028C1674.55 680.974 1644.56 696.59 1606.58 703.874C1568.06 711.304 1527.97 705.797 1480.38 686.615C1438.31 669.667 1395.88 644.152 1350.95 617.173C1260.33 562.773 1157.61 501.094 1038.94 504.066C929.756 506.815 861.299 521.407 823.369 550.032C789.337 575.734 782.811 610.932 776.047 648.569C769.687 682.678 763.345 717.862 737.406 752.911C707.803 792.987 657.313 825.238 583.057 851.537C494.337 882.975 396.945 875.459 293.649 829.16C211.257 792.273 124.943 730.797 36.9607 646.442C-112.606 502.936 -216.372 340.505 -217.437 338.789L-213.461 337.324C-212.431 338.945 -108.871 500.966 40.4215 644.167C127.999 728.157 213.96 789.412 295.864 826.073C397.905 871.753 493.875 879.225 581.214 848.296C745.595 790.042 759.444 714.541 771.653 647.944C778.615 609.963 785.193 574.098 820.299 547.567C858.98 518.341 928.407 503.445 1038.76 500.645C1092.63 499.293 1147.55 510.695 1206.68 535.521C1258.68 557.431 1306.94 586.481 1353.79 614.508C1398.5 641.293 1440.81 666.748 1482.54 683.602C1529.12 702.398 1568.23 707.808 1605.6 700.614C1688.16 684.747 1715.52 632.06 1741.82 581.172C1769.61 527.678 1795.8 477.018 1883.62 475.867C1922.6 475.349 1957.88 482.467 1988.47 497.02C2012.89 508.667 2034.64 525.24 2052.36 545.696C2070.61 566.441 2084.41 590.707 2092.92 616.995Z" fill="#DDDFDF"/>
<path d="M2087.57 584.632L2083.21 585.266C2075.87 559.538 2063.16 535.656 2045.93 515.188C2019.5 483.507 1969.83 445.897 1883.62 447.101C1798.07 448.253 1768.78 499.002 1737.78 552.757C1707.75 604.805 1676.75 658.617 1593.33 676.261C1555.17 684.289 1515.13 679.463 1467.31 661.042C1424.92 644.618 1382.09 619.869 1336.74 593.562C1244.58 540.27 1140.12 479.881 1020.77 485.7C917.449 490.721 852.955 505.8 817.771 533.143C786.263 557.699 780.882 590.501 775.287 625.221C770.045 657.593 764.645 691.079 739.439 724.668C710.651 763.064 660.419 794.329 585.845 820.204C517.821 843.828 445.505 844.865 370.747 823.416C298.422 802.556 222.876 760.256 146.183 697.668C84.9165 647.674 22.7787 584.673 -38.5456 510.45C-101.956 433.575 -159.326 351.912 -210.142 266.189L-206.119 264.707C-155.405 350.311 -98.1189 431.845 -34.7759 508.575C61.242 624.872 209.848 773.328 372.33 820.156C445.837 841.363 517.013 840.314 583.885 817.087C748.953 759.743 760.529 688.053 770.756 624.808C776.428 589.493 781.833 556.168 814.509 530.749C850.517 502.778 915.939 487.357 1020.43 482.283C1074.54 479.623 1130.02 489.98 1189.95 513.89C1242.7 535.015 1291.78 563.325 1339.3 590.809C1384.47 616.914 1427.13 641.588 1469.07 657.744C1515.82 675.669 1554.89 680.526 1591.91 672.701C1673.26 655.603 1703.93 602.508 1733.48 551.206C1765.04 496.326 1794.95 444.755 1883.33 443.531C1922.32 443.013 1957.32 450.123 1987.39 464.676C2011.34 476.229 2032.52 492.796 2049.49 513.255C2067.09 534.087 2080.07 558.414 2087.57 584.632Z" fill="#DDDFDF"/>
<path d="M2082 552.187L2077.63 552.717C2071.31 527.164 2059.5 503.293 2043.02 482.765C2006.33 436.804 1952.62 413.928 1883.39 414.851C1797.06 415.996 1764.08 468.047 1729.14 523.041C1696 575.394 1661.7 629.502 1579.78 648.351C1541.91 656.892 1502 652.832 1453.98 635.212C1411.55 619.616 1368.36 595.569 1322.65 570.043C1228.91 517.844 1122.68 458.674 1002.72 467.473C905.14 474.627 844.504 490.123 811.887 516.143C782.672 539.584 778.561 569.89 774.185 601.971C770.021 632.649 765.721 664.35 741.4 696.451C713.513 733.11 663.572 763.402 588.732 788.997C518.897 812.694 445.57 812.967 370.838 789.831C297.589 767.123 221.735 721.637 145.6 654.546C84.7762 600.982 23.5844 533.577 -36.3264 454.238C-98.4579 371.776 -154.022 284.566 -202.508 193.41L-198.373 192.157C-149.964 283.167 -94.487 370.238 -32.4539 452.568C61.3736 576.864 207.816 735.74 372.555 786.712C446.151 809.481 518.29 809.213 587.007 785.928C752.664 729.232 761.786 661.447 769.929 601.646C774.375 568.945 778.572 538.066 808.828 513.782C842.224 487.016 903.717 471.204 1002.45 463.95C1056.87 459.965 1112.87 469.238 1173.63 492.191C1227.04 512.396 1277.03 540.236 1325.34 567.158C1370.91 592.52 1413.82 616.536 1456.03 631.97C1502.95 649.239 1541.95 653.335 1578.63 644.935C1658.69 626.634 1692.55 573.231 1725.28 521.54C1760.8 465.445 1794.36 412.476 1883.47 411.309C1922.45 410.791 1957.18 417.871 1986.67 432.393C2010.12 443.885 2030.72 460.458 2046.96 480.908C2063.68 501.841 2075.63 526.165 2082 552.187Z" fill="#DDDFDF"/>
<path d="M2076.53 519.788L2072.15 520.238C2066.86 494.875 2055.95 471.022 2040.22 450.435C2005.29 404.556 1952.47 381.756 1883.3 382.662C1796.13 383.816 1759.35 437.214 1720.43 493.753C1684.24 546.338 1646.83 600.67 1566.36 620.582C1528.92 629.856 1489.01 626.31 1440.84 609.449C1398.22 594.517 1354.71 571.154 1308.62 546.419C1213.27 495.217 1105.21 437.212 984.689 449.191C892.752 458.32 835.974 474.233 805.99 499.255C779.104 521.677 776.236 549.633 773.266 579.222C770.246 608.235 767.138 638.253 743.476 668.841C716.528 703.721 666.849 732.889 591.602 758.039C520.127 781.907 446.02 781.603 371.326 757.102C296.632 732.6 220.891 684.045 145.243 612.476C84.8195 555.305 24.5151 483.409 -34.0261 398.834C-94.9354 310.59 -148.765 217.663 -195.01 120.925L-190.84 119.767C-144.669 216.37 -90.9159 309.163 -30.0859 397.274C61.6301 529.782 206.042 699.221 373.108 754.012C446.657 778.124 519.586 778.457 589.758 755.014C756.196 699.409 762.869 635.473 768.742 579.05C775.069 518.431 780.524 466.083 984.191 445.859C1038.95 440.395 1095.41 448.497 1157.04 470.565C1211.21 489.976 1262.05 517.26 1311.16 543.562C1357.02 568.329 1400.53 591.692 1442.74 606.372C1489.86 622.888 1528.73 626.387 1565.05 617.388C1643.69 597.935 1680.67 544.218 1716.52 492.246C1756.09 434.763 1793.44 380.481 1883.27 379.291C1922.29 378.788 1956.72 385.869 1985.65 400.352C2008.59 411.791 2028.58 428.373 2044.05 448.806C2060.04 469.744 2071.14 493.999 2076.53 519.788Z" fill="#DDDFDF"/>
</g>
</g>
</svg>
