<svg width="236" height="52" viewBox="0 0 236 52" fill="none" xmlns="http://www.w3.org/2000/svg">
<path d="M42.6431 14.6175C42.7277 14.9575 42.7589 15.3085 42.7354 15.658C42.711 16.1236 42.5933 16.5797 42.3892 16.9999C42.185 17.42 41.8985 17.7958 41.5462 18.1052C41.194 18.4147 40.7831 18.6517 40.3374 18.8024C39.8918 18.9532 39.4203 19.0146 38.9504 18.9832C38.4801 18.9591 38.0193 18.8426 37.5949 18.6405C37.1705 18.4384 36.7909 18.1547 36.4783 17.806C36.1657 17.4573 35.9263 17.0505 35.7741 16.6093C35.6218 16.1681 35.5597 15.7013 35.5914 15.2361C35.6158 14.7705 35.7335 14.3144 35.9376 13.8942C36.1418 13.474 36.4283 13.0983 36.7806 12.7888C37.1328 12.4794 37.5438 12.2424 37.9894 12.0916C38.4351 11.9409 38.9066 11.8794 39.3764 11.9108C39.7285 11.9293 40.0756 12.0004 40.4061 12.1217C37.3136 9.22977 33.3354 7.44118 29.1008 7.03888L28.3907 6.98262C24.364 6.74182 20.3638 7.77064 16.9646 9.92128C14.4098 11.528 12.2771 13.7127 10.7425 16.2954C9.20778 18.8781 8.31498 21.7849 8.13765 24.7762C8.13765 25.0152 8.13765 25.2542 8.13765 25.4792C8.03284 30.3553 9.82793 35.0842 13.1506 38.6851C16.4733 42.2861 21.0686 44.4827 25.9833 44.8194H26.0898C29.2698 45.0054 32.4464 44.4042 35.3328 43.07C38.2192 41.7357 40.7243 39.7106 42.6218 37.1775C44.8371 34.2234 46.1306 30.692 46.3429 27.0188V26.9204C46.6005 22.5173 45.2913 18.1641 42.6431 14.6175ZM26.5727 37.29C24.2221 37.1537 21.9709 36.3044 20.1247 34.8575C19.9213 35.0956 19.6644 35.2832 19.3746 35.4052C19.0848 35.5273 18.7702 35.5805 18.4559 35.5606C17.9138 35.528 17.4069 35.284 17.0462 34.8821C16.6855 34.4802 16.5004 33.9531 16.5314 33.4163C16.5504 33.1052 16.6425 32.8028 16.8003 32.533C16.9581 32.2633 17.1773 32.0338 17.4404 31.8627C16.2041 29.8744 15.6188 27.5564 15.7645 25.2261C15.8541 23.7317 16.2403 22.2695 16.9009 20.923C17.5616 19.5764 18.4837 18.3719 19.6147 17.3782C20.7457 16.3846 22.0633 15.6212 23.4924 15.1319C24.9214 14.6425 26.4339 14.4366 27.9433 14.5261C29.4537 14.614 30.9318 14.9956 32.2932 15.6491C33.6545 16.3026 34.8725 17.2153 35.8775 18.335C36.8825 19.4546 37.6549 20.7593 38.1504 22.1745C38.646 23.5897 38.8551 25.0877 38.7657 26.5829C38.6761 28.0788 38.2895 29.5426 37.6281 30.8905C36.9667 32.2384 36.0433 33.444 34.9109 34.4384C33.7785 35.4328 32.4592 36.1965 31.0285 36.6858C29.5978 37.1751 28.0837 37.3804 26.5727 37.29Z" fill="#E00A0A"/>
<path d="M34.1784 26.2805C34.1249 27.1803 33.8929 28.0608 33.4957 28.8717C33.0984 29.6827 32.5436 30.4082 31.8631 31.0069C31.1825 31.6056 30.3895 32.0656 29.5293 32.3608C28.6691 32.656 27.7586 32.7805 26.8498 32.7273C25.0136 32.6186 23.2962 31.7926 22.0751 30.4308C20.854 29.0689 20.2291 27.2828 20.3378 25.465C20.4494 23.6498 21.2836 21.9525 22.6574 20.7453C24.0312 19.5381 25.8326 18.9196 27.6664 19.0253C28.5753 19.0782 29.4647 19.3079 30.2838 19.7011C31.103 20.0944 31.8359 20.6436 32.4406 21.3174C33.0453 21.9911 33.5101 22.7762 33.8082 23.6278C34.1064 24.4794 34.2322 25.3808 34.1784 26.2805Z" fill="#E00A0A"/>
<path d="M18.5126 51.4137C18.1831 51.7059 17.7761 51.8989 17.3395 51.9698C16.903 52.0408 16.455 51.9869 16.0484 51.8144C12.2777 50.2085 8.90102 47.8166 6.14859 44.8017C3.39617 41.7869 1.33268 38.22 0.0987763 34.3442C-0.0309656 33.9174 -0.0329355 33.4624 0.0930984 33.0344C0.219132 32.6065 0.467766 32.2238 0.80891 31.9329C1.09888 31.6767 1.4488 31.4962 1.827 31.4077C2.20519 31.3192 2.59971 31.3255 2.97483 31.426C3.34995 31.5266 3.69383 31.7181 3.9753 31.9834C4.25677 32.2487 4.46696 32.5793 4.58683 32.9452C5.61835 36.1862 7.34366 39.1689 9.64513 41.69C11.9466 44.2111 14.7701 46.2112 17.9231 47.5541C18.2813 47.7129 18.5935 47.9582 18.831 48.2676C19.0684 48.5769 19.2236 48.9404 19.2823 49.3245C19.341 49.7087 19.3012 50.1013 19.1667 50.4663C19.0323 50.8314 18.8073 51.1571 18.5126 51.4137Z" fill="#E00A0A"/>
<path d="M34.1784 26.2805C34.1249 27.1803 33.8929 28.0608 33.4957 28.8717C33.0984 29.6827 32.5436 30.4082 31.8631 31.0069C31.1825 31.6056 30.3895 32.0656 29.5293 32.3608C28.6691 32.656 27.7586 32.7805 26.8498 32.7273C25.0136 32.6186 23.2962 31.7926 22.0751 30.4308C20.854 29.0689 20.2291 27.2828 20.3378 25.465C20.4494 23.6498 21.2836 21.9525 22.6574 20.7453C24.0312 19.5381 25.8326 18.9196 27.6664 19.0253C28.5753 19.0782 29.4647 19.3079 30.2838 19.7011C31.103 20.0944 31.8359 20.6436 32.4406 21.3174C33.0453 21.9911 33.5101 22.7762 33.8082 23.6278C34.1064 24.4794 34.2322 25.3808 34.1784 26.2805Z" fill="white"/>
<path d="M53.877 20.3327C53.5837 20.5915 53.2293 20.7728 52.8465 20.8601C52.4636 20.9473 52.0648 20.9375 51.6868 20.8317C51.3088 20.7259 50.9638 20.5274 50.6838 20.2546C50.4038 19.9819 50.1978 19.6436 50.0849 19.2711C49.1119 16.0113 47.4404 12.9975 45.1843 10.4352C42.9282 7.87289 40.1405 5.82232 37.0113 4.42328C36.6588 4.26199 36.3526 4.01627 36.1201 3.70835C35.8877 3.40044 35.7364 3.04004 35.68 2.65972C35.6237 2.2794 35.6639 1.89117 35.7971 1.53011C35.9304 1.16906 36.1524 0.846558 36.4432 0.591794C36.7783 0.294 37.1931 0.0984138 37.6379 0.0285681C38.0826 -0.0412776 38.5382 0.0175947 38.95 0.198102C42.6873 1.8771 46.0164 4.33169 48.7119 7.39558C51.4073 10.4595 53.4062 14.0611 54.5729 17.9565C54.6961 18.3772 54.696 18.8238 54.5728 19.2445C54.4496 19.6651 54.2083 20.0425 53.877 20.3327Z" fill="#E00A0A"/>
<path d="M74.6417 39.5108C74.2829 39.5315 73.9235 39.4799 73.5854 39.359C73.2473 39.2382 72.9374 39.0506 72.6747 38.8078C72.4281 38.547 72.2379 38.2392 72.1158 37.9031C71.9937 37.5671 71.9422 37.2098 71.9645 36.8534V14.8839C71.9422 14.5274 71.9937 14.1702 72.1158 13.8341C72.2379 13.498 72.4281 13.1902 72.6747 12.9295C72.9374 12.6866 73.2473 12.499 73.5854 12.3782C73.9235 12.2574 74.2829 12.2057 74.6417 12.2264H84.0155C85.697 12.1804 87.3706 12.4697 88.9367 13.0771C90.1944 13.5643 91.2772 14.411 92.0471 15.5095C92.7797 16.6379 93.1532 17.958 93.1194 19.2988C93.1738 20.8154 92.669 22.2997 91.6992 23.4748C90.6836 24.6569 89.2994 25.4706 87.765 25.7877V25.2042C89.4714 25.382 91.0603 26.1485 92.2531 27.3695C93.3566 28.6181 93.9314 30.2397 93.858 31.897C93.9147 32.9607 93.7202 34.0228 93.29 34.999C92.8598 35.9753 92.2057 36.8388 91.3796 37.5212C89.7226 38.8476 87.4242 39.5108 84.4842 39.5108H74.6417ZM76.7721 23.8122H83.1634C84.8819 23.8122 86.1672 23.4889 87.0123 22.828C87.4407 22.4747 87.779 22.0264 87.9998 21.5195C88.2207 21.0127 88.3178 20.4614 88.2834 19.9105C88.3213 19.3591 88.2257 18.8068 88.0047 18.2993C87.7836 17.7919 87.4434 17.344 87.0123 16.9929C85.8754 16.2501 84.5218 15.9015 83.1634 16.0017H76.7721V23.8122ZM76.7721 35.7637H83.8025C85.5731 35.7637 86.875 35.4215 87.7082 34.7372C88.1392 34.3532 88.4757 33.8768 88.6924 33.3444C88.909 32.8119 88.9998 32.2375 88.958 31.665C89.0043 31.089 88.9155 30.5101 88.6987 29.9736C88.4819 29.4371 88.143 28.9573 87.7082 28.5717C86.8703 27.9062 85.5684 27.5711 83.8025 27.5664H76.7721V35.7637Z" fill="white"/>
<path d="M100.81 16.7396C100.036 16.7774 99.2759 16.5266 98.6796 16.0365C98.4236 15.7965 98.2232 15.5044 98.092 15.1804C97.9609 14.8564 97.9021 14.5081 97.9198 14.1595C97.8975 13.8072 97.954 13.4544 98.0854 13.1263C98.2167 12.7982 98.4196 12.5028 98.6796 12.2613C99.2859 11.7943 100.043 11.5619 100.81 11.6075C101.577 11.5605 102.335 11.7931 102.94 12.2613C103.19 12.5087 103.382 12.8063 103.504 13.1338C103.627 13.4613 103.677 13.8112 103.651 14.1595C103.672 14.5042 103.62 14.8496 103.498 15.1731C103.376 15.4966 103.186 15.7908 102.94 16.0365C102.345 16.5278 101.584 16.7788 100.81 16.7396ZM100.81 39.7847C100.477 39.8049 100.143 39.7524 99.8328 39.6309C99.5223 39.5094 99.2426 39.3219 99.0134 39.0817C98.5692 38.5367 98.3464 37.8473 98.3885 37.1484V22.9613C98.3428 22.2576 98.5658 21.5626 99.0134 21.014C99.2435 20.7749 99.5233 20.5881 99.8336 20.4667C100.144 20.3453 100.477 20.2922 100.81 20.3109C101.146 20.2933 101.482 20.3469 101.796 20.4681C102.109 20.5894 102.393 20.7755 102.628 21.014C103.09 21.556 103.321 22.2539 103.274 22.9613V37.1554C103.316 37.8544 103.093 38.5438 102.649 39.0887C102.412 39.3303 102.125 39.5177 101.807 39.6379C101.49 39.7581 101.149 39.8082 100.81 39.7847Z" fill="white"/>
<path d="M109.524 39.5108C109.082 39.5288 108.647 39.4001 108.288 39.1452C107.979 38.9189 107.754 38.5975 107.649 38.2313C107.539 37.8213 107.539 37.39 107.649 36.9799C107.781 36.498 108.024 36.0529 108.359 35.6793L118.478 23.1163V24.2763H109.247C108.989 24.2963 108.73 24.2636 108.485 24.1802C108.241 24.0967 108.017 23.9643 107.826 23.7912C107.66 23.6117 107.532 23.401 107.449 23.1716C107.366 22.9422 107.33 22.6987 107.343 22.4555C107.327 22.2098 107.361 21.9633 107.444 21.7312C107.527 21.4991 107.657 21.2862 107.826 21.1057C108.02 20.9387 108.245 20.8117 108.489 20.7321C108.733 20.6524 108.991 20.6217 109.247 20.6417H120.808C121.308 20.6179 121.803 20.7454 122.228 21.0072C122.571 21.2304 122.822 21.5667 122.938 21.9563C123.052 22.361 123.052 22.7889 122.938 23.1936C122.812 23.6595 122.568 24.0856 122.228 24.431L111.917 37.1908V35.9114H121.681C121.933 35.8731 122.191 35.8934 122.433 35.9708C122.676 36.0482 122.897 36.1805 123.079 36.3573C123.261 36.534 123.399 36.7503 123.481 36.9889C123.564 37.2276 123.59 37.4821 123.556 37.7322C123.57 37.9761 123.534 38.2203 123.45 38.4499C123.365 38.6796 123.235 38.8899 123.066 39.0679C122.879 39.235 122.66 39.3633 122.422 39.4454C122.184 39.5275 121.932 39.5617 121.681 39.546L109.524 39.5108Z" fill="white"/>
<path d="M138.27 39.8204C137.654 39.8443 137.046 39.6771 136.53 39.3423C136.032 38.9664 135.647 38.4634 135.415 37.8871L125.225 15.2286C124.948 14.7061 124.865 14.1041 124.99 13.5273C125.109 13.0541 125.4 12.641 125.807 12.3673C126.246 12.0795 126.765 11.9322 127.291 11.9455C127.897 11.9005 128.5 12.0727 128.988 12.4306C129.423 12.8284 129.752 13.3257 129.947 13.8788L139.179 35.1031H137.496L146.728 13.8366C146.954 13.2975 147.301 12.8166 147.743 12.4306C148.215 12.0817 148.796 11.9098 149.384 11.9455C149.891 11.9271 150.39 12.0754 150.804 12.3673C151.174 12.6564 151.427 13.0684 151.514 13.5273C151.6 14.1091 151.504 14.7032 151.237 15.2286L141.047 37.8871C140.817 38.4549 140.446 38.9557 139.967 39.3423C139.467 39.676 138.873 39.8435 138.27 39.8204Z" fill="white"/>
<path d="M159.084 16.7396C158.31 16.7774 157.55 16.5266 156.954 16.0365C156.698 15.7965 156.497 15.5044 156.366 15.1804C156.235 14.8564 156.176 14.5081 156.194 14.1595C156.171 13.8072 156.228 13.4544 156.359 13.1263C156.491 12.7982 156.694 12.5028 156.954 12.2613C157.56 11.7943 158.317 11.5619 159.084 11.6075C159.851 11.5605 160.609 11.7931 161.214 12.2613C161.463 12.5087 161.656 12.8063 161.778 13.1338C161.901 13.4613 161.951 13.8112 161.924 14.1595C161.946 14.5042 161.894 14.8496 161.772 15.1731C161.649 15.4966 161.46 15.7908 161.214 16.0365C160.619 16.5278 159.858 16.7788 159.084 16.7396ZM159.084 39.7847C158.751 39.8049 158.417 39.7524 158.107 39.6309C157.796 39.5094 157.517 39.3219 157.287 39.0817C156.843 38.5367 156.62 37.8473 156.662 37.1484V22.9613C156.612 22.2571 156.836 21.5605 157.287 21.014C157.517 20.7749 157.797 20.5881 158.107 20.4667C158.418 20.3453 158.751 20.2922 159.084 20.3109C159.42 20.2933 159.756 20.3469 160.07 20.4681C160.383 20.5894 160.667 20.7755 160.902 21.014C161.364 21.556 161.595 22.2539 161.548 22.9613V37.1554C161.59 37.8544 161.367 38.5438 160.923 39.0887C160.686 39.3303 160.399 39.5177 160.081 39.6379C159.764 39.7581 159.423 39.8082 159.084 39.7847Z" fill="white"/>
<path d="M173.613 39.8973C172.421 39.8916 171.233 39.7763 170.063 39.5529C168.882 39.346 167.745 38.9394 166.704 38.3507C166.327 38.1403 166.021 37.825 165.823 37.4438C165.658 37.1203 165.589 36.7571 165.624 36.3963C165.661 36.0625 165.797 35.7469 166.015 35.4894C166.239 35.2346 166.54 35.0593 166.874 34.9902C167.27 34.9195 167.679 34.9866 168.032 35.1801C168.962 35.6357 169.944 35.9802 170.957 36.2065C171.844 36.395 172.749 36.4916 173.656 36.4947C174.629 36.5627 175.6 36.3424 176.447 35.862C176.731 35.6807 176.965 35.4308 177.125 35.1356C177.285 34.8405 177.367 34.5098 177.363 34.1747C177.383 33.9096 177.339 33.6435 177.234 33.3988C177.129 33.1541 176.966 32.938 176.759 32.7687C176.218 32.3943 175.595 32.1532 174.941 32.0657L171.035 31.3626C169.652 31.1642 168.363 30.5508 167.343 29.6051C166.918 29.1586 166.587 28.6326 166.37 28.058C166.153 27.4834 166.054 26.8717 166.079 26.2587C166.051 25.1041 166.414 23.9735 167.108 23.0458C167.853 22.0947 168.848 21.365 169.984 20.9368C171.332 20.4378 172.764 20.1992 174.203 20.2338C175.286 20.2257 176.366 20.3484 177.42 20.5993C178.436 20.851 179.415 21.2339 180.331 21.7382C180.686 21.9093 180.97 22.1977 181.134 22.5537C181.276 22.8767 181.311 23.2362 181.233 23.5802C181.156 23.9228 180.995 24.2415 180.764 24.5082C180.538 24.7704 180.227 24.9468 179.884 25.0073C179.474 25.0616 179.057 24.9879 178.691 24.7964C177.954 24.4107 177.175 24.111 176.369 23.9035C175.671 23.7327 174.956 23.6431 174.238 23.6364C173.246 23.5625 172.255 23.7907 171.398 24.2902C171.11 24.4823 170.876 24.7423 170.716 25.0468C170.556 25.3513 170.475 25.6905 170.482 26.0337C170.475 26.2837 170.52 26.5324 170.614 26.7645C170.708 26.9966 170.849 27.2073 171.028 27.3835C171.499 27.7955 172.087 28.0533 172.711 28.1217L176.617 28.8247C178.037 29.0121 179.371 29.6031 180.459 30.526C180.901 30.9581 181.247 31.4775 181.473 32.0504C181.699 32.6232 181.801 33.2368 181.773 33.8513C181.804 34.7152 181.617 35.5732 181.227 36.3469C180.838 37.1206 180.259 37.7853 179.543 38.2804C177.79 39.4299 175.713 39.9963 173.613 39.8973Z" fill="white"/>
<path d="M188.1 16.7399C187.325 16.7805 186.564 16.5293 185.969 16.0369C185.711 15.798 185.509 15.5063 185.376 15.1821C185.244 14.858 185.184 14.5091 185.202 14.1598C185.179 13.8068 185.236 13.4533 185.369 13.1249C185.502 12.7965 185.707 12.5016 185.969 12.2616C186.574 11.7922 187.332 11.5595 188.1 11.6078C188.867 11.5609 189.624 11.7934 190.23 12.2616C190.48 12.5082 190.673 12.8056 190.796 13.1334C190.919 13.4611 190.968 13.8114 190.94 14.1598C190.963 14.5047 190.912 14.8504 190.789 15.1741C190.667 15.4978 190.476 15.7919 190.23 16.0369C189.634 16.5281 188.874 16.7791 188.1 16.7399ZM188.1 39.785C187.766 39.8052 187.433 39.7527 187.122 39.6312C186.812 39.5098 186.532 39.3223 186.303 39.082C185.859 38.537 185.636 37.8477 185.678 37.1487V22.9616C185.632 22.2579 185.855 21.5629 186.303 21.0143C186.533 20.7752 186.813 20.5884 187.123 20.467C187.433 20.3456 187.766 20.2925 188.1 20.3113C188.436 20.2931 188.772 20.3465 189.085 20.4678C189.399 20.5891 189.683 20.7754 189.917 21.0143C190.382 21.5544 190.615 22.2538 190.564 22.9616V37.1557C190.606 37.8547 190.383 38.5441 189.939 39.089C189.702 39.3306 189.415 39.518 189.097 39.6382C188.779 39.7584 188.439 39.8085 188.1 39.785Z" fill="white"/>
<path d="M204.348 39.8974C202.554 39.9423 200.779 39.5308 199.192 38.7022C197.748 37.9125 196.568 36.7226 195.798 35.2785C194.956 33.661 194.538 31.86 194.583 30.041C194.566 28.6502 194.806 27.268 195.294 25.9634C195.72 24.8037 196.39 23.7469 197.261 22.8631C198.134 21.9936 199.188 21.322 200.35 20.8946C201.635 20.4197 202.997 20.1815 204.369 20.1916C206.162 20.1482 207.937 20.5596 209.525 21.3867C210.968 22.17 212.15 23.3523 212.926 24.7894C213.767 26.4018 214.182 28.1987 214.133 30.0128C214.145 31.41 213.904 32.798 213.423 34.1115C212.996 35.2768 212.323 36.3385 211.449 37.2259C210.578 38.0957 209.527 38.7674 208.367 39.1943C207.082 39.6683 205.72 39.9065 204.348 39.8974ZM204.348 36.2276C205.246 36.244 206.13 35.9996 206.89 35.5245C207.653 35.0203 208.244 34.3 208.587 33.4576C209.022 32.3691 209.228 31.204 209.191 30.0339C209.191 27.967 208.748 26.4274 207.863 25.4151C207.429 24.9081 206.883 24.5064 206.267 24.2407C205.652 23.975 204.983 23.8525 204.312 23.8825C203.416 23.8698 202.536 24.114 201.777 24.5855C201.01 25.076 200.417 25.7912 200.08 26.6313C199.641 27.719 199.433 28.8844 199.469 30.055C199.469 32.0868 199.916 33.6264 200.797 34.6739C201.227 35.1868 201.772 35.5939 202.388 35.8635C203.004 36.1331 203.675 36.2577 204.348 36.2276Z" fill="white"/>
<path d="M220.56 39.8202C220.233 39.8422 219.904 39.7975 219.595 39.6886C219.286 39.5798 219.003 39.4092 218.763 39.1874C218.542 38.9361 218.373 38.6441 218.266 38.328C218.159 38.012 218.115 37.6781 218.139 37.3455V22.7648C218.114 22.4364 218.157 22.1065 218.264 21.7948C218.372 21.4831 218.541 21.1961 218.763 20.951C218.998 20.7354 219.275 20.5693 219.576 20.463C219.878 20.3566 220.198 20.3122 220.518 20.3323C220.838 20.312 221.159 20.3564 221.462 20.4627C221.765 20.5691 222.043 20.7352 222.279 20.951C222.501 21.1961 222.671 21.4831 222.778 21.7948C222.885 22.1065 222.928 22.4364 222.904 22.7648V25.3941L222.47 24.431C222.99 23.1281 223.932 22.0327 225.148 21.3166C226.397 20.5982 227.821 20.2312 229.266 20.255C230.584 20.2026 231.892 20.496 233.058 21.1057C234.07 21.6928 234.852 22.5988 235.281 23.6787C235.809 25.0653 236.051 26.5427 235.991 28.0234V37.3807C236.035 38.052 235.811 38.7135 235.366 39.2226C235.126 39.444 234.843 39.6143 234.534 39.7232C234.225 39.832 233.897 39.877 233.57 39.8553C233.239 39.8754 232.908 39.8297 232.596 39.721C232.284 39.6124 231.997 39.4429 231.752 39.2226C231.526 38.9736 231.352 38.6824 231.241 38.3661C231.13 38.0498 231.084 37.7148 231.106 37.3807V28.2414C231.203 27.1095 230.907 25.9786 230.268 25.0356C229.941 24.6826 229.536 24.4085 229.086 24.2343C228.635 24.06 228.151 23.9902 227.669 24.0302C227.036 24 226.404 24.1035 225.815 24.3339C225.226 24.5642 224.694 24.916 224.253 25.366C223.379 26.3269 222.923 27.5896 222.982 28.8811V37.3174C223.005 38.9906 222.198 39.8249 220.56 39.8202Z" fill="white"/>
</svg>
