<svg width="236" height="52" viewBox="0 0 236 52" fill="none" xmlns="http://www.w3.org/2000/svg">
<path d="M42.6431 14.6171C42.7277 14.9572 42.7589 15.3081 42.7354 15.6576C42.711 16.1232 42.5933 16.5794 42.3892 16.9995C42.185 17.4197 41.8985 17.7954 41.5462 18.1049C41.194 18.4143 40.7831 18.6513 40.3374 18.8021C39.8918 18.9528 39.4203 19.0143 38.9504 18.9829C38.4801 18.9588 38.0193 18.8423 37.5949 18.6401C37.1705 18.438 36.7909 18.1544 36.4783 17.8056C36.1657 17.4569 35.9263 17.0501 35.7741 16.6089C35.6218 16.1677 35.5597 15.701 35.5914 15.2358C35.6158 14.7702 35.7335 14.314 35.9376 13.8938C36.1418 13.4737 36.4283 13.0979 36.7806 12.7885C37.1328 12.479 37.5438 12.242 37.9894 12.0913C38.4351 11.9405 38.9066 11.8791 39.3764 11.9105C39.7285 11.9289 40.0756 12 40.4061 12.1214C37.3136 9.2294 33.3354 7.44081 29.1008 7.03851L28.3907 6.98226C24.364 6.74146 20.3638 7.77027 16.9646 9.92091C14.4098 11.5276 12.2771 13.7123 10.7425 16.295C9.20778 18.8777 8.31498 21.7845 8.13765 24.7758C8.13765 25.0148 8.13765 25.2538 8.13765 25.4788C8.03284 30.3549 9.82793 35.0838 13.1506 38.6848C16.4733 42.2857 21.0686 44.4823 25.9833 44.819H26.0898C29.2698 45.005 32.4464 44.4038 35.3328 43.0696C38.2192 41.7354 40.7243 39.7102 42.6218 37.1771C44.8371 34.223 46.1306 30.6916 46.3429 27.0184V26.92C46.6005 22.517 45.2913 18.1637 42.6431 14.6171ZM26.5727 37.2896C24.2221 37.1533 21.9709 36.3041 20.1247 34.8572C19.9213 35.0952 19.6644 35.2828 19.3746 35.4049C19.0848 35.5269 18.7702 35.5802 18.4559 35.5602C17.9138 35.5276 17.4069 35.2836 17.0462 34.8817C16.6855 34.4798 16.5004 33.9527 16.5314 33.416C16.5504 33.1048 16.6425 32.8024 16.8003 32.5327C16.9581 32.263 17.1773 32.0334 17.4404 31.8623C16.2041 29.874 15.6188 27.5561 15.7645 25.2257C15.8541 23.7314 16.2403 22.2692 16.9009 20.9226C17.5616 19.576 18.4837 18.3715 19.6147 17.3778C20.7457 16.3842 22.0633 15.6209 23.4924 15.1315C24.9214 14.6421 26.4339 14.4363 27.9433 14.5257C29.4537 14.6136 30.9318 14.9952 32.2932 15.6487C33.6545 16.3023 34.8725 17.2149 35.8775 18.3346C36.8825 19.4542 37.6549 20.7589 38.1504 22.1741C38.646 23.5893 38.8551 25.0873 38.7657 26.5826C38.6761 28.0785 38.2895 29.5422 37.6281 30.8901C36.9667 32.238 36.0433 33.4436 34.9109 34.438C33.7785 35.4324 32.4592 36.1961 31.0285 36.6854C29.5978 37.1747 28.0837 37.38 26.5727 37.2896Z" fill="#E00A0A"/>
<path d="M34.1784 26.2803C34.1249 27.18 33.8929 28.0606 33.4957 28.8715C33.0984 29.6825 32.5436 30.408 31.8631 31.0067C31.1825 31.6053 30.3895 32.0654 29.5293 32.3606C28.6691 32.6558 27.7586 32.7803 26.8498 32.727C25.0136 32.6184 23.2962 31.7924 22.0751 30.4305C20.854 29.0687 20.2291 27.2826 20.3378 25.4648C20.4494 23.6496 21.2836 21.9523 22.6574 20.7451C24.0312 19.5379 25.8326 18.9194 27.6664 19.0251C28.5753 19.078 29.4647 19.3076 30.2838 19.7009C31.103 20.0942 31.8359 20.6434 32.4406 21.3172C33.0453 21.9909 33.5101 22.776 33.8082 23.6276C34.1064 24.4792 34.2322 25.3806 34.1784 26.2803Z" fill="#E00A0A"/>
<path d="M18.5126 51.4134C18.1831 51.7056 17.7761 51.8986 17.3395 51.9696C16.903 52.0406 16.455 51.9866 16.0484 51.8141C12.2777 50.2082 8.90102 47.8163 6.14859 44.8015C3.39617 41.7866 1.33268 38.2198 0.0987763 34.344C-0.0309656 33.9171 -0.0329355 33.4621 0.0930984 33.0342C0.219132 32.6062 0.467766 32.2236 0.80891 31.9326C1.09888 31.6764 1.4488 31.4959 1.827 31.4074C2.20519 31.319 2.59971 31.3253 2.97483 31.4258C3.34995 31.5263 3.69383 31.7179 3.9753 31.9831C4.25677 32.2484 4.46696 32.579 4.58683 32.9449C5.61835 36.186 7.34366 39.1687 9.64513 41.6897C11.9466 44.2108 14.7701 46.2109 17.9231 47.5538C18.2813 47.7126 18.5935 47.958 18.831 48.2673C19.0684 48.5766 19.2236 48.9401 19.2823 49.3243C19.341 49.7084 19.3012 50.1011 19.1667 50.4661C19.0323 50.8311 18.8073 51.1568 18.5126 51.4134Z" fill="#E00A0A"/>
<path d="M34.1784 26.2803C34.1249 27.18 33.8929 28.0606 33.4957 28.8715C33.0984 29.6825 32.5436 30.408 31.8631 31.0067C31.1825 31.6053 30.3895 32.0654 29.5293 32.3606C28.6691 32.6558 27.7586 32.7803 26.8498 32.727C25.0136 32.6184 23.2962 31.7924 22.0751 30.4305C20.854 29.0687 20.2291 27.2826 20.3378 25.4648C20.4494 23.6496 21.2836 21.9523 22.6574 20.7451C24.0312 19.5379 25.8326 18.9194 27.6664 19.0251C28.5753 19.078 29.4647 19.3076 30.2838 19.7009C31.103 20.0942 31.8359 20.6434 32.4406 21.3172C33.0453 21.9909 33.5101 22.776 33.8082 23.6276C34.1064 24.4792 34.2322 25.3806 34.1784 26.2803Z" fill="#16171A"/>
<path d="M53.877 20.3327C53.5837 20.5915 53.2293 20.7728 52.8465 20.8601C52.4636 20.9473 52.0648 20.9375 51.6868 20.8317C51.3088 20.7259 50.9638 20.5274 50.6838 20.2546C50.4038 19.9819 50.1978 19.6436 50.0849 19.2711C49.1119 16.0113 47.4404 12.9975 45.1843 10.4352C42.9282 7.87289 40.1405 5.82232 37.0113 4.42328C36.6588 4.26199 36.3526 4.01627 36.1201 3.70835C35.8877 3.40044 35.7364 3.04004 35.68 2.65972C35.6237 2.2794 35.6639 1.89117 35.7971 1.53011C35.9304 1.16906 36.1524 0.846558 36.4432 0.591794C36.7783 0.294 37.1931 0.0984138 37.6379 0.0285681C38.0826 -0.0412776 38.5382 0.0175947 38.95 0.198102C42.6873 1.8771 46.0164 4.33169 48.7119 7.39558C51.4073 10.4595 53.4062 14.0611 54.5729 17.9565C54.6961 18.3772 54.696 18.8238 54.5728 19.2445C54.4496 19.6651 54.2083 20.0425 53.877 20.3327Z" fill="#E00A0A"/>
<path d="M74.6417 39.5112C74.2829 39.5319 73.9235 39.4803 73.5854 39.3595C73.2473 39.2386 72.9374 39.0511 72.6747 38.8082C72.4281 38.5475 72.2379 38.2397 72.1158 37.9036C71.9937 37.5675 71.9422 37.2103 71.9645 36.8538V14.8843C71.9422 14.5278 71.9937 14.1706 72.1158 13.8345C72.2379 13.4985 72.4281 13.1906 72.6747 12.9299C72.9374 12.687 73.2473 12.4995 73.5854 12.3787C73.9235 12.2578 74.2829 12.2062 74.6417 12.2269H84.0155C85.697 12.1808 87.3706 12.4701 88.9367 13.0775C90.1944 13.5647 91.2772 14.4115 92.0471 15.51C92.7797 16.6384 93.1532 17.9584 93.1194 19.2993C93.1738 20.8158 92.669 22.3001 91.6992 23.4753C90.6836 24.6573 89.2994 25.4711 87.765 25.7882V25.2047C89.4714 25.3824 91.0603 26.149 92.2531 27.37C93.3566 28.6185 93.9314 30.2401 93.858 31.8975C93.9147 32.9611 93.7202 34.0232 93.29 34.9995C92.8598 35.9757 92.2057 36.8393 91.3796 37.5217C89.7226 38.848 87.4242 39.5112 84.4842 39.5112H74.6417ZM76.7721 23.8127H83.1634C84.8819 23.8127 86.1672 23.4893 87.0123 22.8285C87.4407 22.4751 87.779 22.0269 87.9998 21.52C88.2207 21.0131 88.3178 20.4619 88.2834 19.9109C88.3213 19.3596 88.2257 18.8072 88.0047 18.2998C87.7836 17.7924 87.4434 17.3445 87.0123 16.9934C85.8754 16.2505 84.5218 15.9019 83.1634 16.0021H76.7721V23.8127ZM76.7721 35.7641H83.8025C85.5731 35.7641 86.875 35.422 87.7082 34.7377C88.1392 34.3537 88.4757 33.8773 88.6924 33.3448C88.909 32.8124 88.9998 32.238 88.958 31.6655C89.0043 31.0894 88.9155 30.5106 88.6987 29.9741C88.4819 29.4375 88.143 28.9578 87.7082 28.5722C86.8703 27.9067 85.5684 27.5715 83.8025 27.5669H76.7721V35.7641Z" fill="#16171A"/>
<path d="M100.81 16.7403C100.036 16.7782 99.2759 16.5273 98.6796 16.0373C98.4236 15.7972 98.2232 15.5052 98.092 15.1812C97.9609 14.8571 97.9021 14.5088 97.9198 14.1602C97.8975 13.808 97.954 13.4552 98.0854 13.1271C98.2167 12.7989 98.4196 12.5036 98.6796 12.262C99.2859 11.795 100.043 11.5626 100.81 11.6082C101.577 11.5613 102.335 11.7938 102.94 12.262C103.19 12.5094 103.382 12.807 103.504 13.1345C103.627 13.4621 103.677 13.8119 103.651 14.1602C103.672 14.505 103.62 14.8504 103.498 15.1738C103.376 15.4973 103.186 15.7915 102.94 16.0373C102.345 16.5285 101.584 16.7795 100.81 16.7403ZM100.81 39.7854C100.477 39.8056 100.143 39.7531 99.8328 39.6317C99.5223 39.5102 99.2426 39.3227 99.0134 39.0824C98.5692 38.5375 98.3464 37.8481 98.3885 37.1491V22.9621C98.3428 22.2583 98.5658 21.5633 99.0134 21.0147C99.2435 20.7756 99.5233 20.5889 99.8336 20.4675C100.144 20.3461 100.477 20.2929 100.81 20.3117C101.146 20.294 101.482 20.3476 101.796 20.4689C102.109 20.5901 102.393 20.7762 102.628 21.0147C103.09 21.5567 103.321 22.2546 103.274 22.9621V37.1561C103.316 37.8551 103.093 38.5445 102.649 39.0894C102.412 39.331 102.125 39.5184 101.807 39.6386C101.49 39.7588 101.149 39.8089 100.81 39.7854Z" fill="#16171A"/>
<path d="M109.524 39.5112C109.082 39.5292 108.647 39.4005 108.288 39.1456C107.979 38.9193 107.754 38.5979 107.649 38.2317C107.539 37.8217 107.539 37.3904 107.649 36.9803C107.781 36.4984 108.024 36.0533 108.359 35.6797L118.478 23.1167V24.2767H109.247C108.989 24.2967 108.73 24.264 108.485 24.1806C108.241 24.0971 108.017 23.9647 107.826 23.7916C107.66 23.6121 107.532 23.4014 107.449 23.172C107.366 22.9426 107.33 22.6991 107.343 22.4559C107.327 22.2102 107.361 21.9637 107.444 21.7316C107.527 21.4995 107.657 21.2866 107.826 21.1061C108.02 20.9391 108.245 20.8121 108.489 20.7325C108.733 20.6528 108.991 20.6221 109.247 20.6421H120.808C121.308 20.6183 121.803 20.7458 122.228 21.0076C122.571 21.2308 122.822 21.5671 122.938 21.9567C123.052 22.3614 123.052 22.7893 122.938 23.194C122.812 23.6599 122.568 24.086 122.228 24.4314L111.917 37.1912V35.9118H121.681C121.933 35.8735 122.191 35.8938 122.433 35.9712C122.676 36.0486 122.897 36.1809 123.079 36.3577C123.261 36.5344 123.399 36.7507 123.481 36.9893C123.564 37.228 123.59 37.4825 123.556 37.7326C123.57 37.9765 123.534 38.2207 123.45 38.4503C123.365 38.68 123.235 38.8903 123.066 39.0683C122.879 39.2354 122.66 39.3637 122.422 39.4458C122.184 39.5279 121.932 39.5621 121.681 39.5464L109.524 39.5112Z" fill="#16171A"/>
<path d="M138.27 39.8206C137.654 39.8444 137.046 39.6773 136.53 39.3425C136.032 38.9666 135.647 38.4635 135.415 37.8873L125.225 15.2288C124.948 14.7062 124.865 14.1042 124.99 13.5275C125.109 13.0543 125.4 12.6411 125.807 12.3675C126.246 12.0796 126.765 11.9324 127.291 11.9457C127.897 11.9007 128.5 12.0728 128.988 12.4307C129.423 12.8285 129.752 13.3258 129.947 13.879L139.179 35.1033H137.496L146.728 13.8368C146.954 13.2976 147.301 12.8167 147.743 12.4307C148.215 12.0818 148.796 11.9099 149.384 11.9457C149.891 11.9272 150.39 12.0756 150.804 12.3675C151.174 12.6565 151.427 13.0686 151.514 13.5275C151.6 14.1093 151.504 14.7033 151.237 15.2288L141.047 37.8873C140.817 38.4551 140.446 38.9559 139.967 39.3425C139.467 39.6762 138.873 39.8436 138.27 39.8206Z" fill="#16171A"/>
<path d="M159.084 16.7403C158.31 16.7782 157.55 16.5273 156.954 16.0373C156.698 15.7972 156.497 15.5052 156.366 15.1812C156.235 14.8571 156.176 14.5088 156.194 14.1602C156.171 13.808 156.228 13.4552 156.359 13.1271C156.491 12.7989 156.694 12.5036 156.954 12.262C157.56 11.795 158.317 11.5626 159.084 11.6082C159.851 11.5613 160.609 11.7938 161.214 12.262C161.463 12.5094 161.656 12.807 161.778 13.1345C161.901 13.4621 161.951 13.8119 161.924 14.1602C161.946 14.505 161.894 14.8504 161.772 15.1738C161.649 15.4973 161.46 15.7915 161.214 16.0373C160.619 16.5285 159.858 16.7795 159.084 16.7403ZM159.084 39.7854C158.751 39.8056 158.417 39.7531 158.107 39.6317C157.796 39.5102 157.517 39.3227 157.287 39.0824C156.843 38.5375 156.62 37.8481 156.662 37.1491V22.9621C156.612 22.2578 156.836 21.5613 157.287 21.0147C157.517 20.7756 157.797 20.5889 158.107 20.4675C158.418 20.3461 158.751 20.2929 159.084 20.3117C159.42 20.294 159.756 20.3476 160.07 20.4689C160.383 20.5901 160.667 20.7762 160.902 21.0147C161.364 21.5567 161.595 22.2546 161.548 22.9621V37.1561C161.59 37.8551 161.367 38.5445 160.923 39.0894C160.686 39.331 160.399 39.5184 160.081 39.6386C159.764 39.7588 159.423 39.8089 159.084 39.7854Z" fill="#16171A"/>
<path d="M173.613 39.8979C172.421 39.8921 171.233 39.7768 170.063 39.5534C168.882 39.3466 167.745 38.9399 166.704 38.3512C166.327 38.1409 166.021 37.8255 165.823 37.4443C165.658 37.1209 165.589 36.7576 165.624 36.3968C165.661 36.063 165.797 35.7474 166.015 35.4899C166.239 35.2352 166.54 35.0599 166.874 34.9908C167.27 34.9201 167.679 34.9871 168.032 35.1806C168.962 35.6362 169.944 35.9808 170.957 36.207C171.844 36.3955 172.749 36.4921 173.656 36.4953C174.629 36.5633 175.6 36.343 176.447 35.8625C176.731 35.6813 176.965 35.4313 177.125 35.1362C177.285 34.841 177.367 34.5104 177.363 34.1753C177.383 33.9102 177.339 33.6441 177.234 33.3994C177.129 33.1547 176.966 32.9386 176.759 32.7692C176.218 32.3948 175.595 32.1538 174.941 32.0662L171.035 31.3632C169.652 31.1647 168.363 30.5513 167.343 29.6056C166.918 29.1591 166.587 28.6331 166.37 28.0585C166.153 27.4839 166.054 26.8722 166.079 26.2592C166.051 25.1047 166.414 23.974 167.108 23.0464C167.853 22.0952 168.848 21.3655 169.984 20.9373C171.332 20.4384 172.764 20.1997 174.203 20.2343C175.286 20.2262 176.366 20.349 177.42 20.5999C178.436 20.8515 179.415 21.2344 180.331 21.7388C180.686 21.9099 180.97 22.1983 181.134 22.5543C181.276 22.8773 181.311 23.2368 181.233 23.5807C181.156 23.9234 180.995 24.242 180.764 24.5087C180.538 24.7709 180.227 24.9473 179.884 25.0078C179.474 25.0622 179.057 24.9884 178.691 24.7969C177.954 24.4112 177.175 24.1116 176.369 23.9041C175.671 23.7333 174.956 23.6436 174.238 23.6369C173.246 23.5631 172.255 23.7912 171.398 24.2908C171.11 24.4828 170.876 24.7429 170.716 25.0474C170.556 25.3519 170.475 25.6911 170.482 26.0343C170.475 26.2843 170.52 26.533 170.614 26.7651C170.708 26.9972 170.849 27.2078 171.028 27.3841C171.499 27.796 172.087 28.0539 172.711 28.1222L176.617 28.8253C178.037 29.0127 179.371 29.6036 180.459 30.5266C180.901 30.9587 181.247 31.478 181.473 32.0509C181.699 32.6238 181.801 33.2374 181.773 33.8519C181.804 34.7158 181.617 35.5737 181.227 36.3474C180.838 37.1211 180.259 37.7859 179.543 38.2809C177.79 39.4304 175.713 39.9968 173.613 39.8979Z" fill="#16171A"/>
<path d="M188.1 16.7403C187.325 16.7809 186.564 16.5297 185.969 16.0373C185.711 15.7984 185.509 15.5067 185.376 15.1825C185.244 14.8584 185.184 14.5095 185.202 14.1602C185.179 13.8072 185.236 13.4537 185.369 13.1253C185.502 12.7969 185.707 12.502 185.969 12.262C186.574 11.7926 187.332 11.5599 188.1 11.6082C188.867 11.5612 189.624 11.7938 190.23 12.262C190.48 12.5086 190.673 12.806 190.796 13.1338C190.919 13.4615 190.968 13.8118 190.94 14.1602C190.963 14.5051 190.912 14.8508 190.789 15.1745C190.667 15.4982 190.476 15.7923 190.23 16.0373C189.634 16.5285 188.874 16.7795 188.1 16.7403ZM188.1 39.7854C187.766 39.8056 187.433 39.7531 187.122 39.6316C186.812 39.5102 186.532 39.3226 186.303 39.0824C185.859 38.5374 185.636 37.848 185.678 37.1491V22.962C185.632 22.2583 185.855 21.5633 186.303 21.0147C186.533 20.7756 186.813 20.5888 187.123 20.4674C187.433 20.346 187.766 20.2929 188.1 20.3117C188.436 20.2935 188.772 20.3469 189.085 20.4682C189.399 20.5894 189.683 20.7758 189.917 21.0147C190.382 21.5548 190.615 22.2541 190.564 22.962V37.1561C190.606 37.8551 190.383 38.5445 189.939 39.0894C189.702 39.331 189.415 39.5184 189.097 39.6386C188.779 39.7588 188.439 39.8089 188.1 39.7854Z" fill="#16171A"/>
<path d="M204.348 39.8979C202.554 39.9429 200.779 39.5314 199.192 38.7027C197.748 37.913 196.568 36.7231 195.798 35.279C194.956 33.6615 194.538 31.8605 194.583 30.0415C194.566 28.6507 194.806 27.2685 195.294 25.9639C195.72 24.8042 196.39 23.7474 197.261 22.8636C198.134 21.9941 199.188 21.3226 200.35 20.8951C201.635 20.4203 202.997 20.182 204.369 20.1921C206.162 20.1487 207.937 20.5601 209.525 21.3873C210.968 22.1706 212.15 23.3529 212.926 24.7899C213.767 26.4023 214.182 28.1993 214.133 30.0134C214.145 31.4105 213.904 32.7985 213.423 34.112C212.996 35.2773 212.323 36.339 211.449 37.2264C210.578 38.0962 209.527 38.7679 208.367 39.1948C207.082 39.6688 205.72 39.907 204.348 39.8979ZM204.348 36.2281C205.246 36.2445 206.13 36.0002 206.89 35.5251C207.653 35.0208 208.244 34.3005 208.587 33.4582C209.022 32.3696 209.228 31.2045 209.191 30.0344C209.191 27.9676 208.748 26.4279 207.863 25.4156C207.429 24.9086 206.883 24.5069 206.267 24.2412C205.652 23.9756 204.983 23.853 204.312 23.883C203.416 23.8703 202.536 24.1145 201.777 24.586C201.01 25.0765 200.417 25.7917 200.08 26.6318C199.641 27.7195 199.433 28.8849 199.469 30.0555C199.469 32.0873 199.916 33.6269 200.797 34.6744C201.227 35.1873 201.772 35.5945 202.388 35.864C203.004 36.1336 203.675 36.2582 204.348 36.2281Z" fill="#16171A"/>
<path d="M220.56 39.8206C220.233 39.8426 219.904 39.7979 219.595 39.689C219.286 39.5802 219.003 39.4096 218.763 39.1878C218.542 38.9365 218.373 38.6445 218.266 38.3284C218.159 38.0124 218.115 37.6785 218.139 37.3459V22.7652C218.114 22.4368 218.157 22.1069 218.264 21.7952C218.372 21.4835 218.541 21.1965 218.763 20.9514C218.998 20.7358 219.275 20.5697 219.576 20.4634C219.878 20.357 220.198 20.3126 220.518 20.3327C220.838 20.3124 221.159 20.3568 221.462 20.4631C221.765 20.5695 222.043 20.7356 222.279 20.9514C222.501 21.1965 222.671 21.4835 222.778 21.7952C222.885 22.1069 222.928 22.4368 222.904 22.7652V25.3945L222.47 24.4314C222.99 23.1285 223.932 22.0331 225.148 21.317C226.397 20.5986 227.821 20.2316 229.266 20.2554C230.584 20.203 231.892 20.4964 233.058 21.1061C234.07 21.6932 234.852 22.5992 235.281 23.6791C235.809 25.0657 236.051 26.5431 235.991 28.0238V37.3811C236.035 38.0524 235.811 38.7138 235.366 39.223C235.126 39.4444 234.843 39.6147 234.534 39.7236C234.225 39.8324 233.897 39.8774 233.57 39.8557C233.239 39.8758 232.908 39.8301 232.596 39.7214C232.284 39.6128 231.997 39.4433 231.752 39.223C231.526 38.974 231.352 38.6828 231.241 38.3665C231.13 38.0502 231.084 37.7152 231.106 37.3811V28.2418C231.203 27.1099 230.907 25.979 230.268 25.036C229.941 24.683 229.536 24.4089 229.086 24.2347C228.635 24.0604 228.151 23.9906 227.669 24.0306C227.036 24.0004 226.404 24.1039 225.815 24.3343C225.226 24.5646 224.694 24.9164 224.253 25.3664C223.379 26.3273 222.923 27.59 222.982 28.8815V37.3178C223.005 38.991 222.198 39.8253 220.56 39.8206Z" fill="#16171A"/>
</svg>
