<svg width="12" height="12" viewBox="0 0 12 12" fill="none" xmlns="http://www.w3.org/2000/svg">
<path d="M9.09887 3.48133L8.47189 2.43688C8.41536 2.34258 8.23931 2.28735 8.14144 2.33095C8.11398 2.34322 8.10914 2.36486 8.10914 2.38876C8.07231 2.68976 7.94439 2.95781 7.8084 3.22329C7.70019 3.4345 7.59747 3.64862 7.48797 3.85887C7.45728 3.91797 7.45566 3.95124 7.51445 3.9971C7.70342 4.14178 7.77965 4.33588 7.73185 4.57164C7.72632 4.58847 7.72596 4.60655 7.73079 4.62359C7.73562 4.64062 7.74544 4.65582 7.75898 4.66724C7.76815 4.67528 7.77678 4.68391 7.78482 4.69307C7.85815 4.77704 7.99705 4.83841 7.99963 4.93982C8.00222 5.04122 7.90531 5.13714 7.85201 5.23597C7.83683 5.26407 7.81971 5.29152 7.8042 5.31962C7.74477 5.42748 7.78062 5.51016 7.90111 5.54569C8.0132 5.57798 8.12464 5.61254 8.23802 5.63741C8.30036 5.6513 8.32459 5.67519 8.32394 5.74108C8.32071 6.04724 8.32136 6.3547 8.32394 6.65957C8.32394 6.71964 8.30295 6.74322 8.24513 6.75646C8.1353 6.78101 8.02838 6.81589 7.91985 6.84624C7.76964 6.88791 7.73928 6.96283 7.81745 7.10009C7.87301 7.19698 7.92598 7.29774 7.98606 7.39301C8.01837 7.44437 8.00997 7.47698 7.96862 7.51768C7.75327 7.72954 7.53965 7.94323 7.32775 8.15875C7.28382 8.20364 7.24925 8.21398 7.19369 8.17877C7.09162 8.11418 6.98502 8.05734 6.87972 7.99856C6.77441 7.93978 6.68784 7.97628 6.6536 8.09545C6.6213 8.20752 6.58512 8.31862 6.56251 8.43262C6.54765 8.50529 6.51276 8.51917 6.44654 8.51853C6.14829 8.51551 5.85014 8.51551 5.5521 8.51853C5.48136 8.51853 5.45519 8.4956 5.43969 8.42778C5.4174 8.32185 5.38219 8.21882 5.35312 8.11418C5.31048 7.96175 5.23974 7.93268 5.09987 8.0118C5.00296 8.06703 4.90218 8.12032 4.80689 8.18007C4.75585 8.21236 4.72322 8.20461 4.6822 8.16295C4.46685 7.94506 4.25021 7.72868 4.03228 7.5138C3.98867 7.47085 3.98997 7.43726 4.01968 7.38849C4.08235 7.28547 4.14049 7.17954 4.19928 7.07425C4.25807 6.96897 4.22383 6.88274 4.10238 6.84818C3.98092 6.81363 3.87109 6.77939 3.75351 6.75388C3.69214 6.74031 3.67825 6.7106 3.67857 6.65408C3.68051 6.34792 3.68051 6.04175 3.67857 5.73559C3.67857 5.67649 3.69731 5.65097 3.75642 5.6387C3.874 5.61254 3.98932 5.57734 4.10528 5.5444C4.22125 5.51145 4.25743 5.42555 4.19702 5.31832C4.13662 5.2111 4.08041 5.10679 4.0171 5.00408C3.9848 4.95338 3.9877 4.91688 4.0339 4.87974C4.05909 4.85972 4.0788 4.83324 4.10302 4.81192C4.21511 4.71245 4.29877 4.61815 4.26776 4.43729C4.23675 4.25643 4.34174 4.10981 4.48548 4.00453C4.55009 3.95737 4.55009 3.92249 4.51778 3.8579C4.38857 3.60793 4.2668 3.35441 4.13856 3.10379C4.02388 2.88063 3.93279 2.65003 3.89984 2.39974C3.89338 2.35065 3.87529 2.33353 3.8249 2.32837C3.6789 2.31351 3.57682 2.34064 3.49639 2.48985C3.31808 2.82185 3.11296 3.13932 2.90784 3.48036C2.83743 3.3641 2.77541 3.26301 2.71403 3.16128C2.57664 2.92939 2.4386 2.69783 2.29992 2.46659C2.24985 2.38262 2.19074 2.30867 2.08059 2.33741C1.96042 2.36744 1.9391 2.46336 1.93975 2.57317C1.94169 2.97202 1.93813 3.37088 1.94233 3.76812C1.94233 3.8508 1.92392 3.8776 1.83703 3.87696C1.55471 3.87437 1.55438 3.87696 1.55471 3.59663C1.55471 3.23782 1.55471 2.87933 1.55471 2.52085C1.55471 2.24633 1.71008 2.03641 1.96462 1.96213C2.20786 1.89108 2.45626 1.987 2.60162 2.21339C2.68776 2.3486 2.77067 2.48651 2.85035 2.6271C2.89234 2.70138 2.91657 2.71495 2.9647 2.62969C3.08001 2.42687 3.20535 2.22954 3.32196 2.02769C3.35781 1.96568 3.39658 1.93339 3.47313 1.93952C3.56487 1.94727 3.65919 1.93242 3.75061 1.94372C3.8585 1.95761 3.88272 1.90949 3.89661 1.81454C4.03034 0.9025 4.64538 0.223963 5.54402 0.0482728C6.88359 -0.213647 7.8869 0.626047 8.09331 1.686C8.09331 1.68988 8.09621 1.69375 8.09686 1.69763C8.11366 1.77546 8.08846 1.8914 8.14499 1.9237C8.21153 1.9631 8.31813 1.95083 8.40341 1.93855C8.57461 1.91336 8.67475 1.97763 8.75001 2.13233C8.83367 2.30544 8.9477 2.46401 9.04364 2.6313C9.08369 2.70074 9.10824 2.71398 9.15153 2.63421C9.22776 2.49695 9.31013 2.36325 9.39315 2.23019C9.5398 1.99378 9.78755 1.89011 10.0331 1.9589C10.2976 2.03318 10.453 2.2444 10.453 2.53538C10.453 2.94619 10.4507 3.35731 10.4549 3.76812C10.4549 3.85177 10.4349 3.87696 10.3486 3.87599C10.067 3.87373 10.067 3.8776 10.067 3.59534C10.067 3.25268 10.067 2.91034 10.067 2.568C10.067 2.46336 10.0482 2.37132 9.93485 2.33805C9.82147 2.30479 9.75751 2.38101 9.70551 2.46724C9.5075 2.80021 9.30948 3.1306 9.09887 3.48133ZM6.19685 3.37217C6.19685 3.5133 6.19976 3.65411 6.19685 3.79492C6.19491 3.85952 6.21591 3.87792 6.27922 3.87696C6.50856 3.87373 6.73813 3.87373 6.9679 3.87696C6.99141 3.87956 7.01511 3.87416 7.03516 3.86161C7.05521 3.84907 7.07044 3.83012 7.07837 3.80784C7.24828 3.46163 7.42917 3.12026 7.59198 2.7705C7.7599 2.41767 7.79287 2.0156 7.68469 1.64014C7.46439 0.844368 6.77215 0.363158 5.89547 0.394162C4.69738 0.436793 3.92052 1.6818 4.41829 2.77114C4.5798 3.12188 4.76263 3.46195 4.93254 3.80849C4.94073 3.83065 4.95615 3.84939 4.97632 3.8617C4.99648 3.87401 5.02021 3.87916 5.04366 3.87631C5.26978 3.8734 5.49589 3.87179 5.72201 3.87631C5.79921 3.87793 5.81633 3.85209 5.81536 3.77942C5.81116 3.53397 5.80825 3.28788 5.81536 3.04243C5.81859 2.93391 5.79695 2.87578 5.68615 2.82928C5.53115 2.76257 5.40296 2.6459 5.32199 2.49787C5.24102 2.34984 5.21195 2.17898 5.23941 2.01251C5.29497 1.66985 5.59021 1.38888 5.92325 1.36143C6.29408 1.33107 6.61548 1.53356 6.73662 1.87493C6.85484 2.20693 6.75277 2.60094 6.43912 2.75855C6.20622 2.87546 6.17456 3.02499 6.19943 3.2375C6.20124 3.2824 6.20037 3.32737 6.19685 3.37217ZM7.16397 6.2C7.16139 6.81363 6.66717 7.33682 6.0741 7.35491C5.20614 7.38171 4.63084 6.59078 4.9235 5.7724C4.93577 5.73785 4.9558 5.70394 4.93125 5.67003C4.79267 5.48618 4.70028 5.27175 4.66185 5.04478C4.65848 5.02897 4.65168 5.0141 4.64192 5.00122C4.63216 4.98835 4.61969 4.97777 4.60539 4.97025C4.59108 4.96273 4.5753 4.95845 4.55915 4.95771C4.54301 4.95697 4.5269 4.95979 4.51197 4.96598C4.43703 5.00085 4.51197 5.05253 4.52618 5.09516C4.53159 5.1103 4.53957 5.12439 4.54976 5.13682C4.66896 5.28506 4.70449 5.43556 4.5798 5.60221C4.5475 5.64516 4.53716 5.70587 4.52295 5.76013C4.51762 5.78742 4.50399 5.81239 4.48393 5.83164C4.46386 5.85088 4.43835 5.86347 4.41086 5.86768C4.29845 5.89481 4.14146 5.89997 4.08946 5.97296C4.03196 6.05532 4.07783 6.20582 4.06685 6.32531C4.05877 6.41251 4.09172 6.45159 4.1728 6.46063C4.3931 6.48518 4.53167 6.58142 4.60145 6.81589C4.64635 6.96542 4.67186 7.07425 4.57916 7.21022C4.45899 7.38752 4.46965 7.39463 4.62406 7.549C4.80624 7.73115 4.80979 7.73664 5.03106 7.59842C5.13766 7.53189 5.22714 7.51219 5.33729 7.58518C5.4026 7.62506 5.47411 7.65377 5.54887 7.67011C5.63091 7.69046 5.66612 7.73761 5.68357 7.81545C5.7065 7.9175 5.70941 8.04895 5.77498 8.10902C5.84702 8.17522 5.98269 8.11967 6.08928 8.13195C6.20234 8.14519 6.26824 8.1158 6.28019 7.98855C6.29763 7.79478 6.37936 7.65009 6.59675 7.62038C6.64773 7.60802 6.69566 7.58538 6.73759 7.55385C6.7967 7.51639 6.84548 7.52155 6.90427 7.55837C6.99923 7.61715 7.10486 7.71436 7.19822 7.70629C7.30094 7.69724 7.36393 7.55417 7.45437 7.48021C7.52802 7.42079 7.53933 7.36427 7.47924 7.28967C7.34487 7.12334 7.32936 6.9638 7.43014 6.75646C7.5067 6.59918 7.58164 6.51004 7.75317 6.48098C7.93923 6.44868 7.93729 6.43738 7.93729 6.252C7.93395 6.18366 7.93449 6.11519 7.9389 6.04692C7.94698 5.97425 7.91532 5.94519 7.85104 5.93292C7.80356 5.92387 7.75801 5.90353 7.71053 5.89804C7.56291 5.88092 7.51025 5.78791 7.4408 5.66066C7.31741 5.43459 7.3481 5.25825 7.49281 5.07223C7.51187 5.04768 7.54611 5.01539 7.51219 4.97534C7.47827 4.93529 7.44048 4.97082 7.4043 4.98115C7.35165 4.99601 7.3397 5.0367 7.33324 5.08224C7.30068 5.28125 7.22081 5.46954 7.10034 5.63127C7.08366 5.65069 7.07313 5.67463 7.07008 5.70004C7.06703 5.72546 7.07161 5.75121 7.08322 5.77402C7.14045 5.90856 7.16799 6.05385 7.16397 6.2ZM5.07015 5.03929C5.12506 5.45913 5.54887 5.80858 6.00304 5.80922C6.4572 5.80987 6.87519 5.46592 6.93786 5.03929H5.07015ZM5.26396 5.9833C5.18095 6.33855 5.30014 6.65538 5.57794 6.83914C5.70777 6.92524 5.86071 6.96984 6.01648 6.96701C6.17225 6.96418 6.32348 6.91407 6.4501 6.82331C6.57953 6.73143 6.67686 6.60125 6.72838 6.45113C6.7799 6.30101 6.783 6.13851 6.73726 5.98653C6.25144 6.2675 5.76206 6.27073 5.26525 5.9833H5.26396ZM6.00142 4.2616H5.53239C5.31112 4.2616 5.08985 4.25966 4.86858 4.2616C4.73938 4.2616 4.65022 4.34622 4.65087 4.45538C4.65151 4.56454 4.74002 4.64269 4.87052 4.64915C4.89863 4.64915 4.92673 4.64915 4.95483 4.64915H6.89748C6.98987 4.64915 7.0829 4.654 7.17463 4.64625C7.22342 4.64271 7.26912 4.62107 7.30276 4.58558C7.33641 4.55009 7.35558 4.5033 7.3565 4.45441C7.35417 4.40582 7.33429 4.35973 7.30055 4.32468C7.26681 4.28964 7.22149 4.26803 7.17302 4.26386C7.1408 4.26099 7.10843 4.26023 7.07611 4.2616H6.00142ZM5.99916 2.52117C6.0759 2.522 6.15116 2.50004 6.21541 2.45806C6.27965 2.41608 6.32999 2.35598 6.36003 2.28538C6.39008 2.21477 6.39849 2.13684 6.38419 2.06145C6.3699 1.98606 6.33354 1.91661 6.27973 1.8619C6.22591 1.80719 6.15707 1.76969 6.08191 1.75414C6.00676 1.73858 5.92868 1.74569 5.85757 1.77455C5.78646 1.8034 5.72551 1.85272 5.68246 1.91624C5.63941 1.97976 5.61619 2.05463 5.61573 2.13136C5.61759 2.23328 5.65856 2.33058 5.73017 2.40314C5.80178 2.4757 5.89855 2.51796 6.00045 2.52117H5.99916Z" fill="#E00A0A"/>
<path d="M11.0407 7.82845C11.0643 7.87043 11.1092 7.87269 11.1434 7.89078C11.689 8.17886 11.9887 8.62616 11.9939 9.24721C12.0017 10.1253 11.9939 11.0038 11.9984 11.8819C11.9984 11.9788 11.9694 11.9998 11.8773 11.9998C10.8622 11.9966 9.84668 11.9966 8.83088 11.9998C8.72913 11.9998 8.70168 11.9736 8.7062 11.8735C8.7146 11.6885 8.7062 11.5028 8.71007 11.3177C8.71201 11.2444 8.69231 11.2208 8.6164 11.2208C8.39028 11.2257 8.16417 11.2237 7.93805 11.2208C7.78436 11.2211 7.63684 11.1604 7.52795 11.0519C7.41907 10.9435 7.35772 10.7962 7.35742 10.6426C7.35712 10.4889 7.41789 10.3414 7.52636 10.2325C7.63482 10.1237 7.7821 10.0623 7.93579 10.062C8.22199 10.0604 8.50819 10.0575 8.79406 10.064C8.89097 10.0659 8.92165 10.0391 8.92876 9.93834C8.95073 9.61344 8.96106 9.28661 9.01727 8.96494C9.08349 8.58288 9.28408 8.27898 9.59095 8.04548C9.65556 7.99703 9.67752 7.97604 9.59354 7.91791C9.37837 7.77172 9.21921 7.55684 9.1421 7.30843C9.06499 7.06002 9.07451 6.79279 9.16909 6.5505C9.26232 6.30919 9.43339 6.10586 9.65521 5.97269C9.87703 5.83952 10.1369 5.78411 10.3938 5.81525C10.6507 5.84638 10.8898 5.96227 11.0734 6.14457C11.2569 6.32688 11.3744 6.56519 11.4073 6.82178C11.429 6.97796 11.4175 7.13697 11.3734 7.28837C11.3293 7.43976 11.2537 7.58012 11.1515 7.70023C11.1172 7.74642 11.0781 7.78711 11.0407 7.82845ZM10.3575 11.6109C10.7361 11.6109 11.115 11.6074 11.4935 11.6132C11.5905 11.6132 11.6127 11.587 11.6121 11.4931C11.6082 10.7603 11.6121 10.0272 11.6092 9.29436C11.6079 9.21797 11.6011 9.14177 11.5888 9.06635C11.511 8.54283 11.0555 8.14527 10.5183 8.12977C9.99312 8.11491 9.50342 8.50085 9.4078 9.02017C9.34578 9.35669 9.33997 9.70032 9.31089 10.041C9.2899 10.2994 9.14131 10.4486 8.88483 10.4493C8.57473 10.4493 8.26463 10.4476 7.95453 10.4493C7.82532 10.4493 7.73681 10.5387 7.74069 10.6476C7.74456 10.7564 7.83017 10.8339 7.95356 10.8349C8.36024 10.8371 8.76725 10.841 9.17393 10.8333C9.46465 10.8278 9.69077 10.6298 9.7263 10.3404C9.77637 9.91735 9.80867 9.49169 9.84614 9.067C9.86229 8.8842 9.85939 8.8842 10.0338 8.89938C10.0618 8.90297 10.09 8.90416 10.1181 8.90293C10.228 8.89421 10.2609 8.93523 10.2473 9.04988C10.2023 9.46585 10.1637 9.88236 10.1314 10.2994C10.0958 10.7635 9.78315 11.1194 9.32382 11.2127C9.24791 11.2282 9.13969 11.1804 9.10287 11.2525C9.06831 11.32 9.10061 11.4188 9.09124 11.5021C9.07961 11.6006 9.12354 11.6122 9.20785 11.6113C9.59225 11.6109 9.97503 11.6109 10.3575 11.6109ZM11.029 6.96808C11.0287 6.81541 10.9832 6.66624 10.8983 6.53937C10.8133 6.41251 10.6927 6.31362 10.5516 6.25516C10.4105 6.19671 10.2553 6.18131 10.1055 6.21089C9.95569 6.24048 9.81798 6.31373 9.70973 6.42142C9.60148 6.52911 9.52753 6.66642 9.49719 6.81605C9.46686 6.96569 9.48149 7.12095 9.53925 7.26229C9.59701 7.40362 9.69532 7.5247 9.82178 7.61028C9.94825 7.69586 10.0972 7.7421 10.2499 7.74319C10.4554 7.74218 10.6523 7.66045 10.798 7.51563C10.9438 7.3708 11.0268 7.17449 11.029 6.96905V6.96808Z" fill="#E00A0A"/>
<path d="M2.32497 7.98238C2.65349 8.21362 2.87411 8.50784 2.96811 8.88667C3.02625 9.11823 3.02141 9.35787 3.0479 9.59363C3.06179 9.71732 3.07115 9.84198 3.07406 9.96664C3.076 10.0454 3.10636 10.0681 3.18292 10.0668C3.47364 10.0622 3.76274 10.0642 4.05281 10.0651C4.39263 10.0651 4.6475 10.3158 4.64717 10.6465C4.64685 10.9772 4.39134 11.2233 4.05055 11.2233C3.82896 11.2233 3.60737 11.2265 3.3861 11.2233C3.31148 11.2217 3.28919 11.2433 3.29145 11.3179C3.29662 11.5152 3.29145 11.7126 3.29436 11.9099C3.29436 11.9745 3.27918 12 3.20811 12C2.16885 11.9976 1.12969 11.9976 0.0906342 12C0.0198925 12 0.00438756 11.9761 0.00438756 11.9099C0.00664871 10.9878 -0.0117636 10.0651 0.0134321 9.14374C0.0286141 8.59245 0.328701 8.1852 0.810649 7.9165C0.859102 7.88937 0.91014 7.86676 0.97216 7.8364C0.678533 7.55446 0.546094 7.21632 0.594871 6.8207C0.612892 6.66397 0.663816 6.51282 0.744308 6.37713C0.8248 6.24145 0.933046 6.12429 1.06196 6.03332C1.18552 5.9426 1.32586 5.87728 1.47484 5.84114C1.62382 5.80501 1.7785 5.79877 1.9299 5.8228C2.08131 5.84683 2.22645 5.90064 2.35692 5.98113C2.48739 6.06161 2.60059 6.16717 2.68999 6.29169C3.05145 6.79421 2.98394 7.55995 2.32497 7.98238ZM1.65503 11.6108H2.62086C2.91158 11.6108 2.90835 11.6108 2.90803 11.3234C2.90803 11.2472 2.89026 11.2226 2.80886 11.2207C2.34016 11.2094 1.95673 10.8877 1.89019 10.4204C1.83107 10.0028 1.80652 9.58071 1.76873 9.16086C1.74709 8.92413 1.74903 8.92413 1.97676 8.90088C2.13568 8.88473 2.13665 8.88473 2.15054 9.0446C2.18543 9.44119 2.21967 9.838 2.25326 10.235C2.28556 10.6274 2.51168 10.838 2.90867 10.8383C3.27476 10.8383 3.64086 10.8383 4.00695 10.8383C4.16426 10.8383 4.26149 10.7595 4.25729 10.6394C4.25309 10.5192 4.16038 10.4517 4.00824 10.4514C3.70621 10.4514 3.40419 10.4514 3.10216 10.4514C2.86926 10.4514 2.71454 10.3096 2.69096 10.0803C2.67868 9.95631 2.67642 9.831 2.66188 9.70731C2.63249 9.45605 2.64509 9.19897 2.57725 8.95288C2.4348 8.43614 1.91603 8.07539 1.40985 8.13643C0.817755 8.20781 0.396859 8.65866 0.391367 9.24709C0.384261 10.0041 0.391367 10.7614 0.387168 11.5185C0.387168 11.6047 0.41947 11.6154 0.492796 11.6154C0.881714 11.6108 1.26837 11.6108 1.65503 11.6108ZM2.51943 6.97313C2.52014 6.81988 2.47529 6.66987 2.39058 6.54214C2.30587 6.41441 2.18512 6.31472 2.04365 6.25572C1.90218 6.19672 1.74637 6.18106 1.59598 6.21074C1.4456 6.24042 1.30742 6.3141 1.19899 6.42242C1.09056 6.53074 1.01675 6.66883 0.986939 6.81916C0.957128 6.96949 0.972656 7.12528 1.03155 7.26678C1.09045 7.40827 1.19005 7.52908 1.31774 7.61388C1.44542 7.69868 1.59542 7.74364 1.7487 7.74307C1.95188 7.74 2.14589 7.65804 2.28973 7.51454C2.43356 7.37104 2.51593 7.17723 2.51943 6.9741V6.97313Z" fill="#E00A0A"/>
<path d="M1.7453 4.64848C1.55439 4.64848 1.55439 4.64848 1.55471 4.42628C1.55471 4.26254 1.55471 4.26254 1.79181 4.26254C1.94072 4.26254 1.94072 4.26254 1.9404 4.50282C1.9404 4.64848 1.9404 4.64848 1.7453 4.64848Z" fill="#E00A0A"/>
<path d="M10.4511 4.45861C10.4511 4.64851 10.4511 4.64851 10.2279 4.64851C10.0664 4.64851 10.0664 4.64851 10.0664 4.41049C10.0664 4.26225 10.0664 4.26225 10.3074 4.26257C10.4511 4.26257 10.4511 4.26257 10.4511 4.45861Z" fill="#E00A0A"/>
<path d="M1.74336 5.42208C1.55439 5.42208 1.55439 5.42208 1.55471 5.19795C1.55471 5.03647 1.55471 5.03647 1.79375 5.03647C1.94072 5.03647 1.94072 5.03647 1.9404 5.27869C1.9404 5.42208 1.9404 5.42208 1.74336 5.42208Z" fill="#E00A0A"/>
<path d="M10.2674 5.03601C10.4505 5.03601 10.4505 5.03601 10.4505 5.21784C10.4505 5.42195 10.4505 5.42195 10.2419 5.42195C10.2219 5.42033 10.2018 5.42033 10.1818 5.42195C10.0888 5.4368 10.0481 5.4016 10.0639 5.30568C10.0658 5.28171 10.0658 5.25763 10.0639 5.23366C10.0645 5.03601 10.0645 5.03601 10.2674 5.03601Z" fill="#E00A0A"/>
</svg>
