<svg width="12" height="12" viewBox="0 0 12 12" fill="none" xmlns="http://www.w3.org/2000/svg">
<path d="M11.4199 9.94415C11.4237 10.334 11.3529 10.6639 11.129 10.9438C10.862 11.2782 10.4925 11.3975 10.084 11.413C9.49155 11.4353 8.94047 11.2592 8.40038 11.039C8.14331 10.9339 7.89251 10.8142 7.64923 10.6804C7.57133 10.6378 7.53804 10.6297 7.51994 10.7397C7.39518 11.4649 6.74164 11.9993 5.99211 11.9973C5.25389 11.9954 4.60552 11.4566 4.4814 10.7339C4.46363 10.6313 4.43098 10.6372 4.35761 10.6768C3.834 10.9558 3.29488 11.195 2.71374 11.3292C2.56083 11.3644 2.40579 11.3897 2.24961 11.405C2.2241 11.407 2.19947 11.4152 2.17781 11.4288C2.15614 11.4424 2.13809 11.461 2.12517 11.483C1.83427 11.8983 1.36594 12.0805 0.889518 11.9667C0.662005 11.9128 0.456294 11.7912 0.299681 11.6179C0.143069 11.4447 0.0429586 11.228 0.0126361 10.9967C-0.0500676 10.5349 0.121883 10.1602 0.499721 9.88385C0.549496 9.84741 0.590544 9.81549 0.596685 9.74519C0.678782 8.93126 1.00975 8.20505 1.396 7.49948C1.67453 6.99534 1.98975 6.51227 2.33914 6.05415C2.39117 5.98514 2.3902 5.93613 2.354 5.86067C2.28031 5.70878 2.21858 5.55142 2.16007 5.39341C2.1381 5.33568 2.12387 5.32085 2.05988 5.34697C1.70854 5.49047 1.35236 5.40211 1.13516 5.12446C0.908911 4.83424 0.90891 4.46855 1.14486 4.15478C1.18623 4.09932 1.17201 4.06514 1.14841 4.01644C0.931213 3.56498 0.744718 3.10449 0.645491 2.61239C0.570182 2.23832 0.538507 1.86264 0.649369 1.48889C0.798695 0.987446 1.19657 0.666262 1.71598 0.603702C2.27676 0.536305 2.80327 0.671744 3.32235 0.854909C3.41673 0.887157 3.47717 0.881675 3.55927 0.820727C4.40545 0.190614 5.35505 -0.0802644 6.40776 0.0209923C7.16222 0.0924804 7.88021 0.378684 8.47634 0.845558C8.4982 0.864558 8.52521 0.876685 8.55396 0.880414C8.58272 0.884144 8.61193 0.879309 8.63794 0.866519C8.98475 0.734304 9.33996 0.632403 9.71166 0.600155C9.79505 0.593061 9.84418 0.555654 9.8946 0.488579C10.1936 0.0906467 10.5927 -0.0673654 11.0831 0.026152C11.302 0.0719357 11.5028 0.180376 11.6609 0.338214C11.8191 0.496051 11.9277 0.696444 11.9735 0.91489C12.0679 1.40505 11.9089 1.80234 11.5146 2.10611C11.4641 2.1448 11.4144 2.17221 11.406 2.25058C11.3229 3.04676 11.0045 3.76104 10.6283 4.45404C10.3495 4.96282 10.0338 5.45053 9.68354 5.91323C9.63344 5.97999 9.63247 6.02287 9.68354 6.08898C9.79667 6.23538 9.90107 6.38888 10.0068 6.54044C10.0362 6.58269 10.0588 6.60816 10.1218 6.59623C10.2751 6.56561 10.4342 6.5833 10.577 6.64686C10.7198 6.71041 10.8393 6.81668 10.9189 6.95095C11.0014 7.08126 11.0419 7.23371 11.0348 7.3877C11.0276 7.54168 10.9733 7.68978 10.8791 7.81196C10.8222 7.88613 10.8287 7.93805 10.8652 8.01286C11.1002 8.49657 11.2919 8.9935 11.3807 9.52591C11.406 9.67682 11.4279 9.82839 11.4199 9.94415ZM6.38772 6.63783C6.38772 6.33954 6.38481 6.04125 6.38772 5.74297C6.39031 5.54626 6.33698 5.33568 6.4097 5.15671C6.48436 4.9729 6.67571 4.86036 6.81566 4.71621C7.03254 4.49306 7.03351 4.49693 7.24618 4.72524C7.28981 4.77232 7.28917 4.7978 7.24392 4.84101C7.10461 4.97516 6.96983 5.11382 6.83247 5.25023C6.81387 5.26503 6.79879 5.28375 6.78829 5.30504C6.77778 5.32634 6.77212 5.34968 6.7717 5.37341C6.77364 6.26408 6.77364 7.15476 6.7717 8.04543C6.7717 8.10412 6.78237 8.13217 6.85024 8.13089C7.05581 8.12702 7.26137 8.12702 7.46694 8.13089C7.53158 8.13089 7.55065 8.11154 7.54903 8.04833C7.54483 7.89935 7.55614 7.74972 7.54515 7.60138C7.53416 7.45305 7.59719 7.37372 7.72357 7.30793C8.26131 7.02478 8.72003 6.61265 9.05845 6.10865C9.11695 6.0232 9.10951 5.97031 9.04778 5.89324C8.17612 4.8035 7.1861 3.81348 6.09586 2.94131C6.02023 2.88037 5.97692 2.88843 5.90484 2.94551C4.80501 3.81795 3.80942 4.81374 2.93773 5.91323C2.87987 5.98579 2.88925 6.0319 2.9345 6.09898C3.27806 6.61437 3.74701 7.03442 4.29749 7.31986C4.40739 7.37694 4.4591 7.45143 4.45296 7.57784C4.44553 7.7307 4.45554 7.88419 4.4494 8.03737C4.4465 8.11379 4.47235 8.13411 4.54637 8.13089C4.73157 8.12605 4.91742 8.12347 5.10262 8.13089C5.20152 8.1354 5.23191 8.10992 5.22997 8.00673C5.22512 7.26117 5.20928 6.51497 5.23546 5.77038C5.2471 5.43694 5.16532 5.19186 4.90514 4.97903C4.68083 4.79522 4.69731 4.77942 4.90902 4.56981C4.96138 4.51789 4.98982 4.5137 5.04218 4.56981C5.19247 4.72717 5.346 4.88164 5.50405 5.03127C5.54115 5.0646 5.57039 5.10571 5.58967 5.15165C5.60895 5.1976 5.61779 5.24723 5.61556 5.29699C5.61201 6.20378 5.61556 7.11058 5.61136 8.01737C5.61136 8.10573 5.63075 8.13572 5.72352 8.13185C5.90872 8.12411 6.09457 8.12379 6.27977 8.13185C6.37512 8.13637 6.39128 8.10251 6.39063 8.01608C6.38546 7.55785 6.38772 7.09703 6.38772 6.63783ZM9.38134 6.32987C9.06265 6.79262 8.7 7.187 8.23231 7.45208C7.97729 7.59655 7.88873 7.76584 7.93495 8.03253C7.93543 8.0366 7.93543 8.04071 7.93495 8.04478C7.92719 8.10251 7.94788 8.12218 8.00994 8.13476C8.20387 8.17474 8.31958 8.32469 8.32152 8.52366C8.32152 8.64846 8.32152 8.77357 8.32152 8.89837C8.31925 9.08928 8.20354 9.24374 8.01543 9.27889C7.93527 9.29405 7.93463 9.32952 7.93334 9.3895C7.93204 9.44948 7.94109 9.47625 8.0122 9.49011C8.20613 9.52752 8.3199 9.68102 8.32184 9.8803C8.32184 10.0012 8.31958 10.1222 8.32184 10.2431C8.32796 10.3201 8.30668 10.3969 8.26172 10.4598C8.21162 10.5243 8.23942 10.5449 8.2976 10.5685C8.4689 10.6381 8.63633 10.7184 8.81054 10.7797C9.26821 10.9409 9.73106 11.077 10.2262 11.0083C10.5986 10.957 10.8642 10.7723 10.9712 10.3992C11.021 10.2208 11.0382 10.035 11.022 9.85064C10.9741 9.25471 10.7634 8.7094 10.5126 8.17377C10.4864 8.11766 10.4609 8.09606 10.3936 8.11186C10.2227 8.15073 10.0433 8.12341 9.89169 8.03543C9.46376 7.80132 9.35322 7.26859 9.64928 6.87453C9.67514 6.8397 9.72621 6.81358 9.6816 6.75263C9.57979 6.61913 9.48573 6.47918 9.38134 6.32987ZM2.62615 6.34019C2.61054 6.35474 2.59586 6.37025 2.58219 6.38662C2.16912 6.95321 1.79193 7.54269 1.48746 8.17539C1.27091 8.62685 1.08959 9.08831 1.00555 9.58492C0.989714 9.67811 1.01783 9.6836 1.09282 9.67973C1.1732 9.67406 1.25395 9.67731 1.33361 9.6894C1.94546 9.79743 2.33009 10.2699 2.32007 10.899C2.32007 10.9799 2.3233 11.0083 2.42059 10.9915C2.85208 10.9177 3.2561 10.7632 3.65591 10.5923C3.75288 10.5514 3.79425 10.5169 3.71506 10.4201C3.68015 10.3772 3.67692 10.316 3.67789 10.2589C3.67951 10.1299 3.67789 10.0009 3.67789 9.87192C3.68048 9.68198 3.79683 9.52752 3.98527 9.49301C4.06736 9.47818 4.06349 9.44013 4.06607 9.38176C4.06866 9.32339 4.05476 9.2963 3.98624 9.28244C3.79231 9.24374 3.67951 9.09057 3.67789 8.89128C3.67789 8.76229 3.67563 8.6333 3.67789 8.50431C3.68112 8.35436 3.74674 8.2157 3.88636 8.18184C4.08029 8.13379 4.07706 8.01447 4.0651 7.86904C4.06203 7.81673 4.06203 7.7643 4.0651 7.71199C4.06825 7.6923 4.065 7.67213 4.0558 7.65442C4.04661 7.63672 4.03197 7.62243 4.01403 7.61364C3.45806 7.30301 2.98266 6.8669 2.62583 6.34019H2.62615ZM5.66631 2.63367C5.66017 2.6211 5.6592 2.61626 5.65629 2.61433C5.01557 2.12624 4.32165 1.71193 3.58771 1.37925C3.53665 1.35668 3.50853 1.37119 3.4733 1.40537C3.34761 1.52482 3.23064 1.65306 3.12326 1.78912C2.4639 2.63808 2.21384 3.59422 2.37307 4.65752C2.42232 4.99089 2.52364 5.31449 2.67334 5.61656C3.55687 4.51456 4.5606 3.51411 5.66598 2.63367H5.66631ZM9.33156 5.62301C9.60145 5.01418 9.71942 4.39922 9.65995 3.75072C9.57559 2.83006 9.19226 2.05612 8.53548 1.41085C8.48571 1.36152 8.44854 1.36216 8.38939 1.38893C7.89916 1.61385 7.42734 1.87672 6.97824 2.17512C6.76071 2.31797 6.54481 2.46309 6.33181 2.62948C6.88381 3.06707 7.41032 3.53574 7.90877 4.03321C8.41299 4.53568 8.88803 5.06648 9.33156 5.62301ZM3.8799 1.08419C4.61909 1.42795 5.30204 1.86071 5.95235 2.34409C6.0115 2.38827 6.04027 2.34893 6.07614 2.32217C6.38384 2.09428 6.70016 1.8793 7.0251 1.67722C7.37753 1.45865 7.74205 1.26012 8.11692 1.08258C6.90745 0.161913 5.0842 0.166428 3.8799 1.08419ZM3.12067 1.19705C2.67205 1.04904 2.23506 0.939075 1.77125 0.992606C1.36432 1.04033 1.09702 1.28057 1.00717 1.68334C0.956424 1.91133 0.966766 2.139 1.00135 2.36699C1.07601 2.85973 1.25346 3.31958 1.45999 3.77007C1.50072 3.85907 1.53336 3.92421 1.65198 3.87939C1.71016 3.86117 1.77254 3.86117 1.83072 3.87939C1.92607 3.90777 1.94417 3.87326 1.94998 3.78684C1.97735 3.35311 2.07561 2.92677 2.24088 2.52468C2.44472 2.02921 2.74357 1.57823 3.12067 1.19705ZM10.0426 4.69138C10.1522 4.49628 10.2666 4.30441 10.3707 4.10577C10.6399 3.59142 10.8665 3.06063 10.98 2.48759C11.0123 2.32346 11.0107 2.32313 10.8558 2.3241C10.5958 2.32804 10.342 2.24497 10.1348 2.08815C9.9277 1.93133 9.77916 1.70979 9.71296 1.4589C9.68125 1.32976 9.66938 1.19657 9.67772 1.06387C9.67772 1.03517 9.69292 0.990671 9.637 0.999378C9.37997 1.03809 9.12805 1.10514 8.88585 1.19931C9.818 2.18995 10.1958 3.34763 10.0426 4.69138ZM10.8416 1.93745C11.0453 1.93414 11.2397 1.85201 11.3838 1.70839C11.528 1.56478 11.6105 1.37091 11.6141 1.16771C11.613 0.962426 11.5311 0.765804 11.3859 0.620284C11.2408 0.474763 11.0441 0.392016 10.8384 0.389902C10.6322 0.392701 10.4354 0.476446 10.2906 0.622997C10.1458 0.769548 10.0647 0.967103 10.0649 1.17287C10.0696 1.37574 10.1531 1.56887 10.2978 1.71151C10.4424 1.85416 10.6369 1.93517 10.8403 1.93745H10.8416ZM1.16231 11.6117C1.36621 11.6094 1.56121 11.528 1.706 11.3847C1.85079 11.2414 1.93401 11.0476 1.93803 10.8442C1.93762 10.6388 1.85622 10.4419 1.71142 10.2959C1.56663 10.1499 1.37008 10.0667 1.16425 10.0641C0.960353 10.0663 0.765311 10.1476 0.620493 10.2908C0.475676 10.434 0.392474 10.6279 0.388535 10.8313C0.389104 11.0364 0.47037 11.2331 0.614841 11.3791C0.759313 11.525 0.955441 11.6085 1.16102 11.6117H1.16231ZM6.00342 10.6442C5.65273 10.6442 5.30237 10.6465 4.952 10.6426C4.87185 10.6426 4.86021 10.6604 4.87993 10.7394C4.94426 10.9864 5.08798 11.2057 5.28908 11.3635C5.49018 11.5213 5.73757 11.6091 5.9934 11.6133C6.25137 11.6124 6.50184 11.5266 6.70593 11.3692C6.91001 11.2117 7.05629 10.9915 7.12207 10.7426C7.14469 10.6549 7.12207 10.643 7.04256 10.6436C6.69478 10.6459 6.34829 10.6439 6.00245 10.6439L6.00342 10.6442ZM6.00116 8.51592H4.32044C4.0651 8.51592 4.0706 8.51592 4.06187 8.7739C4.05864 8.87902 4.08449 8.9074 4.19277 8.90708C5.34988 8.90256 6.50667 8.90418 7.66345 8.90418C7.93883 8.90418 7.93463 8.90418 7.93851 8.62814C7.93851 8.53914 7.91814 8.51334 7.82603 8.51398C7.21709 8.51785 6.60848 8.5156 5.99987 8.5156L6.00116 8.51592ZM6.01409 9.87031H4.32076C4.06478 9.87031 4.06995 9.87031 4.06219 10.1283C4.05928 10.2315 4.08223 10.2624 4.19148 10.2621C5.34826 10.2573 6.50537 10.2592 7.66216 10.2592C7.93786 10.2592 7.93237 10.2592 7.93851 9.98414C7.94109 9.88095 7.90134 9.86934 7.81407 9.86966C7.21386 9.8716 6.61333 9.86999 6.01279 9.86999L6.01409 9.87031ZM6.00148 9.48334C6.47725 9.48334 6.9527 9.48334 7.42847 9.48334C7.50055 9.48334 7.55776 9.4914 7.55453 9.38241C7.55259 9.28115 7.50314 9.2876 7.43461 9.2876C6.47919 9.2876 5.52377 9.2876 4.56835 9.2876C4.4995 9.2876 4.45005 9.28147 4.44811 9.38241C4.44617 9.4914 4.50241 9.48334 4.57416 9.48334C5.04864 9.48334 5.52442 9.48398 6.00019 9.48398L6.00148 9.48334ZM10.6461 7.35501C10.6439 7.25308 10.6023 7.15594 10.53 7.08384C10.4578 7.01175 10.3604 6.97026 10.2582 6.96804C10.1565 6.97099 10.0597 7.01276 9.98792 7.08476C9.91612 7.15675 9.87474 7.25348 9.8723 7.35501C9.87468 7.4569 9.91631 7.55395 9.98854 7.62601C10.0608 7.69807 10.158 7.7396 10.2602 7.74198C10.3618 7.73878 10.4584 7.6968 10.5299 7.62469C10.6015 7.55257 10.6426 7.45582 10.6448 7.35437L10.6461 7.35501ZM1.7386 4.25927C1.65973 4.26217 1.58352 4.28848 1.51972 4.33484C1.45593 4.3812 1.40744 4.44549 1.38048 4.5195C1.35411 4.59378 1.35147 4.6744 1.37295 4.75023C1.39443 4.82607 1.43896 4.89338 1.50039 4.94291C1.56092 4.99353 1.63587 5.02389 1.71464 5.02967C1.79341 5.03546 1.87201 5.01639 1.93932 4.97516C1.96668 4.96275 1.98877 4.94108 2.00166 4.914C2.01456 4.88691 2.01743 4.85614 2.00978 4.82714C1.9878 4.70073 1.97196 4.57335 1.9558 4.44598C1.93512 4.29764 1.89051 4.25798 1.73602 4.25991L1.7386 4.25927Z" fill="#E00A0A"/>
</svg>
