<svg width="12" height="12" viewBox="0 0 12 12" fill="none" xmlns="http://www.w3.org/2000/svg">
<path d="M1.5958 4.64846C1.24043 4.9594 0.903076 5.25532 0.564386 5.55022C0.523343 5.58596 0.520006 5.61101 0.564386 5.64842C0.903409 5.94299 1.24121 6.23824 1.57779 6.53415C1.5888 6.52513 1.59981 6.52045 1.59947 6.51611C1.58379 6.22989 1.69257 6.18981 1.94551 6.19849C2.19844 6.20718 2.44603 6.2045 2.69463 6.19849C2.78472 6.19615 2.80408 6.22588 2.80341 6.31105C2.80141 6.59961 2.80341 6.59961 2.51077 6.59961C2.36928 6.59961 2.2278 6.60261 2.08632 6.59961C2.02159 6.5976 1.99756 6.61698 2.0009 6.68377C2.0059 6.77929 2.0009 6.87548 2.0029 6.97134C2.0049 7.06719 1.97454 7.14334 1.88277 7.18375C1.79101 7.22416 1.71593 7.1931 1.64352 7.13031C1.25267 6.78675 0.861143 6.44386 0.468952 6.10164C0.343821 5.99175 0.216687 5.88388 0.0932241 5.77233C-0.0302391 5.66077 -0.0319075 5.54087 0.0932241 5.43099C0.611769 4.9741 1.13154 4.51854 1.65253 4.06432C1.72094 4.0042 1.79635 3.98049 1.88211 4.0179C1.97353 4.05798 2.0059 4.13312 2.0029 4.22998C1.9999 4.32683 2.0029 4.43037 2.0029 4.53057C2.0029 4.58434 2.01958 4.60371 2.07431 4.60304C2.36528 4.60104 2.65592 4.60304 2.95724 4.60304C2.89825 4.39619 2.85366 4.1855 2.82376 3.97248C2.77513 3.55799 2.80916 3.13796 2.92387 2.73673C2.96258 2.60313 2.96258 2.60313 2.81676 2.60313C1.92615 2.60313 1.03521 2.60146 0.144611 2.60514C0.042837 2.60514 -0.000875645 2.59211 0.00379594 2.47154C0.0138065 2.20435 0.00646607 2.20235 0.279754 2.20235C1.18704 2.20235 2.09466 2.20235 3.00195 2.20435C3.09238 2.20435 3.13843 2.1793 3.18381 2.09781C3.71036 1.15163 4.51221 0.588528 5.58133 0.435563C6.89338 0.247863 8.18607 0.918173 8.81506 2.0918C8.86211 2.17964 8.9115 2.20602 9.00627 2.20469C9.37666 2.19901 9.74704 2.20235 10.1174 2.20235C10.3413 2.20235 10.3914 2.25278 10.3971 2.48123C10.3971 2.49726 10.4001 2.51463 10.4017 2.53032C10.4495 2.53366 10.4685 2.49492 10.4945 2.47221C10.7993 2.20725 11.1032 1.94139 11.4065 1.67465C11.4398 1.64359 11.5109 1.61821 11.4352 1.55241C11.0961 1.2585 10.7591 0.961925 10.4218 0.667015C10.4111 0.676033 10.4004 0.681043 10.4007 0.685719C10.4154 0.972613 10.307 1.01169 10.0547 1.00334C9.80244 0.994989 9.55418 0.998997 9.30525 1.00334C9.23017 1.00334 9.19647 0.992652 9.19647 0.903143C9.19647 0.602556 9.19213 0.602556 9.48977 0.602556C9.63126 0.602556 9.77307 0.59955 9.91422 0.602556C9.98096 0.60456 10.0026 0.584187 9.99931 0.518057C9.99464 0.422203 9.99931 0.32635 9.99764 0.230496C9.99597 0.134642 10.0257 0.0581586 10.1174 0.0180803C10.2092 -0.021998 10.2843 0.00839492 10.3564 0.0715183C10.747 0.415301 11.1385 0.758193 11.5309 1.10019C11.6564 1.20974 11.7835 1.31762 11.9066 1.42951C12.0298 1.54139 12.0324 1.66129 11.9066 1.77117C11.3863 2.22718 10.8656 2.68206 10.3443 3.13584C10.2776 3.19562 10.2009 3.21967 10.1148 3.18193C10.023 3.14185 9.99097 3.06737 9.99397 2.97018C9.99697 2.87299 9.9923 2.76979 9.99397 2.6696C9.99564 2.61582 9.97729 2.59679 9.92256 2.59712C9.63159 2.59912 9.34095 2.59712 9.03963 2.59712C9.09859 2.80398 9.14319 3.01467 9.17311 3.22769C9.22214 3.64217 9.18811 4.06227 9.073 4.46343C9.0343 4.59703 9.03463 4.59703 9.18078 4.59703C10.0714 4.59703 10.9623 4.59703 11.8529 4.59469C11.955 4.59469 11.9981 4.60838 11.9934 4.72829C11.9834 4.99714 11.9911 4.99748 11.7175 4.99748C10.8058 4.99748 9.8942 4.99748 8.98124 4.99547C8.90082 4.99547 8.85678 5.01718 8.81673 5.09033C8.26982 6.08995 7.42527 6.65238 6.29808 6.78965C6.21099 6.80033 6.1893 6.82505 6.19197 6.90855C6.19831 7.10894 6.19698 7.30933 6.19197 7.50972C6.19197 7.58053 6.21166 7.60591 6.28307 7.60056C6.34088 7.59304 6.39958 7.59621 6.45625 7.60992C6.54835 7.63864 6.59373 7.71011 6.59339 7.81031C6.59339 8.21877 6.59706 8.6269 6.59106 9.03537C6.58672 9.34831 6.3131 9.59947 5.99043 9.5988C5.66775 9.59814 5.39914 9.34397 5.39547 9.03103C5.39046 8.63024 5.39347 8.22946 5.39547 7.83135C5.39547 7.66836 5.46688 7.59322 5.63439 7.60324C5.76152 7.61092 5.80723 7.57752 5.79789 7.44326C5.78488 7.2609 5.79255 7.07587 5.79589 6.89352C5.79589 6.82939 5.78454 6.80267 5.7108 6.79332C4.56826 6.65973 3.7137 6.09195 3.16312 5.07697C3.15219 5.0508 3.13308 5.02887 3.10866 5.01448C3.08423 5.00009 3.05581 4.99401 3.02764 4.99714C2.64457 5.00048 2.26017 4.99714 1.87877 4.99714C1.6542 4.99714 1.60348 4.94671 1.59814 4.71927C1.60181 4.70557 1.59914 4.68887 1.5958 4.64846ZM5.98575 6.39989C6.72842 6.4006 7.4411 6.1067 7.96771 5.58256C8.49432 5.05841 8.79193 4.34675 8.79538 3.60342C8.80138 2.0771 7.54273 0.807958 6.01579 0.800276C4.47183 0.792928 3.20516 2.04872 3.19982 3.59173C3.19449 5.12606 4.45314 6.39554 5.98575 6.39989ZM5.79722 8.52504C5.79722 8.64995 5.79722 8.77486 5.79722 8.89977C5.79722 9.10016 5.86696 9.20036 6.00044 9.19835C6.13391 9.19635 6.19764 9.09515 6.19764 8.89342V8.29225C6.19764 7.98699 6.19764 7.98932 5.88799 7.99567C5.81925 7.99567 5.79289 8.01304 5.79556 8.08618C5.80123 8.23347 5.79756 8.37942 5.79722 8.52504Z" fill="#E00A0A"/>
<path d="M3.21545 7.79995H3.90218C4.18214 7.79995 4.22652 7.84972 4.21818 8.12659C4.19849 8.79456 4.46076 9.33094 5.01501 9.699C5.59963 10.0871 6.22796 10.1202 6.84727 9.79084C7.46659 9.46153 7.78159 8.92482 7.80061 8.22111C7.80261 8.1503 7.79661 8.0795 7.79794 8.00869C7.80061 7.88144 7.87169 7.80262 7.99815 7.80229C8.53071 7.80006 9.06327 7.80006 9.59583 7.80229C9.72063 7.80229 9.79371 7.88111 9.79604 8.00936C9.79871 8.27187 9.79871 8.53428 9.79604 8.79657C9.79604 8.92281 9.71896 8.99696 9.59216 8.9993C9.45502 9.00264 9.31754 9.00364 9.1804 8.9993C9.11766 8.99662 9.09197 9.02201 9.07695 9.07711C9.01148 9.31348 8.91617 9.54053 8.79332 9.75277C8.76262 9.80687 8.76796 9.84027 8.81034 9.88235C8.90577 9.96986 8.99653 10.0617 9.08596 10.1549C9.19708 10.2701 9.20142 10.37 9.09197 10.4815C8.82369 10.7547 8.55307 11.0257 8.28011 11.2944C8.168 11.4047 8.06823 11.4013 7.95377 11.2911C7.86401 11.2046 7.77392 11.1178 7.68983 11.0256C7.64278 10.9738 7.6044 10.9641 7.541 11.0009C7.33637 11.1205 7.11678 11.2123 6.88798 11.2741C6.81391 11.2938 6.79222 11.3312 6.79589 11.4047C6.80156 11.5292 6.79889 11.6545 6.79589 11.7794C6.79389 11.9223 6.72248 11.9975 6.583 11.9985C6.1917 12.0005 5.80051 12.0005 5.40943 11.9985C5.27595 11.9985 5.20221 11.9237 5.19954 11.7894C5.19687 11.6552 5.1952 11.5222 5.19954 11.3886C5.20221 11.3218 5.18086 11.2924 5.11746 11.2754C4.88454 11.213 4.66084 11.1203 4.45209 10.9995C4.3957 10.9661 4.35866 10.9681 4.31294 11.0179C4.22552 11.1128 4.13309 11.2029 4.03999 11.2921C3.92587 11.4017 3.82676 11.4033 3.71364 11.2921C3.44403 11.0263 3.1763 10.7584 2.91047 10.4885C2.79368 10.3703 2.79601 10.2721 2.91047 10.1546C2.99456 10.0677 3.07898 9.98122 3.16707 9.89905C3.21979 9.85029 3.23714 9.81122 3.19543 9.74041C3.07536 9.53593 2.98397 9.31588 2.92381 9.08647C2.9058 9.018 2.87309 8.99495 2.80202 8.99863C2.67355 9.00497 2.54408 9.0023 2.41528 8.99863C2.27446 8.99596 2.20172 8.92315 2.20072 8.7812C2.19872 8.52715 2.19872 8.2731 2.20072 8.01905C2.20072 7.87176 2.27547 7.80129 2.42696 7.80029C2.69124 7.79895 2.95351 7.79995 3.21545 7.79995ZM3.20177 8.19906H2.71493C2.48936 8.19906 2.63418 8.36606 2.60581 8.45423C2.58112 8.52971 2.58212 8.62122 2.7206 8.60352C2.82705 8.58983 2.93683 8.60152 3.04494 8.60085C3.17241 8.60085 3.24816 8.66264 3.27418 8.78554C3.34425 9.11994 3.47389 9.43898 3.65692 9.72739C3.72366 9.83493 3.71398 9.93112 3.62355 10.0193C3.53312 10.1075 3.45204 10.1893 3.36361 10.2714C3.3239 10.3082 3.32257 10.3339 3.36194 10.3716C3.51766 10.5231 3.67071 10.6762 3.82109 10.8312C3.86347 10.875 3.8905 10.8736 3.93087 10.8312C4.01329 10.743 4.10072 10.6595 4.18581 10.5737C4.2709 10.4879 4.35699 10.4752 4.45609 10.5373C4.75469 10.7272 5.08477 10.8621 5.43078 10.9357C5.54657 10.9601 5.6043 11.0396 5.6003 11.1629C5.59663 11.2794 5.6003 11.3966 5.6003 11.5129C5.59829 11.5737 5.61131 11.6027 5.68138 11.6014C5.8936 11.5974 6.10583 11.5974 6.31805 11.6014C6.38279 11.6014 6.40614 11.5833 6.40381 11.5169C6.39914 11.3963 6.40381 11.2754 6.40381 11.1545C6.40381 11.0269 6.46654 10.9524 6.58934 10.9264C6.92336 10.8559 7.24206 10.726 7.53033 10.543C7.63744 10.4762 7.73354 10.4865 7.82163 10.5784C7.90205 10.6625 7.98681 10.743 8.06455 10.8299C8.10927 10.88 8.13797 10.8773 8.18335 10.8299C8.33083 10.6774 8.48088 10.5272 8.63349 10.3793C8.6782 10.3359 8.67353 10.3089 8.63115 10.2691C8.53939 10.187 8.45563 10.0998 8.37021 10.0159C8.28479 9.93212 8.27211 9.84428 8.33484 9.74542C8.52481 9.44601 8.65953 9.1149 8.73259 8.76784C8.73974 8.71747 8.76621 8.67186 8.80639 8.64068C8.84656 8.60951 8.89729 8.59522 8.94782 8.60085C8.99754 8.60085 9.04792 8.60085 9.09764 8.60085C9.40396 8.60085 9.40096 8.60085 9.39796 8.29459C9.39796 8.2161 9.3736 8.1974 9.29785 8.19806C8.96417 8.20207 8.63115 8.20207 8.2988 8.19806C8.22005 8.19806 8.19536 8.21677 8.19236 8.30026C8.15598 9.39039 7.27105 10.3129 6.18758 10.3957C4.92759 10.4915 3.85646 9.54803 3.80374 8.29158C3.8004 8.20942 3.77037 8.19673 3.7013 8.1984C3.53479 8.20207 3.36828 8.19906 3.20177 8.19906Z" fill="#E00A0A"/>
<path d="M0.402658 0.801976C0.402658 0.999027 0.402659 0.999027 0.173084 0.999027C0.00390649 0.999027 0.00390625 0.999027 0.00390625 0.753882C0.00390625 0.599914 0.00390633 0.599915 0.252167 0.599915C0.402659 0.600249 0.402658 0.600248 0.402658 0.801976Z" fill="#E00A0A"/>
<path d="M0.802734 0.791288C0.802734 0.599914 0.802734 0.599915 1.00128 0.599915C1.19982 0.599915 1.20149 0.599915 1.20149 0.800306C1.20149 1.0007 1.20149 0.997692 1.00962 0.997692C0.802734 0.99836 0.802734 0.998359 0.802734 0.791288Z" fill="#E00A0A"/>
<path d="M1.79276 0.998389C1.60156 0.998389 1.60156 0.998389 1.60156 0.800001C1.60156 0.601613 1.60156 0.599609 1.80177 0.599609C2.00198 0.599609 1.99931 0.59961 1.99931 0.791986C2.00165 0.998389 2.00165 0.998389 1.79276 0.998389Z" fill="#E00A0A"/>
<path d="M2.8011 0.800974C2.8011 0.999028 2.8011 0.999027 2.57252 0.999027C2.40234 0.999027 2.40234 0.999027 2.40234 0.754884C2.40234 0.599914 2.40234 0.599915 2.6496 0.599915C2.8011 0.600249 2.8011 0.600248 2.8011 0.800974Z" fill="#E00A0A"/>
<path d="M3.39137 0.998347C3.20117 0.998347 3.20117 0.998347 3.20117 0.811314C3.20117 0.599233 3.20117 0.599233 3.41606 0.599233C3.43261 0.600571 3.44924 0.600571 3.46578 0.599233C3.57156 0.581198 3.62228 0.617602 3.59926 0.730824C3.59742 0.75149 3.59742 0.772279 3.59926 0.792945C3.59992 0.998347 3.59992 0.998347 3.39137 0.998347Z" fill="#E00A0A"/>
<path d="M8.79495 0.804648C8.79495 0.999028 8.79495 0.999027 8.56137 0.999027C8.39453 0.999027 8.39453 0.999028 8.39453 0.750876C8.39453 0.599914 8.39453 0.599915 8.6458 0.599915C8.79495 0.600249 8.79495 0.600249 8.79495 0.804648Z" fill="#E00A0A"/>
<path d="M3.39971 6.2002C3.59992 6.2002 3.59992 6.2002 3.59992 6.439C3.59992 6.59931 3.59992 6.59931 3.35834 6.59897C3.20117 6.59897 3.20117 6.59897 3.20117 6.35416C3.20151 6.2002 3.20151 6.2002 3.39971 6.2002Z" fill="#E00A0A"/>
<path d="M8.79524 6.39554C8.79524 6.59928 8.79524 6.59928 8.55966 6.59894C8.39648 6.59894 8.39648 6.59894 8.39648 6.36014C8.39648 6.19983 8.39648 6.19983 8.65075 6.20016C8.79524 6.20016 8.79524 6.20016 8.79524 6.39554Z" fill="#E00A0A"/>
<path d="M9.59378 6.4049C9.59378 6.59928 9.59378 6.59928 9.3602 6.59894C9.19336 6.59894 9.19336 6.59894 9.19336 6.35079C9.19336 6.19983 9.19336 6.19983 9.44462 6.20016C9.59378 6.20016 9.59378 6.20016 9.59378 6.4049Z" fill="#E00A0A"/>
<path d="M9.99414 6.40256C9.99414 6.19983 9.99414 6.19983 10.2307 6.20016C10.3929 6.20016 10.3929 6.20016 10.3929 6.43996C10.3929 6.59927 10.3929 6.59927 10.1373 6.59894C9.99414 6.59894 9.99414 6.59894 9.99414 6.40256Z" fill="#E00A0A"/>
<path d="M10.9882 6.59895C10.793 6.59895 10.793 6.59895 10.793 6.36749C10.793 6.2005 10.793 6.2005 11.0399 6.2005C11.1917 6.2005 11.1917 6.2005 11.1917 6.45066C11.1917 6.59895 11.1917 6.59895 10.9882 6.59895Z" fill="#E00A0A"/>
<path d="M11.5938 6.38953C11.5938 6.20016 11.5938 6.20016 11.7816 6.20016C11.9925 6.20016 11.9925 6.20016 11.9925 6.41592C11.9908 6.43659 11.9908 6.45737 11.9925 6.47804C12.0079 6.57423 11.9715 6.61631 11.8724 6.59961C11.8476 6.59761 11.8227 6.59761 11.798 6.59961C11.5938 6.59894 11.5938 6.59894 11.5938 6.38953Z" fill="#E00A0A"/>
<path d="M6.00381 1.19873C6.63655 1.19926 7.24332 1.45064 7.69133 1.89787C8.13935 2.3451 8.39211 2.95175 8.39432 3.58506C8.39432 4.917 7.3312 5.99611 6.01582 5.99744C4.66606 5.99744 3.60028 4.93503 3.59961 3.58506C3.59894 2.26749 4.67341 1.20174 6.00381 1.19873ZM3.99903 3.59408C3.99336 4.68989 4.89564 5.59365 5.99913 5.59799C7.08161 5.60267 7.98956 4.70024 7.99523 3.61445C8.00091 2.51697 7.10897 1.60619 6.02016 1.59784C5.75637 1.59604 5.49481 1.64629 5.25043 1.74573C5.00606 1.84517 4.78366 1.99184 4.59595 2.17735C4.40825 2.36287 4.25891 2.5836 4.15649 2.82692C4.05406 3.07024 4.00056 3.33138 3.99903 3.59541V3.59408Z" fill="#E00A0A"/>
<path d="M7.37121 3.59909C7.28178 3.61211 7.19936 3.61679 7.17667 3.44913C7.09759 2.86298 6.70017 2.48558 6.10454 2.40809C6.02046 2.3974 5.99576 2.37469 5.9961 2.29053C5.9981 1.96489 5.9961 1.96489 6.32211 2.02868C6.99281 2.15994 7.53438 2.76345 7.59311 3.44345C7.60646 3.59909 7.60646 3.59909 7.37121 3.59909Z" fill="#E00A0A"/>
<path d="M4.62253 3.60006C4.71663 3.58503 4.79638 3.5847 4.81874 3.75102C4.89882 4.3365 5.29557 4.7129 5.89253 4.79072C5.97762 4.80208 6.00031 4.82412 5.99964 4.90929C5.99764 5.22858 5.99964 5.22858 5.68531 5.1718C5.01427 5.05023 4.45769 4.43536 4.40263 3.7547C4.39028 3.60006 4.39028 3.60006 4.62253 3.60006Z" fill="#E00A0A"/>
</svg>
