<svg width="12" height="14" viewBox="0 0 12 14" fill="none" xmlns="http://www.w3.org/2000/svg">
<path d="M6.15805 0C6.241 0.0264729 6.32606 0.0483573 6.40513 0.0811838C6.64452 0.177001 6.84135 0.355896 6.95954 0.585072C7.07772 0.814247 7.10934 1.07834 7.0486 1.32894C7.02459 1.4306 7.05425 1.46554 7.13225 1.51072C8.08222 2.05618 9.03042 2.60411 9.97686 3.15452C10.0665 3.20676 10.1131 3.19546 10.1862 3.1284C10.3466 2.97866 10.5491 2.88175 10.7664 2.85076C10.9837 2.81977 11.2052 2.85618 11.4011 2.95509C11.8007 3.1531 12.0319 3.57138 11.9948 4.03095C11.9595 4.45451 11.6545 4.83184 11.2253 4.95891C11.141 4.98397 11.1159 5.0175 11.1163 5.10257C11.1188 6.20855 11.1188 7.31359 11.1163 8.41769C11.1163 8.50876 11.1431 8.54158 11.2317 8.57017C11.6588 8.7096 11.9231 9.0068 11.987 9.45049C12.0492 9.88288 11.8864 10.2348 11.5324 10.4953C11.4646 10.5447 11.3933 10.5719 11.3104 10.5415C11.2767 10.5299 11.2471 10.5089 11.2249 10.4812C11.2026 10.4534 11.1887 10.4198 11.1847 10.3845C11.1717 10.2969 11.2154 10.2323 11.2857 10.1843C11.4929 10.0431 11.6034 9.84829 11.6034 9.5945C11.6021 9.44135 11.5494 9.29306 11.4538 9.17343C11.3582 9.05379 11.2251 8.96976 11.076 8.93479C10.9267 8.90037 10.7701 8.91669 10.6311 8.98119C10.492 9.04569 10.3785 9.15468 10.3083 9.29094C10.2374 9.42671 10.2145 9.5825 10.2434 9.73293C10.2723 9.88336 10.3513 10.0196 10.4675 10.1194C10.5007 10.1483 10.5381 10.1713 10.5734 10.1995C10.662 10.274 10.6793 10.3823 10.6193 10.4699C10.605 10.4909 10.5867 10.509 10.5655 10.523C10.5442 10.537 10.5204 10.5466 10.4954 10.5514C10.4704 10.5561 10.4447 10.5559 10.4198 10.5507C10.3949 10.5455 10.3713 10.5354 10.3503 10.5211C10.2818 10.4814 10.2191 10.4325 10.1639 10.3756C10.1103 10.3181 10.0704 10.3213 10.0069 10.358C9.04442 10.9164 8.08081 11.4727 7.11601 12.0268C7.03836 12.0717 7.03342 12.1123 7.05177 12.1934C7.11793 12.4684 7.07367 12.7583 6.92849 13.0011C6.78332 13.2438 6.54879 13.4199 6.27523 13.4917C6.00144 13.5632 5.71052 13.5249 5.4646 13.3849C5.21867 13.2449 5.03723 13.0143 4.959 12.7423C4.9018 12.5559 4.90008 12.3568 4.95406 12.1694C4.97559 12.0988 4.95406 12.0681 4.89582 12.0353C3.9275 11.4778 2.96012 10.9192 1.99368 10.3594C1.9312 10.3241 1.89449 10.3223 1.8366 10.3763C1.48646 10.7053 1.01665 10.778 0.603671 10.5761C0.19987 10.3785 -0.0316796 9.9683 0.00361767 9.50485C0.0346793 9.07034 0.338236 8.70289 0.791806 8.56417C0.870519 8.54052 0.881814 8.50205 0.881814 8.43287C0.880402 7.32359 0.880402 6.21408 0.881814 5.10434C0.881814 5.02033 0.858517 4.98574 0.773451 4.96032C0.549623 4.89571 0.352992 4.75982 0.213415 4.57329C0.0738378 4.38676 -0.00106063 4.15979 8.8804e-05 3.92682C-0.00289037 3.69612 0.0691607 3.47069 0.205394 3.28448C0.341628 3.09828 0.534667 2.96137 0.755449 2.89438C1.1589 2.77366 1.52246 2.85908 1.8306 3.14746C1.89061 3.20358 1.92944 3.20852 1.99791 3.16863C2.95659 2.61235 3.91608 2.05748 4.8764 1.50402C4.92758 1.47472 4.97806 1.45919 4.95759 1.36812C4.81004 0.710181 5.14678 0.181781 5.80719 0.0197664C5.81976 0.0151757 5.83164 0.00888113 5.84249 0.00105887L6.15805 0ZM5.9978 11.3601C6.27765 11.3593 6.54653 11.4689 6.7461 11.665C6.80081 11.7183 6.83681 11.7356 6.91164 11.6919C7.87314 11.132 8.83628 10.5753 9.80108 10.0216C9.8692 9.98277 9.88861 9.951 9.86885 9.8677C9.73119 9.29094 10.0531 8.73078 10.6182 8.56664C10.7065 8.54088 10.7241 8.50346 10.7241 8.42157C10.722 7.31559 10.722 6.21067 10.7241 5.10681C10.7241 5.02633 10.7089 4.9868 10.6182 4.96068C10.051 4.79584 9.73119 4.23814 9.87061 3.66068C9.89073 3.57844 9.87061 3.54526 9.80002 3.50643C8.83523 2.95226 7.87208 2.39562 6.91058 1.83652C6.83752 1.79416 6.80152 1.80722 6.74469 1.86087C6.3123 2.27067 5.68048 2.26997 5.24597 1.85664C5.18314 1.79698 5.14537 1.80298 5.07972 1.8411C4.12104 2.39668 3.16131 2.95038 2.20052 3.50219C2.12992 3.54279 2.1038 3.57667 2.12534 3.66597C2.26652 4.24061 1.94285 4.79548 1.37139 4.96209C1.2895 4.98609 1.27185 5.02209 1.27185 5.09904C1.27397 6.20832 1.27397 7.31759 1.27185 8.42687C1.27185 8.50346 1.28914 8.54017 1.37068 8.56453C1.95203 8.74101 2.26088 9.27894 2.12216 9.873C2.10416 9.94888 2.12463 9.98171 2.18781 10.0181C3.15825 10.5746 4.12587 11.1331 5.09066 11.6936C5.15737 11.7325 5.19196 11.7247 5.24561 11.6714C5.45246 11.4663 5.70624 11.3692 5.9978 11.3604V11.3601ZM6.68574 1.07763C6.6836 0.895163 6.6092 0.720994 6.47886 0.593295C6.34851 0.465596 6.17285 0.394787 5.99038 0.396388C5.81023 0.399251 5.63838 0.472643 5.51173 0.600806C5.38509 0.728969 5.31375 0.901683 5.31303 1.08186C5.31331 1.26429 5.38593 1.43916 5.51496 1.56813C5.64399 1.69709 5.8189 1.76962 6.00133 1.7698C6.18373 1.7685 6.35817 1.69495 6.48646 1.56528C6.61474 1.43561 6.6864 1.26038 6.68574 1.07798V1.07763ZM5.99356 13.1306C6.17603 13.1313 6.35134 13.0597 6.48109 12.9314C6.61084 12.8031 6.68443 12.6286 6.68574 12.4462C6.68578 12.2659 6.61517 12.0929 6.48906 11.9641C6.36295 11.8354 6.19139 11.7612 6.01121 11.7575C5.82884 11.7549 5.65287 11.8247 5.52197 11.9517C5.39106 12.0787 5.31591 12.2525 5.31303 12.4349C5.31124 12.6173 5.38188 12.793 5.50946 12.9234C5.63704 13.0538 5.81113 13.1283 5.99356 13.1306ZM11.6034 3.92294C11.6038 3.83255 11.5862 3.74298 11.5517 3.65943C11.5172 3.57589 11.4665 3.50003 11.4024 3.43628C11.3383 3.37253 11.2622 3.32216 11.1785 3.28809C11.0947 3.25402 11.0051 3.23693 10.9147 3.23782C10.7344 3.23937 10.5619 3.3114 10.4341 3.43852C10.3062 3.56563 10.2332 3.73773 10.2306 3.918C10.2299 4.10023 10.3015 4.27532 10.4298 4.40478C10.5581 4.53423 10.7325 4.60748 10.9147 4.60841C11.0051 4.60949 11.0948 4.59254 11.1786 4.55856C11.2624 4.52458 11.3386 4.47424 11.4027 4.41049C11.4668 4.34674 11.5176 4.27085 11.552 4.18726C11.5865 4.10367 11.6039 4.01405 11.6034 3.92364V3.92294ZM1.06148 4.6077C1.15187 4.61005 1.24184 4.59456 1.32625 4.56213C1.41066 4.52969 1.48785 4.48093 1.55341 4.41865C1.61897 4.35637 1.67161 4.28178 1.70833 4.19915C1.74506 4.11651 1.76513 4.02745 1.76742 3.93706C1.77054 3.75456 1.70104 3.5783 1.57421 3.44704C1.44739 3.31578 1.27362 3.24027 1.09113 3.23711C0.91308 3.23326 0.740609 3.29931 0.61069 3.42111C0.48077 3.54292 0.403744 3.71077 0.396123 3.8887C0.38271 4.28332 0.672853 4.59711 1.06148 4.60841V4.6077ZM0.396123 9.60474C0.395553 9.69508 0.412999 9.78464 0.44744 9.86817C0.481881 9.9517 0.532628 10.0275 0.596712 10.0912C0.660797 10.1549 0.736933 10.2052 0.820672 10.2391C0.904412 10.273 0.994076 10.2899 1.08442 10.2888C1.26465 10.2879 1.43732 10.2162 1.56525 10.0893C1.69319 9.96235 1.76617 9.79025 1.76848 9.61003C1.7689 9.51969 1.7515 9.43016 1.71728 9.34655C1.68307 9.26294 1.6327 9.1869 1.56907 9.12277C1.50543 9.05865 1.42978 9.0077 1.34644 8.97284C1.2631 8.93798 1.1737 8.91989 1.08336 8.91962C0.993015 8.91863 0.903379 8.93566 0.819692 8.96971C0.736005 9.00377 0.659946 9.05416 0.59596 9.11795C0.531975 9.18174 0.481345 9.25764 0.447033 9.34122C0.412721 9.42481 0.395414 9.51439 0.396123 9.60474Z" fill="#E00A0A"/>
<path d="M8.91123 5.31334C8.68003 5.44641 8.47566 5.56536 8.26988 5.6822C8.21481 5.71326 8.22682 5.76338 8.22682 5.80997C8.22682 6.17989 8.22187 6.55121 8.22682 6.91936C8.22999 7.11209 8.15622 7.24657 7.98574 7.33799C7.80925 7.434 7.63523 7.53954 7.4591 7.63943C7.18837 7.79368 6.97235 7.67155 6.97059 7.3627C6.96917 7.08997 6.96917 6.817 6.97059 6.5438C6.97059 6.47321 6.97059 6.42909 6.88058 6.48168C6.67303 6.60522 6.46266 6.72488 6.25123 6.84242C6.23234 6.85238 6.2169 6.86783 6.20695 6.88673C6.197 6.90563 6.19299 6.92709 6.19546 6.94831C6.19546 7.93451 6.19546 8.9206 6.19546 9.90657C6.19546 10.0047 6.23076 9.99376 6.29606 9.95705C7.12978 9.47465 7.96373 8.99284 8.79792 8.51162C8.83495 8.49236 8.86546 8.46258 8.88562 8.42603C8.90578 8.38948 8.91469 8.34779 8.91123 8.30619C8.90817 8.03793 8.90817 7.76944 8.91123 7.50071C8.91123 7.3927 8.96382 7.31328 9.07607 7.29281C9.11751 7.28381 9.16077 7.28918 9.19875 7.30804C9.23673 7.3269 9.26716 7.35813 9.28503 7.39658C9.30423 7.44101 9.31141 7.4897 9.30585 7.53777C9.30585 7.79332 9.30232 8.04852 9.30585 8.30372C9.30938 8.55892 9.19784 8.73788 8.97935 8.86354C8.18822 9.32052 7.39686 9.77809 6.60526 10.2362C6.49478 10.3001 6.38606 10.3665 6.27311 10.4261C6.18862 10.4749 6.09261 10.5002 5.99505 10.4994C5.89749 10.4986 5.80192 10.4717 5.71824 10.4216C4.80334 9.89563 3.88925 9.36793 2.976 8.83848C2.7861 8.72835 2.6915 8.55822 2.69185 8.33584C2.69185 7.28822 2.69185 6.24048 2.69185 5.19262C2.68766 5.08846 2.71301 4.98523 2.76497 4.89486C2.81693 4.80449 2.89339 4.73065 2.98553 4.68187C3.89125 4.15759 4.79722 3.63448 5.70341 3.11255C5.79187 3.05735 5.89405 3.02808 5.99832 3.02808C6.1026 3.02808 6.20477 3.05735 6.29323 3.11255C7.1999 3.63495 8.10586 4.15806 9.01112 4.68187C9.10335 4.73057 9.1799 4.80438 9.23194 4.89476C9.28397 4.98515 9.30935 5.08841 9.30515 5.19262C9.30515 5.63701 9.30515 6.08176 9.30515 6.52651C9.30515 6.66981 9.22643 6.75947 9.11031 6.75982C8.99418 6.76017 8.91158 6.66946 8.91052 6.52792C8.9077 6.18024 8.91052 5.83256 8.91052 5.48453L8.91123 5.31334ZM3.09989 5.33628C3.09476 5.34824 3.0912 5.36082 3.0893 5.3737C3.0893 6.35943 3.0893 7.3454 3.0893 8.33161C3.0883 8.36895 3.09818 8.40578 3.11773 8.43762C3.13728 8.46945 3.16567 8.49492 3.19943 8.51092C4.03385 8.99167 4.86758 9.47406 5.70059 9.9581C5.78566 10.0072 5.80366 9.98493 5.80331 9.89633C5.80189 8.91884 5.80189 7.94169 5.80331 6.9649C5.80565 6.93715 5.79925 6.90937 5.785 6.88544C5.77076 6.86152 5.74939 6.84265 5.72389 6.83147C4.89628 6.35708 4.0695 5.8808 3.24355 5.40264C3.19837 5.37581 3.15884 5.33663 3.09989 5.33628ZM6.76021 6.09694C6.75335 6.08746 6.74542 6.07882 6.73657 6.07117C5.86237 5.56383 4.98806 5.05685 4.11363 4.55021C4.08821 4.53539 4.06386 4.51739 4.02891 4.53786C3.78818 4.67905 3.5464 4.81706 3.30355 4.95754C3.31838 4.97766 3.32191 4.98684 3.32862 4.99072L5.89649 6.47532C5.92398 6.49405 5.95613 6.50475 5.98936 6.50625C6.02258 6.50774 6.05557 6.49997 6.08463 6.4838C6.30982 6.35637 6.53396 6.22683 6.76021 6.09694ZM8.71604 4.96743C7.82584 4.4535 6.96176 3.95581 6.0991 3.45917C6.07555 3.44247 6.04803 3.43224 6.01928 3.42952C5.99054 3.42679 5.96159 3.43166 5.93532 3.44364C5.73377 3.55412 5.53575 3.6706 5.33526 3.78567C5.34041 3.79411 5.34619 3.80213 5.35256 3.80968L7.97303 5.33099C8.00338 5.34899 8.03092 5.36628 8.06939 5.34299C8.27623 5.21945 8.48484 5.1005 8.71604 4.96672V4.96743ZM4.45848 4.29254L7.10295 5.82197C7.13825 5.84209 7.16896 5.86186 7.21167 5.83644C7.3465 5.75632 7.48275 5.67867 7.62041 5.59889C7.61494 5.59129 7.6088 5.5842 7.60205 5.57771C6.72857 5.07014 5.85484 4.56233 4.98088 4.05429C4.96514 4.04258 4.9462 4.03594 4.9266 4.03525C4.90699 4.03455 4.88764 4.03984 4.87111 4.0504C4.7398 4.12982 4.60673 4.20536 4.45848 4.29184V4.29254ZM7.82972 5.93881C7.67688 6.0267 7.54558 6.10364 7.41321 6.17812C7.39932 6.18452 7.38765 6.19493 7.37973 6.20802C7.3718 6.2211 7.36797 6.23626 7.36874 6.25154V7.1615C7.36874 7.21092 7.38815 7.22433 7.43369 7.1968C7.55123 7.12832 7.66982 7.06126 7.78666 6.99349C7.80021 6.98628 7.81141 6.97533 7.81892 6.96194C7.82643 6.94854 7.82993 6.93328 7.82902 6.91795C7.82937 6.60063 7.82972 6.28048 7.82972 5.9381V5.93881Z" fill="#E00A0A"/>
</svg>
