<svg width="12" height="12" viewBox="0 0 12 12" fill="none" xmlns="http://www.w3.org/2000/svg">
<path d="M6.00109 0.00131973C7.91855 -0.0389786 9.56361 1.16578 10.186 2.85412C10.8461 4.64529 10.2719 6.63152 8.7532 7.81661C8.52701 7.99231 8.29112 8.15447 8.11566 8.38659C7.93964 8.61826 7.82155 8.88848 7.7712 9.17482C7.76183 9.2264 7.74277 9.27476 7.83583 9.29378C8.15541 9.35826 8.33507 9.59231 8.32376 9.90213C8.31374 10.1781 8.10694 10.3957 7.79996 10.4424C7.74083 10.4515 7.72984 10.4789 7.72112 10.5259C7.56698 11.329 6.98728 11.8835 6.19497 11.987C5.31443 12.1021 4.42743 11.4389 4.28849 10.5598C4.27589 10.4798 4.25359 10.4499 4.16667 10.4379C4.03612 10.4178 3.91657 10.3533 3.82824 10.2553C3.73991 10.1573 3.68824 10.0318 3.68197 9.90019C3.67195 9.6036 3.84547 9.3631 4.13662 9.30249C4.24648 9.2796 4.2468 9.23479 4.22968 9.14935C4.13952 8.7051 3.92206 8.33952 3.56338 8.06162C3.14557 7.73924 2.73778 7.4046 2.41982 6.97454C1.9424 6.33648 1.64947 5.58003 1.57289 4.78747C1.37901 2.86991 2.47766 1.09195 4.18702 0.3553C4.75858 0.106663 5.37775 -0.0141578 6.00109 0.00131973ZM6.00109 9.28605C6.42116 9.28605 6.83929 9.28411 7.25839 9.28798C7.33918 9.28798 7.37246 9.26606 7.37957 9.18385C7.40154 8.97975 7.45609 8.78047 7.54113 8.59356C7.71918 8.17446 8.02971 7.87367 8.38483 7.60448C9.5788 6.70018 10.1543 5.50478 10.0399 4.00213C9.97173 3.10429 9.61402 2.32282 9.00137 1.66612C8.30049 0.914318 7.43353 0.49038 6.40436 0.405915C5.80785 0.356912 5.21782 0.389796 4.65427 0.599347C3.05057 1.19544 2.13385 2.34475 1.95871 4.04888C1.86403 4.96188 2.10573 5.80169 2.61014 6.56801C2.9071 7.01935 3.30132 7.37397 3.72882 7.69313C4.23226 8.07097 4.54376 8.56358 4.62261 9.19449C4.63295 9.27605 4.67302 9.28637 4.74249 9.28605C5.16353 9.28476 5.58295 9.28572 6.00206 9.28572L6.00109 9.28605ZM6.00367 10.4466C5.59265 10.4466 5.1813 10.4486 4.77028 10.445C4.68336 10.445 4.66171 10.4599 4.68368 10.5527C4.8278 11.1652 5.37906 11.6095 6.00464 11.6075C6.31157 11.6039 6.60831 11.4972 6.84694 11.3045C7.08557 11.1119 7.25215 10.8446 7.31979 10.5459C7.3395 10.4589 7.3172 10.4444 7.23707 10.445C6.82701 10.4473 6.41567 10.4457 6.00464 10.4457L6.00367 10.4466ZM6.00044 9.67291H5.39748C5.03137 9.67291 4.66494 9.67291 4.29883 9.67291C4.15924 9.67291 4.06811 9.75351 4.06844 9.86634C4.06876 9.97918 4.1602 10.0556 4.30012 10.0598C4.31628 10.0598 4.33243 10.0598 4.34859 10.0598C5.45133 10.0598 6.55429 10.0598 7.65746 10.0598C7.7096 10.0648 7.76221 10.0588 7.81192 10.0424C7.84843 10.0292 7.87998 10.0051 7.90228 9.97333C7.92458 9.94161 7.93654 9.9038 7.93654 9.86505C7.93654 9.8263 7.92458 9.78849 7.90228 9.75677C7.87998 9.72504 7.84843 9.70094 7.81192 9.68774C7.76608 9.67242 7.71757 9.66671 7.66942 9.67097L6.00044 9.67291Z" fill="#E00A0A"/>
<path d="M11.9994 7.40139C11.9652 7.85112 11.9287 8.33277 11.8912 8.81441C11.8724 9.05105 11.8563 9.288 11.8311 9.52366C11.8147 9.67102 11.7443 9.80713 11.6334 9.90581C11.5225 10.0045 11.379 10.0588 11.2304 10.0582C11.0793 10.062 10.9324 10.0084 10.8194 9.90838C10.7064 9.80834 10.6355 9.66924 10.6213 9.51915C10.568 8.92274 10.5247 8.32632 10.4775 7.72668C10.4681 7.60643 10.4552 7.48586 10.4532 7.36529C10.4458 6.90621 10.7709 6.5777 11.2288 6.5777C11.6866 6.5777 12.0049 6.90782 11.9994 7.40139ZM10.8394 7.32241C10.8969 8.05971 10.9512 8.7609 11.0074 9.46241C11.0102 9.51835 11.0344 9.57109 11.075 9.60979C11.1155 9.64849 11.1695 9.67019 11.2256 9.67044C11.2817 9.67069 11.3358 9.64946 11.3767 9.61112C11.4177 9.57278 11.4423 9.52026 11.4456 9.46434C11.4592 9.32411 11.4676 9.18387 11.4779 9.04331C11.5225 8.48236 11.5697 7.92173 11.6104 7.36045C11.6269 7.13478 11.4488 6.96134 11.2207 6.96392C10.9977 6.96617 10.8316 7.13833 10.8384 7.32241H10.8394Z" fill="#E00A0A"/>
<path d="M1.5498 7.40171C1.51554 7.85305 1.47903 8.33308 1.44155 8.81473C1.42281 9.05136 1.40665 9.28831 1.38144 9.52398C1.36523 9.67139 1.29488 9.80759 1.18395 9.90629C1.07302 10.005 0.929379 10.0592 0.780743 10.0585C0.465689 10.0585 0.199106 9.83282 0.172609 9.51979C0.119292 8.91435 0.0756692 8.30826 0.0284919 7.70217C0.0152435 7.53002 -0.0203008 7.35722 0.0155668 7.18636C0.101843 6.77596 0.467951 6.52837 0.900302 6.5822C1.28095 6.62863 1.55561 6.96198 1.5498 7.40171ZM0.780419 6.96391C0.542918 6.96198 0.37392 7.14606 0.392662 7.38591C0.407203 7.57032 0.42239 7.75472 0.436931 7.93881C0.477322 8.44785 0.516098 8.9569 0.558105 9.46595C0.560847 9.52247 0.585452 9.57573 0.626746 9.61452C0.668041 9.65331 0.722805 9.67461 0.779519 9.67395C0.836234 9.67328 0.890478 9.65069 0.930843 9.61094C0.971207 9.57118 0.994546 9.51736 0.995949 9.46079C1.0526 8.76358 1.10775 8.06626 1.16139 7.36883C1.17916 7.14251 1.00823 6.96552 0.780419 6.96391Z" fill="#E00A0A"/>
<path d="M0.00395217 11.2171C0.00471965 11.0646 0.0508059 10.9156 0.136387 10.7891C0.221968 10.6627 0.343204 10.5644 0.484772 10.5066C0.626341 10.4489 0.78189 10.4343 0.931763 10.4647C1.08164 10.4951 1.21911 10.5692 1.3268 10.6776C1.4345 10.7859 1.50758 10.9237 1.53683 11.0734C1.56607 11.2232 1.55016 11.3783 1.4911 11.519C1.43204 11.6598 1.33248 11.7799 1.20502 11.8642C1.07755 11.9486 0.927887 11.9933 0.774945 11.9928C0.673077 11.9931 0.572172 11.9731 0.47809 11.9342C0.384008 11.8952 0.298622 11.838 0.226892 11.7658C0.155162 11.6936 0.0985165 11.608 0.0602451 11.5138C0.0219737 11.4196 0.00283899 11.3188 0.00395217 11.2171ZM1.164 11.2239C1.16489 11.1473 1.14299 11.0722 1.10107 11.0081C1.05915 10.944 0.999102 10.8937 0.928521 10.8636C0.85794 10.8336 0.780005 10.8251 0.704583 10.8392C0.629161 10.8534 0.559645 10.8895 0.504837 10.9431C0.45003 10.9967 0.412396 11.0653 0.396701 11.1403C0.381006 11.2152 0.387955 11.2932 0.41667 11.3642C0.445385 11.4352 0.494573 11.4961 0.558006 11.5392C0.621439 11.5823 0.696264 11.6056 0.773006 11.6063C0.874902 11.6047 0.972316 11.5642 1.04509 11.493C1.11787 11.4219 1.16044 11.3255 1.164 11.2239Z" fill="#E00A0A"/>
<path d="M10.4532 11.2175C10.4535 11.0648 10.4993 10.9157 10.5846 10.789C10.67 10.6622 10.7911 10.5636 10.9326 10.5056C11.0742 10.4475 11.2298 10.4327 11.3798 10.4629C11.5298 10.4931 11.6674 10.567 11.7753 10.6753C11.8832 10.7836 11.9565 10.9213 11.9859 11.0711C12.0153 11.221 11.9995 11.3761 11.9405 11.517C11.8815 11.6579 11.7819 11.7781 11.6544 11.8625C11.5269 11.9469 11.3772 11.9917 11.2241 11.9912C11.1224 11.9915 11.0217 11.9716 10.9277 11.9328C10.8338 11.8939 10.7485 11.8369 10.6768 11.7649C10.6051 11.6929 10.5484 11.6075 10.51 11.5135C10.4716 11.4196 10.4523 11.319 10.4532 11.2175ZM11.2229 11.6063C11.2996 11.6072 11.3749 11.5854 11.4392 11.5437C11.5036 11.5019 11.554 11.442 11.5842 11.3716C11.6144 11.3012 11.6229 11.2234 11.6088 11.1481C11.5946 11.0729 11.5584 11.0035 11.5047 10.9488C11.451 10.8941 11.3822 10.8565 11.3071 10.8408C11.232 10.8251 11.1539 10.832 11.0827 10.8607C11.0115 10.8893 10.9504 10.9384 10.9072 11.0017C10.864 11.065 10.8406 11.1396 10.8399 11.2162C10.8417 11.3177 10.8823 11.4147 10.9536 11.4873C11.0248 11.5598 11.1211 11.6024 11.2229 11.6063Z" fill="#E00A0A"/>
<path d="M0.7672 2.70839C0.583984 2.70839 0.583984 2.70839 0.583984 2.52657C0.583984 2.32217 0.583984 2.32217 0.79305 2.32217C0.812944 2.32379 0.832936 2.32379 0.85283 2.32217C0.945892 2.30734 0.986606 2.34248 0.970773 2.43856C0.96883 2.46248 0.96883 2.48652 0.970773 2.51045C0.970126 2.70839 0.970127 2.70839 0.7672 2.70839Z" fill="#E00A0A"/>
<path d="M11.2252 2.70836C11.0352 2.70836 11.0352 2.70836 11.0352 2.48527C11.0352 2.32214 11.0352 2.32214 11.2733 2.32214C11.4213 2.32214 11.4213 2.32214 11.4213 2.56329C11.419 2.70836 11.419 2.70836 11.2252 2.70836Z" fill="#E00A0A"/>
<path d="M0.776316 3.09595C0.970196 3.09595 0.970196 3.09595 0.970196 3.32807C0.970196 3.48217 0.970196 3.48217 0.735279 3.48217C0.584053 3.48217 0.584053 3.48217 0.584053 3.24425C0.583407 3.09595 0.583407 3.09595 0.776316 3.09595Z" fill="#E00A0A"/>
<path d="M11.2213 3.48214C11.0332 3.48214 11.0332 3.48214 11.0332 3.25647C11.0332 3.09528 11.0332 3.09528 11.2733 3.09528C11.4197 3.09528 11.4197 3.09528 11.4193 3.33835C11.4184 3.48214 11.4184 3.48214 11.2213 3.48214Z" fill="#E00A0A"/>
<path d="M0.970823 4.07335C0.970823 4.25582 0.970823 4.25582 0.78793 4.25582C0.58468 4.25582 0.584681 4.25582 0.584681 4.05788C0.586783 4.02997 0.586783 4.00196 0.584681 3.97406C0.571755 3.88895 0.606007 3.85606 0.690021 3.86928C0.714008 3.87105 0.738093 3.87105 0.76208 3.86928C0.970823 3.8696 0.970823 3.8696 0.970823 4.07335Z" fill="#E00A0A"/>
<path d="M11.0332 4.05113C11.0332 3.86963 11.0332 3.86963 11.2167 3.86963C11.4193 3.86963 11.4193 3.86963 11.4193 4.06822C11.4193 4.25585 11.4193 4.25585 11.2297 4.25585C11.0332 4.25585 11.0332 4.25585 11.0332 4.05113Z" fill="#E00A0A"/>
<path d="M0.775924 5.02959C0.583984 5.02959 0.583984 5.02959 0.583984 4.80811C0.583984 4.64337 0.583984 4.64337 0.820517 4.64337C0.97045 4.64337 0.97045 4.64337 0.970127 4.8829C0.970127 5.02959 0.970126 5.02959 0.775924 5.02959Z" fill="#E00A0A"/>
<path d="M11.2213 4.64337C11.4193 4.64337 11.4193 4.64337 11.4193 4.84648C11.4193 5.02959 11.4193 5.02959 11.2371 5.02959C11.0332 5.02959 11.0332 5.02959 11.0332 4.82036C11.0332 4.64337 11.0332 4.64337 11.2213 4.64337Z" fill="#E00A0A"/>
<path d="M0.781418 5.41711C0.970127 5.41711 0.970127 5.41711 0.970127 5.64278C0.970127 5.80398 0.970127 5.80398 0.730686 5.80398C0.583984 5.80398 0.583984 5.80398 0.583984 5.56154C0.583984 5.41711 0.583984 5.41711 0.781418 5.41711Z" fill="#E00A0A"/>
<path d="M11.4177 5.61824C11.4177 5.80233 11.4177 5.80233 11.2368 5.80233C11.0316 5.80233 11.0316 5.80233 11.0316 5.59439C11.0329 5.5784 11.0329 5.56234 11.0316 5.54635C11.0141 5.44383 11.0494 5.39483 11.1589 5.4174C11.1789 5.41917 11.199 5.41917 11.219 5.4174C11.4177 5.41707 11.4177 5.41707 11.4177 5.61824Z" fill="#E00A0A"/>
<path d="M5.80849 6.11152C5.80849 5.56766 5.81011 5.02379 5.80849 4.4796C5.80849 4.17817 5.63142 3.95186 5.35611 3.88835C5.28264 3.87018 5.20625 3.86704 5.13153 3.8791C5.05681 3.89117 4.98532 3.91819 4.92134 3.95856C4.85737 3.99892 4.80225 4.05178 4.75929 4.11395C4.71634 4.17613 4.68644 4.24634 4.67139 4.32035C4.6491 4.43125 4.60677 4.47026 4.50013 4.4493C4.49605 4.44898 4.49194 4.44898 4.48785 4.4493C4.41967 4.4493 4.34212 4.46639 4.28525 4.44027C4.22838 4.41416 4.25035 4.32583 4.22999 4.26683C4.1894 4.15014 4.11318 4.04907 4.01204 3.97782C3.91091 3.90658 3.78993 3.86875 3.66613 3.86965C3.53807 3.87238 3.41471 3.91829 3.31614 3.99989C3.21757 4.0815 3.14959 4.19399 3.12327 4.31906C3.10194 4.42738 3.0622 4.45671 2.9533 4.45252C2.69932 4.44253 2.699 4.4493 2.71838 4.20074C2.77714 3.45663 3.08656 2.75426 3.59628 2.20789C4.10601 1.66153 4.78605 1.30334 5.52575 1.19159C7.28068 0.92594 8.95095 2.14166 9.24565 3.89963C9.27282 4.0542 9.28859 4.21055 9.29282 4.36741C9.29282 4.43189 9.27473 4.45768 9.21107 4.44866C9.19493 4.44769 9.17874 4.44769 9.1626 4.44866C9.08634 4.44866 9.00104 4.468 8.93641 4.44092C8.87178 4.41384 8.89343 4.31487 8.86823 4.24974C8.77678 4.01279 8.53766 3.85192 8.2937 3.86965C8.16772 3.87595 8.04746 3.92408 7.95203 4.00638C7.8566 4.08868 7.79147 4.20044 7.76699 4.32389C7.74728 4.42931 7.70528 4.46606 7.60543 4.44898C7.58553 4.44575 7.56523 4.44575 7.54533 4.44898C7.41607 4.46929 7.35533 4.43447 7.32689 4.28778C7.27551 4.02439 6.98308 3.84031 6.72328 3.87287C6.57914 3.88708 6.44549 3.95444 6.3485 4.06176C6.2515 4.16909 6.19813 4.30866 6.19884 4.45317C6.19399 4.9245 6.19884 5.39615 6.19884 5.86748C6.19884 6.48001 6.1969 7.09255 6.19884 7.70508C6.19884 8.02747 6.50807 8.22348 6.77336 8.07292C6.84333 8.03244 6.89886 7.97114 6.93218 7.89761C6.9655 7.82408 6.97493 7.74199 6.95917 7.66285C6.94148 7.57739 6.89564 7.5003 6.82893 7.44386C6.76223 7.38742 6.67851 7.35488 6.59112 7.35142C6.38948 7.33724 6.38948 7.33724 6.38948 7.13703C6.38948 7.10061 6.39142 7.06418 6.38948 7.02807C6.3869 6.98229 6.40532 6.96875 6.45153 6.96359C6.96175 6.90717 7.36857 7.27211 7.35629 7.77762C7.34628 8.18318 6.99697 8.51233 6.57819 8.51104C6.16846 8.51104 5.81528 8.17899 5.8114 7.77955C5.80623 7.22343 5.8114 6.66764 5.8114 6.11152H5.80849ZM8.75546 3.57628C8.56448 2.65038 7.17211 1.474 6.43666 1.61133C6.46897 1.66872 6.49935 1.72417 6.52908 1.78059C6.79728 2.2906 6.92394 2.83834 6.96369 3.40896C6.96692 3.45506 6.95755 3.49826 7.02832 3.51631C7.21305 3.56293 7.37821 3.66677 7.50009 3.81291C7.54016 3.8603 7.56245 3.85256 7.60187 3.81098C7.92856 3.46731 8.31179 3.40026 8.75546 3.57628ZM3.24832 3.57628C3.69327 3.40058 4.0778 3.46828 4.40255 3.81259C4.44326 3.85611 4.46523 3.85772 4.50433 3.81259C4.62126 3.67186 4.77893 3.57063 4.95575 3.52276C5.02393 3.50471 5.03847 3.47182 5.04267 3.40735C5.07498 2.89411 5.18194 2.39796 5.40167 1.92985C5.45337 1.81992 5.51186 1.71289 5.57034 1.59779C4.53342 1.69967 3.51943 2.57398 3.24832 3.57596V3.57628ZM6.56721 3.36963C6.51874 2.79514 6.37527 2.2819 6.09382 1.81057C6.00173 1.65647 6.0014 1.65647 5.9064 1.81637C5.61106 2.31381 5.46694 2.85542 5.43269 3.43024C5.42946 3.48794 5.44917 3.50664 5.49732 3.52115C5.66948 3.5684 5.82347 3.66611 5.93936 3.80163C5.99397 3.8661 6.0195 3.84934 6.06571 3.79615C6.16047 3.67999 6.28732 3.59413 6.43052 3.5492C6.55202 3.51502 6.60372 3.46151 6.56721 3.36931V3.36963Z" fill="#E00A0A"/>
<path d="M5.03781 8.01809C5.02784 8.0296 5.01704 8.04038 5.0055 8.05033C4.99245 8.05977 4.97861 8.06808 4.96414 8.07515C4.88303 8.11964 4.79999 8.20185 4.72147 8.19766C4.63616 8.19347 4.61322 8.06451 4.5599 7.9923C4.39087 7.76145 4.18793 7.55734 3.95791 7.38686C3.53783 7.07156 3.15008 6.72242 2.87057 6.26882C2.7607 6.09022 2.75844 6.09151 2.94456 5.98931C3.10161 5.90291 3.10322 5.90195 3.19628 6.05379C3.45479 6.47676 3.82122 6.79528 4.21286 7.08994C4.52133 7.31775 4.78334 7.60225 4.98482 7.92814C5.00356 7.9578 5.02036 7.98585 5.03781 8.01809Z" fill="#E00A0A"/>
<path d="M2.77344 5.18242C2.80898 5.17371 2.82546 5.19016 2.83225 5.22368C2.83613 5.24303 2.84453 5.26173 2.85034 5.28107C2.93694 5.56799 2.92887 5.57992 2.62868 5.6631C2.58958 5.67406 2.56922 5.67438 2.55597 5.63473C2.54725 5.60797 2.53594 5.58218 2.52624 5.55574C2.4209 5.26559 2.4642 5.19918 2.77344 5.18242Z" fill="#E00A0A"/>
</svg>
