<svg width="12" height="12" viewBox="0 0 12 12" fill="none" xmlns="http://www.w3.org/2000/svg">
<path d="M11.9993 6.00745C11.9993 7.51554 11.9993 9.02399 11.9993 10.5328C11.9993 11.2366 11.5548 11.7991 10.8801 11.9605C10.7566 11.9883 10.6302 12.0015 10.5035 11.9999C8.60321 11.9999 6.70282 11.9999 4.8023 11.9999C3.97696 11.9999 3.36312 11.4306 3.31269 10.6237C3.3048 10.5575 3.28306 10.4937 3.24884 10.4362C2.22433 8.39065 1.19958 6.34511 0.174585 4.29957C-0.154462 3.64225 -0.010436 2.93985 0.539549 2.50009C0.639417 2.42325 0.747724 2.35771 0.86243 2.30472C1.6521 1.92018 2.44225 1.53576 3.23288 1.15147C3.26953 1.13634 3.30235 1.11342 3.329 1.08435C3.35565 1.05528 3.37548 1.02078 3.38706 0.98329C3.59168 0.38573 4.12316 0.0035782 4.76348 0.00250474C6.69084 -0.000834914 8.61845 -0.000834914 10.5463 0.00250474C11.3706 0.00429384 11.9974 0.634057 11.9974 1.45597C12.0018 2.97241 11.9993 4.48993 11.9993 6.00745ZM11.4224 6.00279C11.4224 4.50281 11.4224 3.00295 11.4224 1.5032C11.4224 0.93069 11.0596 0.570008 10.485 0.56965C8.5985 0.56965 6.71128 0.56965 4.82334 0.56965C4.71923 0.56756 4.61537 0.580335 4.51497 0.607579C4.1159 0.724586 3.88662 1.05306 3.88698 1.51787C3.88916 4.50806 3.89182 7.4986 3.89497 10.4895C3.89497 11.0817 4.24506 11.4302 4.84402 11.4306H10.4647C10.5733 11.4336 10.6819 11.4215 10.7872 11.3948C11.1863 11.2821 11.4217 10.9525 11.4221 10.5031C11.4228 9.00264 11.4229 7.50254 11.4224 6.00279ZM3.3058 9.21173C3.3058 9.18095 3.30943 9.15591 3.30943 9.13122C3.30943 6.71331 3.31015 4.2954 3.3116 1.87748C3.3116 1.74903 3.27533 1.76405 3.18463 1.80807C2.48155 2.15372 1.77629 2.49544 1.07212 2.83966C1.01531 2.86707 0.961356 2.89991 0.911044 2.9377C0.572201 3.19712 0.483317 3.62472 0.687204 4.03192C1.53371 5.7256 2.38239 7.41929 3.23324 9.11297C3.24993 9.14517 3.25574 9.18739 3.3058 9.21173Z" fill="#E00A0A"/>
<path d="M7.65754 2.8593C8.12336 2.8593 8.58918 2.85715 9.055 2.8593C9.92387 2.86431 10.5424 3.46759 10.5504 4.32457C10.5569 5.06049 10.5569 5.79652 10.5504 6.53268C10.545 7.25333 10.094 7.81189 9.40291 7.96396C9.29245 7.98784 9.17969 7.99984 9.06661 7.99974C8.12554 8.00261 7.18483 8.00547 6.24412 7.99974C5.51528 7.99581 4.9468 7.54889 4.79044 6.86903C4.76183 6.73808 4.74832 6.60436 4.75017 6.47042C4.75017 5.75657 4.75017 5.04272 4.75488 4.32922C4.76033 3.58317 5.2392 3.01065 5.96224 2.87826C6.11461 2.85035 6.26916 2.8593 6.42262 2.85894C6.83547 2.85858 7.24723 2.8593 7.65754 2.8593ZM5.36437 5.68178C5.45107 5.58589 5.53161 5.49572 5.61324 5.40626C6.11352 4.85737 6.86485 4.83375 7.40214 5.34901C7.55125 5.49214 7.69636 5.63956 7.84401 5.78412C8.11465 6.04927 8.39509 6.07467 8.71035 5.86356C9.0706 5.62203 9.45515 5.58016 9.85821 5.73832C9.95144 5.7741 9.97031 5.76265 9.96958 5.66676C9.96595 5.21161 9.97212 4.7561 9.96668 4.30095C9.96088 3.78712 9.59228 3.43074 9.06915 3.42966C8.123 3.42775 7.17709 3.42775 6.23143 3.42966C5.71119 3.42966 5.34405 3.79178 5.33897 4.30632C5.33498 4.73034 5.33897 5.15471 5.33897 5.57873C5.33558 5.5968 5.33622 5.61538 5.34086 5.63318C5.34549 5.65098 5.35401 5.66757 5.36582 5.68178H5.36437ZM7.64992 7.42473C8.15166 7.42473 8.65375 7.43403 9.15513 7.42186C9.61659 7.40934 9.97938 7.01395 9.96922 6.56524C9.97109 6.54584 9.96882 6.52628 9.96257 6.50779C9.95633 6.48931 9.94623 6.47231 9.93294 6.4579C9.6565 6.1813 9.32418 6.14588 9.00167 6.36164C8.51553 6.68618 7.92238 6.64325 7.49501 6.24714C7.32741 6.09149 7.16851 5.9251 7.00416 5.76659C6.70051 5.46995 6.32793 5.48033 6.04568 5.79271C5.84107 6.01885 5.64117 6.24964 5.42894 6.47006C5.3426 6.56023 5.3299 6.64897 5.35638 6.76169C5.45216 7.15099 5.77577 7.419 6.18499 7.42473C6.67548 7.43045 7.16379 7.42473 7.6521 7.42473H7.64992Z" fill="#E00A0A"/>
<path d="M7.66164 1.42629H9.85904C9.90419 1.42474 9.94939 1.42605 9.99436 1.43023C10.1551 1.45134 10.2628 1.56871 10.261 1.71649C10.2602 1.7864 10.2332 1.85355 10.1853 1.90506C10.1373 1.95656 10.0718 1.9888 10.0013 1.99558C9.95186 2.00077 9.90216 2.00257 9.85251 2.00095H5.45771C5.40794 2.00257 5.35812 2.00078 5.30861 1.99558C5.23808 1.98872 5.1726 1.95646 5.12468 1.90497C5.07675 1.85348 5.04976 1.78638 5.04885 1.71649C5.04704 1.56799 5.15478 1.45062 5.31514 1.43023C5.36009 1.42576 5.4053 1.42432 5.45046 1.42593L7.66164 1.42629Z" fill="#E00A0A"/>
<path d="M7.65441 9.9975C8.38675 9.9975 9.11922 9.9975 9.85181 9.9975C9.8928 9.9975 9.93343 9.99571 9.97407 9.9975C10.1446 10.0125 10.2589 10.1256 10.2614 10.2795C10.2639 10.4333 10.1504 10.5503 9.98205 10.5689C9.95055 10.5714 9.91894 10.5722 9.88736 10.5714H5.42508C5.36177 10.5758 5.2982 10.568 5.23788 10.5485C5.18142 10.5299 5.13266 10.4936 5.09895 10.4452C5.06525 10.3968 5.04843 10.3388 5.05105 10.2802C5.04952 10.2215 5.06744 10.164 5.10207 10.1162C5.1367 10.0685 5.18617 10.0332 5.24296 10.0157C5.30812 9.99686 5.37623 9.98983 5.44394 9.99499L7.65441 9.9975Z" fill="#E00A0A"/>
<path d="M7.66853 8.85898H9.89278C9.96534 8.85898 10.0379 8.85433 10.1046 8.89011C10.1593 8.91785 10.2036 8.96215 10.2308 9.0165C10.2581 9.07085 10.2671 9.1324 10.2563 9.19211C10.2459 9.25215 10.216 9.30722 10.1711 9.34905C10.1262 9.39087 10.0688 9.41717 10.0074 9.42398C9.96249 9.42887 9.91724 9.43019 9.8721 9.42791H5.36955C5.17727 9.42362 5.04703 9.3059 5.04885 9.1388C5.05066 8.97169 5.17473 8.86077 5.36302 8.85969C5.88761 8.85719 6.41184 8.85969 6.93643 8.85969L7.66853 8.85898Z" fill="#E00A0A"/>
<path d="M9.09913 4.57401C9.09923 4.64887 9.08431 4.72301 9.05523 4.79215C9.02616 4.8613 8.9835 4.92409 8.92971 4.9769C8.87593 5.02972 8.81208 5.07152 8.74185 5.09989C8.67161 5.12827 8.59638 5.14266 8.52049 5.14223C8.4447 5.1419 8.36972 5.12682 8.29985 5.09784C8.22998 5.06887 8.1666 5.02657 8.11334 4.97338C8.06009 4.92019 8.01801 4.85715 7.98951 4.78788C7.96101 4.71861 7.94666 4.64447 7.94728 4.56972C7.94728 4.49467 7.96232 4.42036 7.99152 4.35106C8.02073 4.28176 8.06353 4.21883 8.11747 4.1659C8.17141 4.11297 8.23542 4.07107 8.30583 4.04261C8.37624 4.01415 8.45165 3.99969 8.52774 4.00007C8.68064 4.00158 8.82668 4.06287 8.9338 4.17047C9.04093 4.27808 9.10039 4.42321 9.09913 4.57401Z" fill="#E00A0A"/>
</svg>
