<svg width="12" height="12" viewBox="0 0 12 12" fill="none" xmlns="http://www.w3.org/2000/svg">
<path d="M11.9949 5.99709C11.9949 7.69047 11.9949 9.38386 11.9949 11.0772C11.9949 11.5195 11.7427 11.8449 11.3167 11.961C11.2126 11.9882 11.1046 12.0013 10.9962 11.9999C7.77078 11.9999 4.54521 11.9999 1.31952 11.9999C0.534347 11.9999 0.00142517 11.5037 0.00103042 10.775C0.00103042 8.5068 0.00103042 6.23868 0.00103042 3.97067C-0.00201008 3.85485 0.00167936 3.73895 0.0120836 3.62347C0.0347332 3.41517 0.141893 3.22185 0.312863 3.08087C0.483833 2.93989 0.70648 2.86124 0.93779 2.86013C1.21412 2.85584 1.49045 2.85477 1.76678 2.86013C1.871 2.86227 1.89981 2.83262 1.89902 2.74011C1.89508 2.14751 1.89665 1.55455 1.89902 0.961949C1.89902 0.345773 2.28075 0 2.95816 0C5.63698 0 8.31593 0 10.995 0C11.49 0 11.8635 0.255401 11.9748 0.664756C11.9962 0.765455 12.004 0.868123 11.9981 0.970522C11.9963 2.64604 11.9952 4.32157 11.9949 5.99709ZM11.3633 6.01531V0.975166C11.3633 0.930873 11.3653 0.885865 11.3633 0.841572C11.3622 0.776191 11.3347 0.713443 11.286 0.665149C11.2372 0.616855 11.1707 0.586351 11.0988 0.579384C11.0354 0.571694 10.9714 0.568469 10.9074 0.56974C8.26804 0.56974 5.62843 0.56974 2.98855 0.56974C2.91481 0.568102 2.84106 0.572767 2.76828 0.58367C2.62577 0.609032 2.54879 0.695475 2.53143 0.823711C2.52681 0.877067 2.52576 0.930626 2.52827 0.984096C2.52827 4.24656 2.52827 7.50901 2.52827 10.7715C2.53307 10.9455 2.50077 11.1186 2.43313 11.2816C2.36957 11.4244 2.36878 11.4266 2.53853 11.4266H10.9469C11.2737 11.4266 11.3665 11.3409 11.3665 11.0433L11.3633 6.01531ZM1.8931 7.20444C1.8931 5.99745 1.89073 4.79046 1.89665 3.58347C1.89665 3.45273 1.85718 3.41594 1.71586 3.42344C1.51019 3.43487 1.30294 3.4263 1.09609 3.4263C0.713567 3.4263 0.633431 3.49774 0.633431 3.8378V10.7454C0.633431 10.7943 0.633431 10.8433 0.633431 10.8922C0.639264 11.0247 0.697604 11.1508 0.797781 11.2476C0.897957 11.3443 1.03328 11.4052 1.17899 11.4191C1.50821 11.448 1.79244 11.283 1.86626 11.0101C1.88579 10.9229 1.89387 10.8339 1.89034 10.745C1.89455 9.56484 1.89613 8.38464 1.89508 7.20444H1.8931Z" fill="#E00A0A"/>
<path d="M5.04933 4.2811C4.86813 4.27574 4.68536 4.30039 4.50614 4.25681C4.30866 4.2129 4.13241 4.11187 4.00417 3.96907C3.87592 3.82627 3.80268 3.6495 3.79558 3.4656C3.78729 3.24771 3.7865 3.02946 3.79558 2.81156C3.80551 2.59788 3.90475 2.39558 4.07323 2.24559C4.2417 2.09559 4.46685 2.00908 4.70313 2.00357C4.93998 1.99785 5.17684 1.99749 5.41132 2.00357C5.64721 2.01203 5.8709 2.10064 6.0378 2.25172C6.20469 2.4028 6.30251 2.60525 6.31176 2.81871C6.31887 3.03303 6.31808 3.24735 6.31176 3.45953C6.30409 3.67314 6.20778 3.87631 6.04201 4.02856C5.87624 4.18081 5.65318 4.27097 5.41724 4.2811C5.29526 4.28538 5.1721 4.2811 5.04933 4.2811ZM5.05604 3.71422C5.15907 3.71422 5.2625 3.71779 5.36553 3.71422C5.55146 3.70671 5.67305 3.60884 5.68133 3.4406C5.6916 3.24092 5.69199 3.04017 5.68133 2.84049C5.67226 2.67797 5.55501 2.57866 5.375 2.57259C5.15907 2.56581 4.94077 2.56509 4.72642 2.57259C4.54285 2.57938 4.42877 2.69083 4.42403 2.85835C4.4193 3.04946 4.4189 3.24092 4.42403 3.43202C4.42916 3.59741 4.54838 3.70421 4.73194 3.71314C4.83971 3.71814 4.94788 3.71386 5.05604 3.71422Z" fill="#E00A0A"/>
<path d="M3.79295 5.99588C3.79295 5.88872 3.7886 5.78156 3.79295 5.6744C3.8018 5.4613 3.89959 5.25915 4.0666 5.10868C4.23362 4.95822 4.45745 4.87063 4.69299 4.86355C4.93379 4.85605 5.17539 4.85569 5.41579 4.86355C5.65164 4.87265 5.87494 4.96215 6.04087 5.11408C6.20679 5.26601 6.30305 5.46912 6.31031 5.68262C6.31623 5.89158 6.31584 6.1009 6.31031 6.30987C6.30403 6.52799 6.20549 6.73562 6.03502 6.88994C5.86455 7.04426 5.63513 7.13351 5.39408 7.13929C5.16789 7.14429 4.94169 7.14394 4.71549 7.13929C4.47459 7.13573 4.24444 7.04842 4.07275 6.89546C3.90107 6.74251 3.80102 6.53563 3.79334 6.31772C3.7886 6.20949 3.79295 6.10269 3.79295 5.99588ZM4.42022 6.00053C4.42022 6.08947 4.41785 6.17913 4.42022 6.26736C4.42574 6.4556 4.54141 6.56491 4.75063 6.57027C4.95156 6.57527 5.15328 6.57527 5.35461 6.57027C5.55593 6.56527 5.67041 6.46525 5.67989 6.29022C5.68936 6.09519 5.68936 5.89908 5.67989 5.70405C5.6712 5.53473 5.55159 5.43365 5.36408 5.42936C5.15328 5.42436 4.94169 5.424 4.73247 5.42936C4.54259 5.43472 4.42772 5.54581 4.421 5.72048C4.41745 5.81407 4.42022 5.9073 4.42022 6.00053Z" fill="#E00A0A"/>
<path d="M6.31417 8.28668C6.31416 8.32693 6.30465 8.36672 6.28627 8.40337C6.26788 8.44003 6.24106 8.4727 6.20759 8.49922C5.80059 8.86785 5.39439 9.23791 4.98384 9.6044C4.8212 9.75014 4.65264 9.7505 4.49 9.60762C4.28867 9.43068 4.09024 9.25113 3.89471 9.06896C3.74312 8.92857 3.7368 8.78141 3.87102 8.65567C4.00524 8.52994 4.17775 8.52743 4.33881 8.66567C4.43833 8.74635 4.53307 8.83172 4.62264 8.92143C4.70159 9.00716 4.75449 9.01645 4.84883 8.92643C5.14806 8.64281 5.45755 8.36812 5.76704 8.09415C5.93007 7.94948 6.14798 7.96591 6.26364 8.12272C6.30025 8.17073 6.31804 8.22845 6.31417 8.28668Z" fill="#E00A0A"/>
<path d="M8.51184 5.71425C8.09813 5.71425 7.68285 5.71604 7.27151 5.71425C7.04137 5.71425 6.91623 5.59316 6.93084 5.39991C6.94386 5.24131 7.06229 5.14558 7.26164 5.14344C7.62087 5.13987 7.9801 5.14058 8.33933 5.14022C8.81659 5.14022 9.29386 5.13701 9.77112 5.14022C10.0439 5.14308 10.1919 5.3299 10.0988 5.53958C10.038 5.67567 9.91599 5.71425 9.76677 5.71389C9.34833 5.71365 8.93002 5.71377 8.51184 5.71425Z" fill="#E00A0A"/>
<path d="M8.52488 8.5701C8.1163 8.5701 7.70773 8.57188 7.29916 8.5701C7.10651 8.5701 6.99993 8.50115 6.96085 8.3672C6.90124 8.16253 7.04256 8.00071 7.29205 7.99893C7.77444 7.99571 8.25684 7.99893 8.73923 7.99893C9.07912 7.99893 9.41861 7.99678 9.75849 7.99893C9.99337 8.00107 10.1229 8.13109 10.0976 8.32863C10.0775 8.48151 9.95824 8.56867 9.7506 8.5701C9.34202 8.57224 8.93345 8.5701 8.52488 8.5701Z" fill="#E00A0A"/>
<path d="M8.52837 2.85796C8.10993 2.85796 7.69109 2.86082 7.27265 2.85796C7.02198 2.85546 6.87789 2.67115 6.96119 2.4679C6.97975 2.41399 7.01759 2.36719 7.06875 2.33486C7.11992 2.30253 7.18151 2.2865 7.24383 2.28929C7.41595 2.28679 7.58845 2.28751 7.76057 2.28751C8.42534 2.28751 9.08972 2.28751 9.75449 2.28751C9.99134 2.28751 10.1212 2.40467 10.1074 2.59113C10.0952 2.75795 9.97595 2.85546 9.76909 2.85689C9.35539 2.85975 8.94168 2.85796 8.52837 2.85796Z" fill="#E00A0A"/>
<path d="M7.88444 4.00073C7.68707 4.00073 7.48969 4.00359 7.29231 4.00073C7.07124 3.9968 6.94453 3.88893 6.94532 3.71497C6.94611 3.54101 7.07361 3.42921 7.29389 3.42921C7.69259 3.42635 8.0913 3.42635 8.49 3.42921C8.70949 3.42921 8.83699 3.54101 8.83699 3.71497C8.83699 3.88893 8.70988 3.99395 8.48842 4.00073H7.88444Z" fill="#E00A0A"/>
<path d="M7.91194 6.28357C8.10932 6.28357 8.3067 6.28178 8.50408 6.28357C8.71922 6.28607 8.85226 6.3993 8.85028 6.57219C8.84831 6.74508 8.72554 6.85045 8.51277 6.85295C8.10406 6.85748 7.69548 6.85748 7.28704 6.85295C7.07427 6.85009 6.95742 6.74043 6.959 6.56719C6.96058 6.39395 7.08256 6.28786 7.29296 6.28464C7.50337 6.28143 7.70509 6.28357 7.91194 6.28357Z" fill="#E00A0A"/>
<path d="M7.90019 9.1426C8.10191 9.1426 8.30403 9.14082 8.50575 9.1426C8.70747 9.14439 8.83932 9.25548 8.83971 9.42587C8.84011 9.59625 8.71497 9.7077 8.50693 9.70949C8.09849 9.71306 7.69057 9.71306 7.28318 9.70949C7.07475 9.7077 6.94961 9.59697 6.94922 9.42694C6.94882 9.25691 7.07909 9.14439 7.297 9.14117C7.49714 9.14117 7.69886 9.1426 7.90019 9.1426Z" fill="#E00A0A"/>
</svg>
